<?xml version="1.0" encoding="UTF-8"?>
<svg id="Layer_1" data-name="Layer 1" xmlns="http://www.w3.org/2000/svg" viewBox="0 0 42.87 15.69">
  <defs>
    <style>
      .cls-1, .cls-2 {
        fill: none;
        stroke: #000;
        stroke-linecap: round;
        stroke-linejoin: round;
        stroke-width: .75px;
      }

      .cls-2 {
        stroke-dasharray: 3 3;
      }
    </style>
  </defs>
  <line class="cls-1" x1="0" y1="7.85" x2="1.5" y2="7.85"/>
  <line class="cls-2" x1="4.5" y1="7.85" x2="38.97" y2="7.85"/>
  <line class="cls-1" x1="40.46" y1="7.85" x2="41.96" y2="7.85"/>
  <path d="M36.84,11.45c-.11-.17-.06-.41.11-.52l4.84-3.08-4.84-3.08c-.17-.11-.23-.34-.11-.52s.34-.22.52-.11l5.34,3.4c.11.07.17.19.17.32s-.07.25-.17.32l-5.34,3.4c-.06.04-.13.06-.2.06-.12,0-.24-.06-.32-.17Z"/>
</svg>