<?xml version="1.0" encoding="UTF-8"?>
<svg id="Line" xmlns="http://www.w3.org/2000/svg" version="1.1" viewBox="0 0 256 256">
  <!-- Generator: Adobe Illustrator 29.3.1, SVG Export Plug-In . SVG Version: 2.1.0 Build 151)  -->
  <defs>
    <style>
      .st0 {
        fill: #c14400;
      }
    </style>
  </defs>
  <path class="st0" d="M88.4,192.1c4.5-2.9,7-7.1,7-11.9s-3.6-11-9.8-13.8c-5.3-2.5-11.1-3.5-21.6-3.5s-16.3.6-20.5,1.2c-1.4.2-2.4,1.4-2.4,2.7v56.3c0,1.4,1,2.6,2.4,2.7,2.7.3,8.4.9,17.2.9,13.7,0,22.8-1.8,28.6-5.7,5.5-3.7,8.4-8.7,8.4-14.5,0-6.2-3.5-11.4-9.4-14.4h0ZM86.4,216.5c-4.8,3.2-13.1,4.7-25.5,4.7s-11.1-.3-14.1-.6v-51.4c4.3-.5,11-.9,17.4-.9,9.5,0,14.8.8,19.2,3,0,0,0,0,0,0,2.4,1.1,6.5,3.7,6.5,8.8s-3.4,7.6-9.4,9.5c-1.1.4-1.9,1.4-1.9,2.6v.2c0,1.3.9,2.4,2.2,2.7,7.2,1.6,11.5,5.8,11.5,11.3,0,4-2,7.3-5.9,10Z"/>
  <path class="st0" d="M64.7,195.3h-5.3c-1.5,0-2.8,1.2-2.8,2.8v16.2c0,1.4,1.1,2.6,2.4,2.7,1.7.2,3.6.2,6.3.2,10,0,16-4.1,16-11.1,0-6.7-6.3-10.7-16.7-10.7h0ZM65.4,211.6c-1.3,0-2.3,0-3.3,0v-10.8h2.6c3.4,0,11.2.5,11.2,5.2,0,5-7.4,5.6-10.5,5.6h0Z"/>
  <path class="st0" d="M59.4,191.5h5.1c14.2,0,15.3-7.5,15.3-9.8s-1.3-9.4-13.8-9.4-5.2.1-7,.4c-1.4.2-2.4,1.4-2.4,2.7v13.4c0,1.5,1.2,2.8,2.8,2.8h0ZM62.2,177.9c1.1,0,2.4,0,3.9,0,3.8,0,8.3.7,8.3,3.9s-5.1,4.3-9.8,4.3h-2.4v-8.1Z"/>
  <path class="st0" d="M180.4,163.3h-20.4c-1.1,0-2.2.7-2.6,1.8l-7.3,19.1c-1.3,3.5-2.7,7.6-4,11.8-1.1-3.9-2.3-7.9-3.6-11.7l-6.7-19.1c-.4-1.1-1.4-1.8-2.6-1.8h-20.7c-1.4,0-2.6,1.1-2.7,2.5l-4.4,57.3c0,.8.2,1.5.7,2.1s1.3.9,2,.9h14.4c1.5,0,2.7-1.1,2.7-2.6l1.3-21.8c.1-2,.2-4.2.3-6.5.6,2.1,1.2,4,1.8,5.9l7.3,22.1c.4,1.1,1.4,1.9,2.6,1.9h12.1c1.1,0,2.2-.7,2.6-1.8l8.4-22.3c1-2.5,2-5.1,2.9-7.8.1,3,.2,5.8.3,8.3,0,0,0,0,0,0l1.1,21.9c0,1.5,1.3,2.6,2.7,2.6h15.1c.8,0,1.5-.3,2-.9.5-.6.8-1.3.7-2.1l-3.7-57.3c0-1.4-1.3-2.6-2.7-2.6h0ZM171.6,220.6l-1-19.3c-.3-6.4-.6-14.8-.6-23.4s-1.2-2.8-2.8-2.8h-.2c-1.2,0-2.3.8-2.6,1.9-2.2,7.2-5,15.2-7.7,22l-7.7,20.6h-8.3l-6.7-20.2c-2.2-6.5-4.4-14.6-6.2-22.2-.3-1.2-1.4-2.1-2.7-2.1h-.2c-1.5,0-2.7,1.2-2.7,2.6-.3,8.4-.7,17-1.1,23.7l-1.2,19.2h-8.8l4-51.8h16.2l6.1,17.3c2.3,6.7,4.3,13.7,5.7,20.2.3,1.3,1.4,2.1,2.7,2.1h.4c1.2,0,2.3-.8,2.7-2,2-7.2,4.3-14.6,6.5-20.3l6.6-17.3h15.9l3.3,51.8h-9.6Z"/>
  <path class="st0" d="M215.8,163.3h-15.5c-1.5,0-2.8,1.2-2.8,2.8v57.3c0,1.5,1.2,2.8,2.8,2.8h15.5c1.5,0,2.8-1.2,2.8-2.8v-57.3c0-1.5-1.2-2.8-2.8-2.8ZM213,220.6h-10v-51.8h10v51.8Z"/>
  <path class="st0" d="M129.9,32.2c-61.1,0-110.7,49.7-110.7,110.7v5.2c0,1.5,1.2,2.8,2.8,2.8h13.2c1.5,0,2.8-1.2,2.8-2.8v-2.2h20.7s.3-4.6.3-5.5h-21c.2-6.3,1-12.4,2.4-18.4l8.7,2.3c.4-1.8.9-3.6,1.4-5.3l-8.8-2.3c1.8-5.9,4.1-11.6,7-17l18.3,10.6c.9-1.6,1.8-3.2,2.8-4.8l-18.3-10.6c3.3-5.4,7.1-10.4,11.4-14.9l6.5,6.5c1.3-1.3,2.6-2.6,3.9-3.9l-6.6-6.6c4.4-4.2,9.2-7.9,14.4-11.2l10.7,18.5c1.5-1,3.1-1.9,4.8-2.8l-10.7-18.6c5.5-3,11.4-5.5,17.6-7.4l2.4,9.1c1.7-.5,3.5-1,5.3-1.4l-2.4-9.1c5.8-1.4,11.8-2.2,18-2.4v21.7c.9,0,4.6,0,5.5,0v-21.7c6.5.2,12.9,1,19,2.4l-2.4,9.1c1.8.4,3.6.9,5.3,1.4l2.4-9.1c5.9,1.8,11.5,4.1,16.8,6.9l-10.9,19c1.6.9,3.2,1.8,4.8,2.8l11-19c5.4,3.3,10.5,7.2,15.1,11.6l-6.6,6.6c1.3,1.3,2.6,2.5,3.9,3.9l6.5-6.5c4.2,4.4,7.9,9.3,11.1,14.5l-19.1,11c1,1.5,1.9,3.1,2.8,4.8l19.1-11c3,5.5,5.4,11.3,7.2,17.5l-8.8,2.3c.5,1.7,1,3.5,1.4,5.3l8.7-2.3c1.4,5.9,2.2,12.1,2.4,18.4h-22c0,.9,0,5.5,0,5.5h21.9v2.2c0,1.5,1.2,2.8,2.8,2.8h13.2c1.5,0,2.8-1.2,2.8-2.8v-5.2c0-61.1-49.7-110.7-110.7-110.7h0ZM235.1,145.4h-7.7v-2.5c0-53.8-43.8-97.5-97.5-97.5s-97.5,43.8-97.5,97.5v2.5h-7.7v-2.5c0-58,47.2-105.2,105.2-105.2s105.2,47.2,105.2,105.2v2.5h0Z"/>
  <path class="st0" d="M175.8,117.1l10.2-26.5c.4-1,.1-2.2-.6-2.9-.8-.8-1.9-1-2.9-.6l-26.5,10.2c-.4.2-.8.5-1.1.8l-24.7,30.4c-4,0-8,1.4-11.1,4.5-2.9,2.9-4.5,6.8-4.6,10.9,0,4.1,1.6,8,4.5,10.9,2.9,2.9,6.8,4.5,10.9,4.6h0c4.1,0,8-1.6,10.9-4.5,3.4-3.4,4.9-8.1,4.5-12.5l29.7-24.1c.4-.3.7-.7.8-1.1h0ZM136.9,151c-1.9,1.9-4.4,2.9-7,2.9h0c-2.7,0-5.2-1-7-2.9s-2.9-4.4-2.9-7,1-5.2,2.9-7c1.9-1.9,4.5-2.9,7-2.9s5.1,1,7.1,2.9c3.9,3.9,3.8,10.2,0,14.1ZM143.5,136.7c-.7-1.3-1.6-2.5-2.7-3.6-1.4-1.4-3-2.5-4.7-3.2l22.5-27.7,20-7.7-7.7,20-27.4,22.3Z"/>
</svg>