<svg xmlns="http://www.w3.org/2000/svg" version="1.1" xmlns:xlink="http://www.w3.org/1999/xlink" width="512" height="512" x="0" y="0" viewBox="0 0 511.939 511.939" style="enable-background:new 0 0 512 512" xml:space="preserve" class=""><g><path d="M501.97 452h-442V55c-.492-13.254-19.513-13.244-20 0v37.001H9.969c-13.254.492-13.244 19.513 0 20H39.97v40H26.734c-13.254.492-13.244 19.513 0 20H39.97v40H26.734c-13.254.492-13.244 19.513 0 20H39.97v40H9.969c-13.254.492-13.244 19.513 0 20H39.97V332H26.734c-13.254.492-13.244 19.513 0 20H39.97v40H26.734c-13.254.492-13.244 19.513 0 20H39.97v40H9.969c-13.254.492-13.244 19.513 0 20H39.97v30.002c.492 13.254 19.513 13.244 20 0V472h40v13.236c.492 13.254 19.513 13.244 20 0V472h40v13.236c.492 13.254 19.513 13.244 20 0V472h40v30.002c.492 13.254 19.513 13.244 20 0V472h40v13.236c.492 13.254 19.513 13.244 20 0V472h40v13.236c.492 13.254 19.513 13.244 20 0V472h40v30.002c.492 13.254 19.513 13.244 20 0V472h82.001c13.253-.492 13.243-19.513-.001-20z" fill="#c14616" opacity="1" data-original="#000000"></path><path d="M169.97 382c36.924.004 53.872-46.34 26.252-70.142l39.928-79.857h3.82c9.968.013 13.687-13.177 5.388-18.415l36.237-72.474c5.37 1.179 11.38 1.179 16.75 0l36.237 72.473c-8.303 5.241-4.575 18.43 5.388 18.416h3.82l39.929 79.858C356.092 335.665 373.058 382.01 409.97 382c22.056 0 39.999-17.944 39.999-40 .305-25.094-23.946-44.636-48.376-39.111l-36.236-72.473c8.303-5.241 4.575-18.43-5.388-18.416h-3.82l-39.929-79.858c27.627-23.811 10.66-70.15-26.252-70.142-36.911-.008-53.878 46.337-26.25 70.142L223.789 212h-3.82c-9.968-.013-13.687 13.178-5.388 18.416l-36.236 72.473c-24.433-5.522-48.679 14.014-48.375 39.111 0 22.056 17.943 40 40 40zm259.999-40c0 11.028-8.972 20-20 20-26.496-1.005-26.489-38.999 0-40 11.028 0 20 8.972 20 20zm-140-259.999c11.028 0 20 8.972 20 20-1.005 26.496-38.998 26.489-40 0 .001-11.028 8.972-20 20-20zM169.97 322c11.028 0 20 8.972 20 20-1.005 26.496-38.999 26.489-40 0 0-11.028 8.972-20 20-20zM99.97 232.001h20c13.254-.492 13.244-19.513 0-20h-20c-13.254.492-13.244 19.513 0 20z" fill="#c14616" opacity="1" data-original="#000000"></path><path d="M159.97 232.001h20c13.254-.492 13.244-19.513 0-20h-20c-13.254.492-13.244 19.513 0 20zM279.969 212.001c-13.254.492-13.244 19.513 0 20h20c13.254-.492 13.244-19.513 0-20zM399.969 232.001h20c13.254-.492 13.244-19.513 0-20h-20c-13.254.492-13.244 19.513 0 20zM459.969 232.001h20c13.254-.492 13.244-19.513 0-20h-20c-13.254.492-13.244 19.513 0 20zM49.97 20c13.254-.492 13.244-19.513 0-20h-.007c-13.255.494-13.237 19.515.007 20z" fill="#c14616" opacity="1" data-original="#000000"></path></g></svg>