<svg width="24" height="24" viewBox="0 0 24 24" fill="none" xmlns="http://www.w3.org/2000/svg">
<g clip-path="url(#clip0_18_15)">
<path d="M23.89 16.875C23.7994 16.608 23.6569 16.3615 23.4707 16.1497C23.2845 15.938 23.0583 15.7651 22.805 15.641C22.5518 15.517 22.2765 15.4442 21.9951 15.4268C21.7136 15.4095 21.4315 15.448 21.165 15.54L19 16.215C19.0303 15.9349 19.0011 15.6515 18.9142 15.3835C18.8274 15.1154 18.6848 14.8688 18.496 14.6596C18.3072 14.4505 18.0763 14.2836 17.8185 14.17C17.5607 14.0563 17.2818 13.9984 17 14H11.65C9.75 12.73 8.15 13 5 13V12.5C5 12.3674 4.94732 12.2402 4.85355 12.1464C4.75979 12.0527 4.63261 12 4.5 12H0.5C0.367392 12 0.240215 12.0527 0.146447 12.1464C0.0526784 12.2402 0 12.3674 0 12.5L0 20.5C0 20.6326 0.0526784 20.7598 0.146447 20.8536C0.240215 20.9473 0.367392 21 0.5 21H4.5C4.63261 21 4.75979 20.9473 4.85355 20.8536C4.94732 20.7598 5 20.6326 5 20.5C5 20.325 4.955 20.335 5.145 20.445C7.11179 21.577 9.31103 22.2452 11.5751 22.3986C13.8393 22.5519 16.1085 22.1865 18.21 21.33L22.71 19.505C23.199 19.2924 23.591 18.9049 23.8092 18.4185C24.0275 17.932 24.0563 17.3816 23.89 16.875ZM4 20H1V13H4V20ZM22.335 18.58L17.835 20.4C15.8747 21.2008 13.7572 21.5428 11.6444 21.3998C9.53166 21.2568 7.47956 20.6326 5.645 19.575L5 19.21V14C8.295 14 9.525 13.785 11.095 14.83C11.445 15.065 11.23 15 17 15C17.1898 15.0006 17.3754 15.0553 17.5353 15.1575C17.6952 15.2597 17.8227 15.4053 17.9029 15.5773C17.9831 15.7492 18.0127 15.9405 17.9883 16.1287C17.9639 16.3168 17.8864 16.4942 17.765 16.64C17.205 17.14 17.69 17 11.5 17C11.3674 17 11.2402 17.0527 11.1464 17.1464C11.0527 17.2402 11 17.3674 11 17.5C11 17.6326 11.0527 17.7598 11.1464 17.8536C11.2402 17.9473 11.3674 18 11.5 18C17.135 18 17.6 18.185 18.375 17.45L21.5 16.5C21.773 16.4069 22.0712 16.4218 22.3336 16.5415C22.596 16.6612 22.8027 16.8767 22.9114 17.1439C23.02 17.411 23.0224 17.7096 22.918 17.9785C22.8137 18.2473 22.6104 18.4661 22.35 18.59L22.335 18.58Z" fill="#C14616"/>
<path d="M2.145 18.145C2.07548 18.2151 2.02827 18.3042 2.00931 18.401C1.99035 18.4979 2.00049 18.5982 2.03845 18.6894C2.07642 18.7805 2.14051 18.8583 2.22264 18.9131C2.30478 18.9678 2.40128 18.9971 2.5 18.9971C2.59872 18.9971 2.69522 18.9678 2.77736 18.9131C2.85949 18.8583 2.92358 18.7805 2.96155 18.6894C2.99951 18.5982 3.00965 18.4979 2.99069 18.401C2.97173 18.3042 2.92452 18.2151 2.855 18.145C2.80852 18.0981 2.75322 18.0609 2.69229 18.0355C2.63136 18.0101 2.56601 17.9971 2.5 17.9971C2.43399 17.9971 2.36864 18.0101 2.30771 18.0355C2.24678 18.0609 2.19148 18.0981 2.145 18.145Z" fill="#C14616"/>
<path d="M16 8.5H14C13.8674 8.5 13.7402 8.55268 13.6464 8.64645C13.5527 8.74021 13.5 8.86739 13.5 9C13.5 9.13261 13.5527 9.25979 13.6464 9.35355C13.7402 9.44732 13.8674 9.5 14 9.5H15V10C15 10.1326 15.0527 10.2598 15.1464 10.3536C15.2402 10.4473 15.3674 10.5 15.5 10.5C15.6326 10.5 15.7598 10.4473 15.8536 10.3536C15.9473 10.2598 16 10.1326 16 10V9.5C16.3978 9.5 16.7794 9.34197 17.0607 9.06066C17.342 8.77936 17.5 8.39783 17.5 8C17.5 7.60218 17.342 7.22064 17.0607 6.93934C16.7794 6.65804 16.3978 6.5 16 6.5H15C14.8674 6.5 14.7402 6.44732 14.6464 6.35355C14.5527 6.25979 14.5 6.13261 14.5 6C14.5 5.86739 14.5527 5.74022 14.6464 5.64645C14.7402 5.55268 14.8674 5.5 15 5.5H17C17.1326 5.5 17.2598 5.44732 17.3536 5.35355C17.4473 5.25979 17.5 5.13261 17.5 5C17.5 4.86739 17.4473 4.74022 17.3536 4.64645C17.2598 4.55268 17.1326 4.5 17 4.5H16V4C16 3.86739 15.9473 3.74021 15.8536 3.64645C15.7598 3.55268 15.6326 3.5 15.5 3.5C15.3674 3.5 15.2402 3.55268 15.1464 3.64645C15.0527 3.74021 15 3.86739 15 4V4.5C14.6022 4.5 14.2206 4.65804 13.9393 4.93934C13.658 5.22064 13.5 5.60218 13.5 6C13.5 6.39783 13.658 6.77936 13.9393 7.06066C14.2206 7.34197 14.6022 7.5 15 7.5H16C16.1326 7.5 16.2598 7.55268 16.3536 7.64645C16.4473 7.74022 16.5 7.86739 16.5 8C16.5 8.13261 16.4473 8.25979 16.3536 8.35355C16.2598 8.44732 16.1326 8.5 16 8.5Z" fill="#C14616"/>
<path d="M15.5 12.5C16.5878 12.5 17.6512 12.1774 18.5556 11.5731C19.4601 10.9687 20.1651 10.1098 20.5813 9.10476C20.9976 8.09977 21.1065 6.9939 20.8943 5.92701C20.6821 4.86011 20.1583 3.8801 19.3891 3.11092C18.6199 2.34173 17.6399 1.8179 16.573 1.60568C15.5061 1.39346 14.4002 1.50238 13.3952 1.91867C12.3902 2.33495 11.5313 3.0399 10.9269 3.94437C10.3226 4.84884 10 5.91221 10 7C10 8.45869 10.5795 9.85764 11.6109 10.8891C12.6424 11.9205 14.0413 12.5 15.5 12.5ZM15.5 2.5C16.39 2.5 17.26 2.76392 18.0001 3.25839C18.7401 3.75286 19.3169 4.45566 19.6575 5.27793C19.9981 6.10019 20.0872 7.00499 19.9135 7.87791C19.7399 8.75082 19.3113 9.55265 18.682 10.182C18.0526 10.8113 17.2508 11.2399 16.3779 11.4135C15.505 11.5872 14.6002 11.4981 13.7779 11.1575C12.9557 10.8169 12.2529 10.2401 11.7584 9.50007C11.2639 8.76005 11 7.89002 11 7C11 5.80653 11.4741 4.66194 12.318 3.81802C13.1619 2.97411 14.3065 2.5 15.5 2.5Z" fill="#C14616"/>
</g>
<defs>
<clipPath id="clip0_18_15">
<rect width="24" height="24" fill="white"/>
</clipPath>
</defs>
</svg>
