<svg width="24" height="17" viewBox="0 0 24 17" fill="none" xmlns="http://www.w3.org/2000/svg">
<path d="M18 5.17253H18.75C18.75 5.04275 18.671 4.91829 18.5303 4.82652C18.3897 4.73476 18.1989 4.6832 18 4.6832V5.17253ZM6 5.17253V4.6832C5.80109 4.6832 5.61032 4.73476 5.46967 4.82652C5.32902 4.91829 5.25 5.04275 5.25 5.17253H6ZM17.25 5.17253V7.78225H18.75V5.17253H17.25ZM17.25 7.78225V13.0017H18.75V7.78225H17.25ZM16 13.8172H8V14.7959H16V13.8172ZM6.75 13.0017V5.17253H5.25V13.0017H6.75ZM6 5.66185H18V4.6832H6V5.66185ZM6 3.05213H18V2.07349H6V3.05213ZM2.75 5.17253C2.75 4.00147 4.20507 3.05213 6 3.05213V2.07349C3.37665 2.07349 1.25 3.46098 1.25 5.17253H2.75ZM6 7.29292C4.20507 7.29292 2.75 6.34359 2.75 5.17253H1.25C1.25 6.88408 3.37665 8.27157 6 8.27157V7.29292ZM21.25 5.17253C21.25 6.34359 19.7949 7.29292 18 7.29292V8.27157C20.6234 8.27157 22.75 6.88408 22.75 5.17253H21.25ZM22.75 5.17253C22.75 3.46098 20.6234 2.07349 18 2.07349V3.05213C19.7949 3.05213 21.25 4.00147 21.25 5.17253H22.75ZM17.25 13.0017C17.25 13.4521 16.6904 13.8172 16 13.8172V14.7959C17.5188 14.7959 18.75 13.9926 18.75 13.0017H17.25ZM8 13.8172C7.30964 13.8172 6.75 13.4521 6.75 13.0017H5.25C5.25 13.9926 6.48122 14.7959 8 14.7959V13.8172Z" fill="#C14616"/>
<path d="M14.5303 10.7386C14.8232 10.5475 14.8232 10.2376 14.5303 10.0465C14.2374 9.85538 13.7626 9.85538 13.4697 10.0465L14.5303 10.7386ZM10.5303 10.0465C10.2374 9.85538 9.76256 9.85538 9.46967 10.0465C9.17678 10.2376 9.17678 10.5475 9.46967 10.7386L10.5303 10.0465ZM12.75 7.78238C12.75 7.51209 12.4142 7.29297 12 7.29297C11.5858 7.29297 11.25 7.51209 11.25 7.78238H12.75ZM11.25 11.0451C11.25 11.3154 11.5858 11.5345 12 11.5345C12.4142 11.5345 12.75 11.3154 12.75 11.0451H11.25ZM13.4697 10.0465L12.1768 10.8902L13.2374 11.5823L14.5303 10.7386L13.4697 10.0465ZM11.8232 10.8902L10.5303 10.0465L9.46967 10.7386L10.7626 11.5823L11.8232 10.8902ZM12.1768 10.8902C12.0791 10.9539 11.9209 10.9539 11.8232 10.8902L10.7626 11.5823C11.446 12.0282 12.554 12.0282 13.2374 11.5823L12.1768 10.8902ZM11.25 7.78238V11.0451H12.75V7.78238H11.25Z" fill="#C14616"/>
</svg>
