<?xml version="1.0" encoding="UTF-8"?>
<svg id="_x33_0" xmlns="http://www.w3.org/2000/svg" version="1.1" viewBox="0 0 512 512">
  <!-- Generator: Adobe Illustrator 29.3.1, SVG Export Plug-In . SVG Version: 2.1.0 Build 151)  -->
  <defs>
    <style>
      .st0 {
        fill: #c14400;
      }
    </style>
  </defs>
  <path class="st0" d="M355.3,232c5.2,0,10-2,13.7-5.7l26.3-26.3h84.7c13.2,0,24-10.8,24-24v-112c0-13.2-10.8-24-24-24h-168v-16c0-8.8-7.2-16-16-16H75.3c-4.3,0-8.3,1.7-11.3,4.7L12.7,64c-3,3-4.7,7-4.7,11.3v412.7c0,8.8,7.2,16,16,16h272c8.8,0,16-7.2,16-16v-64h76.7l26.3,26.3c3.6,3.6,8.5,5.7,13.7,5.7,10.6,0,19.3-8.7,19.3-19.3v-12.7h32c13.2,0,24-10.8,24-24v-112c0-13.2-10.8-24-24-24h-168v-64h24v12.7c0,10.6,8.7,19.3,19.3,19.3ZM64,35.3v28.7h-28.7l28.7-28.7ZM24,488V80h56V24h216v17.5c-9.3,3.3-16,12.1-16,22.5v112c0,10.4,6.7,19.2,16,22.5v67c-9.3,3.3-16,12.1-16,22.5v112c0,10.4,6.7,19.2,16,22.5v65.5H24ZM488,288v112c0,4.4-3.6,8-8,8h-48v28.7c0,2.7-3.8,4.2-5.7,2.3l-31-31h-91.3c-4.4,0-8-3.6-8-8v-112c0-4.4,3.6-8,8-8h176c4.4,0,8,3.6,8,8h0ZM304,184c-4.4,0-8-3.6-8-8v-112c0-4.4,3.6-8,8-8h176c4.4,0,8,3.6,8,8v112c0,4.4-3.6,8-8,8h-91.3l-31,31c-1.9,1.9-5.7.4-5.7-2.3v-28.7h-48Z"/>
  <path class="st0" d="M461.4,85.9l-10.8-11.8-82.4,74.9-18.6-18.6-11.3,11.3,29.4,29.4,93.6-85.1Z"/>
  <path class="st0" d="M216,280H40v64h176v-64ZM200,328H56v-32h144v32Z"/>
  <path class="st0" d="M40,360h176v16H40v-16Z"/>
  <path class="st0" d="M40,392h208v16H40v-16Z"/>
  <path class="st0" d="M40,424h208v16H40v-16Z"/>
  <path class="st0" d="M40,456h48v16h-48v-16Z"/>
  <path class="st0" d="M104,456h48v16h-48v-16Z"/>
  <path class="st0" d="M168,456h48v16h-48v-16Z"/>
  <path class="st0" d="M160,56c-57.3,0-104,46.7-104,104s46.7,104,104,104,104-46.7,104-104-46.7-104-104-104ZM160,248c-25,0-47.6-10.6-63.6-27.4,5.9-10.1,14.1-18.6,23.7-24.8l39.9,39.4,39.9-39.4c9.7,6.2,17.8,14.7,23.7,24.8-16,16.8-38.6,27.4-63.6,27.4h0ZM128,136c0-17.6,14.4-32,32-32s32,14.4,32,32-14.4,32-32,32-32-14.4-32-32ZM135.4,188.5c7.8-2.8,16.1-4.5,24.6-4.5s16.8,1.7,24.6,4.5l-24.6,24.3-24.6-24.3ZM234.2,207.1c-10.8-15.6-26.3-27.5-44-33.8,10.9-8.8,17.8-22.2,17.8-37.3,0-26.5-21.5-48-48-48s-48,21.5-48,48,7,28.5,17.8,37.3c-17.7,6.4-33.3,18.2-44,33.8-8.7-13.6-13.8-29.8-13.8-47.1,0-48.5,39.5-88,88-88s88,39.5,88,88-5.1,33.5-13.8,47.1h0Z"/>
  <path class="st0" d="M357.7,389.7l34.3-34.3,34.3,34.3,11.3-11.3-34.3-34.3,34.3-34.3-11.3-11.3-34.3,34.3-34.3-34.3-11.3,11.3,34.3,34.3-34.3,34.3,11.3,11.3Z"/>
</svg>