<svg width="24" height="24" viewBox="0 0 24 24" fill="none" xmlns="http://www.w3.org/2000/svg">
<path d="M20.6177 9.16132H6.57751C6.47805 9.16132 6.38267 9.20083 6.31234 9.27115C6.24202 9.34148 6.20251 9.43686 6.20251 9.53632C6.20251 9.63577 6.24202 9.73116 6.31234 9.80148C6.38267 9.87181 6.47805 9.91132 6.57751 9.91132H20.6177C20.6671 9.91079 20.7161 9.92014 20.7618 9.9388C20.8075 9.95746 20.8491 9.98506 20.884 10.02C20.9189 10.0549 20.9465 10.0965 20.9652 10.1422C20.9839 10.1879 20.9932 10.2369 20.9927 10.2863V12.2287H3.00751V10.2863C3.00699 10.2369 3.01633 10.1879 3.03499 10.1422C3.05365 10.0965 3.08125 10.0549 3.11618 10.02C3.15111 9.98506 3.19265 9.95746 3.23839 9.9388C3.28412 9.92014 3.33312 9.91079 3.38251 9.91132H5.07751C5.17609 9.91 5.27019 9.86991 5.33944 9.79973C5.40869 9.72955 5.44752 9.63492 5.44752 9.53633C5.44752 9.43773 5.4087 9.3431 5.33946 9.27292C5.27021 9.20274 5.17611 9.16264 5.07753 9.16132H3.38251C3.08424 9.16164 2.79828 9.28027 2.58737 9.49118C2.37646 9.70209 2.25783 9.98805 2.25751 10.2863C2.26677 11.3548 2.25751 21.375 2.25751 21.375C2.25783 21.6733 2.37646 21.9592 2.58737 22.1701C2.79828 22.381 3.08424 22.4997 3.38251 22.5H20.6177C20.916 22.4997 21.2019 22.381 21.4128 22.1701C21.6237 21.9592 21.7424 21.6733 21.7427 21.375C21.7454 19.8992 21.7427 10.2863 21.7427 10.2863C21.7424 9.98805 21.6237 9.70209 21.4128 9.49118C21.2019 9.28027 20.916 9.16164 20.6177 9.16132ZM20.6177 21.75H3.38251C3.28309 21.7499 3.18778 21.7103 3.11748 21.64C3.04719 21.5697 3.00764 21.4744 3.00751 21.375V14.9588H18.1124C18.2109 14.9573 18.3049 14.9172 18.374 14.847C18.4432 14.7769 18.4819 14.6823 18.4819 14.5838C18.4819 14.4853 18.4432 14.3907 18.374 14.3206C18.3049 14.2504 18.2109 14.2103 18.1124 14.2088H3.00751V12.9787H20.9927V14.2088H19.6124C19.513 14.2088 19.4176 14.2483 19.3473 14.3186C19.2769 14.389 19.2374 14.4843 19.2374 14.5838C19.2374 14.6833 19.2769 14.7786 19.3473 14.849C19.4176 14.9193 19.513 14.9588 19.6124 14.9588H20.9927V21.375C20.9926 21.4744 20.953 21.5697 20.8827 21.6401C20.8124 21.7104 20.7171 21.7499 20.6177 21.75Z" fill="#C14616"/>
<path d="M12 8.35122C12.9082 8.3507 13.7791 7.98993 14.4217 7.34808C15.0642 6.70622 15.4259 5.8357 15.4274 4.92749C15.3875 4.50081 15.4244 3.46562 14.7792 3.61574C14.7325 3.63146 14.6894 3.65622 14.6523 3.68861C14.6152 3.721 14.5849 3.76038 14.563 3.80451C14.5411 3.84863 14.5282 3.89663 14.5248 3.94577C14.5215 3.9949 14.5279 4.04421 14.5437 4.09087C14.7205 4.62841 14.7225 5.20815 14.5494 5.7469C14.3763 6.28564 14.0369 6.75568 13.58 7.08956C13.1231 7.42344 12.5722 7.60398 12.0063 7.60529C11.4404 7.60659 10.8887 7.42859 10.4303 7.09682C9.97184 6.76505 9.63031 6.29658 9.45469 5.75864C9.27907 5.2207 9.27839 4.64095 9.45275 4.1026C9.62711 3.56425 9.96753 3.09498 10.4252 2.76214C10.8828 2.4293 11.4341 2.25 12 2.24997C12.6826 2.24889 13.3395 2.51026 13.8347 2.97999C13.9074 3.04624 14.0031 3.08133 14.1013 3.07772C14.1996 3.07411 14.2925 3.03208 14.36 2.96069C14.4276 2.88929 14.4644 2.79422 14.4626 2.69593C14.4608 2.59764 14.4205 2.50399 14.3504 2.43512C12.2069 0.376142 8.55217 1.95424 8.57247 4.92751C8.574 5.83573 8.93573 6.70626 9.5783 7.34811C10.2209 7.98996 11.0918 8.35071 12 8.35122Z" fill="#C14616"/>
<path d="M12 3.86777C12.0842 3.86757 12.1655 3.89855 12.2283 3.95474C12.291 4.01093 12.3308 4.08835 12.3398 4.17209C12.3516 4.27004 12.4016 4.35939 12.4788 4.42078C12.556 4.48217 12.6543 4.51065 12.7524 4.50005C12.8505 4.48945 12.9405 4.44062 13.0028 4.36415C13.0651 4.28767 13.0948 4.18972 13.0854 4.09151C13.0636 3.88916 12.9855 3.69698 12.8599 3.53683C12.7343 3.37668 12.5663 3.25498 12.375 3.18555V3.09176C12.3736 3.03857 12.3611 2.98626 12.3382 2.93821C12.3154 2.89016 12.2827 2.84745 12.2423 2.81283C12.2019 2.77821 12.1547 2.75246 12.1037 2.73725C12.0527 2.72203 11.9991 2.71769 11.9463 2.7245C11.8936 2.73131 11.8428 2.74913 11.7974 2.77679C11.7519 2.80445 11.7128 2.84135 11.6825 2.88509C11.6522 2.92883 11.6314 2.97845 11.6215 3.03072C11.6116 3.083 11.6128 3.13677 11.625 3.18856C11.3874 3.27895 11.1887 3.44941 11.0633 3.67058C10.9379 3.89174 10.8936 4.14972 10.938 4.40005C10.9825 4.65038 11.1128 4.87736 11.3067 5.04185C11.5006 5.20634 11.7457 5.29803 12 5.30111C12.0665 5.30111 12.1315 5.32052 12.1871 5.35694C12.2428 5.39337 12.2866 5.44524 12.3131 5.50619C12.3397 5.56714 12.348 5.63452 12.3368 5.70008C12.3257 5.76563 12.2956 5.82651 12.2504 5.87525C12.2052 5.92398 12.1467 5.95846 12.0821 5.97445C12.0176 5.99045 11.9498 5.98726 11.887 5.96528C11.8243 5.94331 11.7693 5.9035 11.7288 5.85073C11.6884 5.79797 11.6642 5.73454 11.6592 5.66823C11.6515 5.56919 11.6051 5.47718 11.5299 5.41223C11.4547 5.34728 11.357 5.31465 11.2578 5.32143C10.4961 5.4874 11.1353 6.55115 11.625 6.66484V6.76027C11.6264 6.85877 11.6666 6.95273 11.7368 7.02186C11.8069 7.091 11.9015 7.12975 12 7.12975C12.0985 7.12975 12.193 7.091 12.2632 7.02186C12.3334 6.95273 12.3735 6.85877 12.375 6.76027V6.66373C12.6126 6.57335 12.8113 6.40288 12.9367 6.18171C13.0621 5.96054 13.1064 5.70254 13.062 5.4522C13.0176 5.20186 12.8872 4.97487 12.6933 4.81037C12.4994 4.64588 12.2542 4.55419 12 4.55112C11.9102 4.54983 11.8246 4.51326 11.7616 4.44933C11.6985 4.3854 11.6632 4.29923 11.6632 4.20946C11.6632 4.11968 11.6985 4.03352 11.7615 3.96958C11.8246 3.90564 11.9102 3.86907 12 3.86777Z" fill="#C14616"/>
<path d="M6.61102 17.827H4.71515C4.5163 17.8272 4.32565 17.9062 4.18504 18.0469C4.04443 18.1875 3.96535 18.3781 3.96515 18.577V19.9254C3.96535 20.1242 4.04443 20.3149 4.18504 20.4555C4.32565 20.5961 4.5163 20.6752 4.71515 20.6754H6.61102C6.80987 20.6752 7.00052 20.5961 7.14113 20.4555C7.28174 20.3149 7.36082 20.1242 7.36102 19.9254V18.577C7.36082 18.3781 7.28174 18.1875 7.14113 18.0469C7.00052 17.9062 6.80987 17.8272 6.61102 17.827ZM4.71515 19.9254V18.577H6.61102L6.61157 19.9254H4.71515Z" fill="#C14616"/>
</svg>
