<svg xmlns="http://www.w3.org/2000/svg" version="1.1" xmlns:xlink="http://www.w3.org/1999/xlink" width="512" height="512" x="0" y="0" viewBox="0 0 510 510" style="enable-background:new 0 0 512 512" xml:space="preserve" class=""><g><path d="m497.299 175.316-28.5 9.367C476.231 207.297 480 230.955 480 255c0 124.065-100.935 225-225 225-57.643 0-111.714-21.519-153.022-60H145v-30H50v90h30v-39.598c18.084 17.052 38.618 31.519 60.733 42.622C176.388 500.924 214.833 510 255 510c68.113 0 132.149-26.524 180.313-74.688S510 323.113 510 255c0-27.233-4.273-54.042-12.701-79.684zM255 30c57.27 0 111.585 21.577 152.967 60H365v30h95V30h-30v39.542C382.905 25.035 320.67 0 255 0 186.887 0 122.851 26.524 74.688 74.688S0 186.887 0 255c0 29.152 4.883 57.75 14.514 84.998l28.285-9.996C34.307 305.973 30 280.738 30 255 30 130.935 130.935 30 255 30z" fill="#c14400" opacity="1" data-original="#000000" class=""></path><path d="M300 205h30c0-35.202-26.124-64.406-60-69.274V105h-30v30.726c-33.876 4.869-60 34.073-60 69.274a59.738 59.738 0 0 0 45.316 58.04L240 266.711v77.023c-17.233-4.452-30-20.13-30-38.734h-30c0 35.202 26.124 64.406 60 69.274V405h30v-30.726c33.876-4.869 60-34.073 60-69.274a59.738 59.738 0 0 0-45.316-58.04L270 243.289v-77.023c17.233 4.452 30 20.13 30 38.734zm-22.593 71.064A29.782 29.782 0 0 1 300 305c0 18.604-12.767 34.282-30 38.734v-69.522zm-44.814-42.128A29.782 29.782 0 0 1 210 205c0-18.604 12.767-34.282 30-38.734v69.522z" fill="#c14400" opacity="1" data-original="#000000" class=""></path></g></svg>