<svg xmlns="http://www.w3.org/2000/svg" version="1.1" xmlns:xlink="http://www.w3.org/1999/xlink" width="512" height="512" x="0" y="0" viewBox="0 0 512 512" style="enable-background:new 0 0 512 512" xml:space="preserve" class=""><g><path fill-rule="evenodd" d="M87.292 266.538a127.771 127.771 0 0 0 16.872 6.818c7.833 2.6 4 14.628-3.962 12.007a139.1 139.1 0 0 1-18.567-7.529c-7.492-3.744-1.824-15.031 5.657-11.3zM81.642 356a138.516 138.516 0 0 0 18.564 7.517c7.781 2.651 11.941-9.36 3.961-11.994a126.584 126.584 0 0 1-16.867-6.816c-7.456-3.785-13.038 7.6-5.65 11.3zm22.521 73.677a126.532 126.532 0 0 1-16.878-6.821c-7.521-4.03-13.274 7.7-5.637 11.3a141.383 141.383 0 0 0 18.557 7.522c7.944 2.613 11.78-9.4 3.966-12h-.008zm352.619-71.49c4.551-17.983-6.926-37.248-24.981-41.751l-34.034-8.552 16.962-63.851a12.966 12.966 0 0 0-9.19-15.842l-16.112-4.284a12.975 12.975 0 0 0-15.842 9.19l-17.122 64.409-29.524-7.418v-84.094c-.08-15.222-15.127-28.967-42.4-38.716-25.3-9.046-58.728-14.028-94.117-14.028s-68.814 4.982-94.118 14.028c-16.12 5.763-42.4 18.369-42.4 38.783v237.4c0 17.063 29.285 31.278 42.33 35.941 25.256 9.029 58.708 14 94.191 14 33.194 0 64.823-4.4 89.451-12.4a122.014 122.014 0 0 0 168.452-92.712 6.281 6.281 0 0 0 1.608-2.863l6.846-27.239zm-28.063-29.5h.009a21.856 21.856 0 0 1 15.8 26.416l-5.305 21.111-152.785-38.39 5.306-21.112a21.847 21.847 0 0 1 26.414-15.806l110.557 27.777zm-59.993-28.1c1.493-5.616 16.834-64.472 17.4-64.472 1.269 0 16.481 4.26 16.4 4.674L385.508 304.8l-16.782-4.217zM66.552 206.058c.051-9.236 12.756-19.281 34.014-26.877 23.973-8.57 55.887-13.29 89.864-13.29s65.89 4.716 89.864 13.287c21.246 7.595 33.949 17.632 34.013 26.866-.046 9.27-12.725 19.326-33.941 26.911-23.926 8.553-55.867 13.264-89.937 13.264s-66.011-4.711-89.937-13.264c-21.2-7.58-33.88-17.63-33.94-26.9zm0 78.163c0 9.285 12.689 19.363 33.942 26.961 23.926 8.554 55.866 13.268 89.937 13.268 33.666 0 66.137-4.8 89.766-13.208a34.5 34.5 0 0 1 33.565-23.606 11.073 11.073 0 0 0 .547-3.412v-55.1c-7.1 5.979-17.084 11.349-29.689 15.856-29.064 10.39-63.408 14-94.189 14s-65.134-3.614-94.192-14c-12.6-4.507-22.587-9.877-29.688-15.856v55.1zm0 78.16v-55.155c7.1 5.981 17.084 11.353 29.69 15.86 25.256 9.03 58.707 14 94.191 14 31.932 0 61.948-3.976 86.009-11.3l-3.793 15.1a6.279 6.279 0 0 0 .378 4.137 108.528 108.528 0 0 1-55.235 56.534c-8.942.7-18.133 1.058-27.359 1.058-34.071 0-66.011-4.715-89.937-13.269-21.253-7.6-33.942-17.677-33.942-26.96zM263.56 472.544c-21.242 5.335-46.619 8.22-73.13 8.22-34.07 0-66.011-4.715-89.936-13.269-21.254-7.6-33.942-17.676-33.942-26.961v-55.153c7.1 5.98 17.083 11.35 29.687 15.856 25.257 9.028 58.708 14 94.191 14 8.109 0 16.192-.277 24.12-.8a121.367 121.367 0 0 0 38.271 50.663c2.277 2.255 7.9 5.7 10.739 7.447zm20.918-122.18L435.5 388.32a109.445 109.445 0 0 1-107.057 89.888 121.417 121.417 0 0 0 36.778-35.979c4.628-7.02-6.017-13.819-10.548-6.963a109.015 109.015 0 0 1-47.348 39.888c-6.638 2.942-31.256-9.67-37.656-13.66a120.871 120.871 0 0 0 32.254-25.714 6.317 6.317 0 1 0-9.44-8.4 108.33 108.33 0 0 1-34.324 25.82 108.947 108.947 0 0 1-31.277-41.986 121.046 121.046 0 0 0 57.6-60.854zm23.122 73.918a6.278 6.278 0 0 1-6.32-6.32 6.828 6.828 0 0 1 6.589-6.736 6.319 6.319 0 0 1 6.318 6.318 6.831 6.831 0 0 1-6.587 6.738zm28.171-309.753A51.775 51.775 0 0 0 387.5 62.805c0-8.315 12.637-8.313 12.637 0a51.779 51.779 0 0 0 51.724 51.723c8.308 0 8.309 12.637 0 12.637a51.79 51.79 0 0 0-51.722 51.724c0 8.307-12.637 8.309-12.637 0a51.779 51.779 0 0 0-51.724-51.721c-8.284 0-8.331-12.633 0-12.633zm27.8 6.318a64.741 64.741 0 0 1 30.242 30.241 64.743 64.743 0 0 1 30.24-30.242 64.735 64.735 0 0 1-30.24-30.238 64.75 64.75 0 0 1-30.239 30.238zM177.557 68.286a43.418 43.418 0 0 0 43.371-43.367 6.319 6.319 0 1 1 12.637 0 43.416 43.416 0 0 0 43.367 43.37c8.315 0 8.313 12.637 0 12.637a43.418 43.418 0 0 0-43.369 43.368c0 8.315-12.637 8.313-12.637 0a43.418 43.418 0 0 0-43.368-43.37c-9.517-1.36-7.273-12.638 0-12.638zm25.828 6.319a56.434 56.434 0 0 1 23.862 23.864 56.45 56.45 0 0 1 23.866-23.862 56.447 56.447 0 0 1-23.862-23.867 56.45 56.45 0 0 1-23.866 23.86z" fill="#ffffff" opacity="1" data-original="#000000"></path></g></svg>