<?xml version="1.0" encoding="UTF-8"?>
<svg xmlns="http://www.w3.org/2000/svg" version="1.1" viewBox="0 0 150 150">
  <defs>
    <style>
      .cls-1 {
        fill: #c14616;
      }
    </style>
  </defs>
  <!-- Generator: Adobe Illustrator 28.7.1, SVG Export Plug-In . SVG Version: 1.2.0 Build 142)  -->
  <g>
    <g id="Layer_1">
      <g>
        <path class="cls-1" d="M40.6,10c-9,.1-17.4,4.5-22.6,11.8-5.5,7.4-7,16.9-4.2,25.7.3,1,1.3,1.8,2.4,1.8.3,0,.5,0,.8-.1,1.3-.4,2.1-1.8,1.6-3.1,0,0,0,0,0,0-2.3-7.2-1-15.1,3.5-21.2,4.3-6,11.2-9.6,18.6-9.7,1.4,0,2.5-1.1,2.5-2.5s-1.1-2.5-2.5-2.5Z"/>
        <path class="cls-1" d="M137.2,29.5l-4.2-4.2c-1.7-1.7-4.3-1.9-6.3-.6l-3.9,2.6c-2.8-1.7-5.8-2.9-9-3.7l-.9-4.6c-.5-2.3-2.5-4-4.9-4h-3.7C94.8,2.1,78.2-3.1,63.1,1.9h-.1c-3.6,1.2-7.4,1.2-11,0h-.1s0,0,0,0C38.6-2.5,23.9,1,14.1,10.9,3.7,21.2-.1,36.5,4.3,50.4l1.3,4.1c2.3,7.9,5.6,15.4,9.7,22.5,1.6,2.4,2.5,5.1,2.7,7.9,0,.7.9,65,19.8,65s14.8-11.2,14.8-32.5v-12.5c0-.3.2-7.5,5-7.5s5,7.2,5,7.5v12.5c0,21.3,5.1,32.5,14.8,32.5,14.7,0,18.5-38,19.4-56.3l.4,2.2c.5,2.3,2.5,4,4.9,4h5.9c2.4,0,4.4-1.7,4.9-4l.9-4.6c3.2-.8,6.2-2.1,9-3.7l3.9,2.6c2,1.3,4.6,1.1,6.3-.6l4.2-4.2c1.7-1.7,1.9-4.3.6-6.3l-2.6-3.9c1.7-2.8,2.9-5.8,3.8-9l4.6-.9c2.3-.5,4-2.5,4-4.9v-5.9c0-2.4-1.7-4.4-4-4.9l-4.6-.9c-.8-3.2-2.1-6.2-3.8-9l2.6-3.9c1.3-2,1.1-4.6-.6-6.3h0ZM77.3,145c-6.1,0-9.8-10.3-9.8-27.5v-12.5c0-4.3-2.2-12.5-10-12.5s-10,8.2-10,12.5v12.5c0,17.2-3.7,27.5-9.8,27.5-10.4,0-14.8-42.9-14.8-60-.2-3.7-1.3-7.4-3.4-10.5-3.9-6.7-7-13.9-9.2-21.4l-1.3-4.1c-3.8-12.2-.5-25.5,8.6-34.5C26.1,5.9,38.8,2.8,50.3,6.6h.1s0,0,0,0c4.6,1.5,9.5,1.5,14.1,0h.2c12.2-4.1,25.7-.4,34.1,9.4-.9.7-1.5,1.7-1.7,2.8l-.9,4.6c-3.2.8-6.2,2.1-9,3.7l-3.9-2.6c-2-1.3-4.6-1.1-6.3.6l-4.2,4.2c-1.7,1.7-1.9,4.3-.6,6.3l2.6,3.9c-1.7,2.8-2.9,5.8-3.8,9l-4.6.9c-2.3.5-4,2.5-4,4.9v5.9c0,2.4,1.7,4.4,4,4.9l4.6.9c.8,3.2,2.1,6.2,3.8,9l-2.6,3.9c-1.3,2-1.1,4.6.6,6.3l4.2,4.2c1.7,1.7,4.3,1.9,6.3.6l3.9-2.6c1.5.9,3,1.6,4.6,2.3-1.1,27-6.5,55.1-14.6,55.1ZM136.4,53.3l6.2,1.2v5.9l-6.2,1.2c-1,.2-1.8,1-2,1.9-.8,3.7-2.2,7.2-4.3,10.3-.5.8-.5,1.9,0,2.8l3.5,5.3-4.2,4.2-5.3-3.5c-.8-.6-1.9-.6-2.8,0-3.1,2.1-6.6,3.5-10.3,4.3-1,.2-1.7,1-1.9,2l-1.2,6.2h-5.9l-1.2-6.2c-.2-1-1-1.8-1.9-2-3.7-.8-7.2-2.2-10.3-4.3-.8-.6-1.9-.5-2.8,0l-5.3,3.5-4.2-4.2,3.5-5.3c.6-.8.6-1.9,0-2.8-2.1-3.1-3.5-6.6-4.3-10.3-.2-1-1-1.7-2-1.9l-6.2-1.2v-5.9l6.2-1.2c1-.2,1.8-1,2-1.9.8-3.7,2.2-7.2,4.3-10.3.5-.8.5-1.9,0-2.8l-3.5-5.3,4.2-4.2,5.3,3.5c.8.6,1.9.6,2.8,0,3.1-2.1,6.6-3.5,10.3-4.3,1-.2,1.7-1,1.9-2l1.2-6.2h5.9l1.2,6.2c.2,1,1,1.8,1.9,2,3.7.8,7.2,2.2,10.3,4.3.8.6,1.9.6,2.8,0l5.3-3.5,4.2,4.2-3.5,5.3c-.6.8-.6,1.9,0,2.8,2.1,3.1,3.5,6.6,4.3,10.3.2,1,1,1.7,1.9,1.9h0Z"/>
        <path class="cls-1" d="M105,32.4c-13.8,0-25,11.2-25,25s11.2,25,25,25,25-11.2,25-25c0-13.8-11.2-25-25-25ZM105,77.5c-11.1,0-20-9-20-20s9-20,20-20,20,9,20,20c0,11-9,20-20,20Z"/>
      </g>
    </g>
  </g>
</svg>