<?xml version="1.0" encoding="UTF-8"?>
<svg id="Capa_1" xmlns="http://www.w3.org/2000/svg" version="1.1" viewBox="0 0 512 512">
  <!-- Generator: Adobe Illustrator 29.3.1, SVG Export Plug-In . SVG Version: 2.1.0 Build 151)  -->
  <defs>
    <style>
      .st0 {
        fill: #c14400;
      }
    </style>
  </defs>
  <path class="st0" d="M79,397.2l7.4,14.8c8-4,17.6-4,25.6,0l7.4-14.8c-12.6-6.3-27.8-6.3-40.4,0Z"/>
  <path class="st0" d="M145.1,397.2l7.4,14.8c8-4,17.6-4,25.6,0l7.4-14.8c-12.6-6.3-27.8-6.3-40.4,0Z"/>
  <path class="st0" d="M251.1,163.6c-2.8-2.1-4.1-6.1-3.5-10.6.2-1.4.3-2.8.3-4.3,0-15.4-10.5-28.3-24.8-32v-25.8C223.1,40.8,182.3,0,132.3,0S41.5,40.8,41.5,90.9v25.8c-14.3,3.6-24.9,16.6-24.9,32s0,2.9.3,4.2c.6,4.6-.7,8.6-3.5,10.7-10.2,7.6-15,20.1-12.7,32.6,2.1,11.5,10.4,20.9,21.3,24.8-3.3,7.9-5.1,16.4-5.1,25.4v47.5c-5.3,5.8-8.3,13.3-8.3,21.3,0,17.4,14.2,31.6,31.6,31.6h10c.2,3,.5,6,1,8.9l18.8,119.1c-7.3,7.5-11.9,17.6-11.9,28.9v8.3h148.6v-8.3c0-11.2-4.5-21.4-11.8-28.9l18.8-119.1c.5-2.9.8-5.9,1-8.9h10c17.4,0,31.6-14.2,31.6-31.6s-2.9-15.5-8.3-21.3v-47.5c0-9-1.9-17.6-5.2-25.5,10.8-3.9,19-13.3,21.1-24.8,2.3-12.6-2.6-25.1-12.7-32.6h0ZM24.9,315.2c0-4,1.6-7.9,4.4-10.7l3.8-3.8v-54.3c0-23.9,17.1-44.4,40.7-48.7l2.2-.4c-1.9,2.5-4,4.8-6.5,6.7-12.4,9.3-19.8,24.1-19.8,39.6v3.5c0,13.1,5.1,25.5,14.3,34.8-8.5,14.7-13.2,31.3-14,48.3h-10c-8.3,0-15.1-6.8-15.1-15.1ZM114.9,147.3l-5.7-2.8c-11.3-5.6-18.3-16.9-18.3-29.5v-24.9c9.7-2.5,17.7-9.7,21-19.6,1.4-4.2,7.3-5.5,10.4-2.5l9.8,9.8,9.8-9.8c3.1-3.1,9-1.7,10.4,2.5,3.3,9.8,11.3,17.1,21,19.5v24.9c0,12.6-7,23.9-18.2,29.5l-5.7,2.8c-5.6,2.8-9.1,8.5-9.1,14.8v26.5l22.8,4.1c-4.6,12.9-16.8,22-31,22s-26.5-9.1-31-22l22.8-4.1v-26.5c0-6.3-3.5-12-9.1-14.8h0ZM198.3,247.2c0,8.8-3.4,17.1-9.7,23.4l-9.2,9.2,3.8,5.6c6.8,10.2,11.3,21.5,13.5,33.3l-8.3,2.4c-20.8,6-40.1,16.6-56.2,31-16.1-14.4-35.4-25-56.2-31l-8.3-2.4c2.2-11.8,6.8-23.1,13.5-33.3l3.8-5.6-9.2-9.2c-6.2-6.2-9.7-14.5-9.7-23.4v-3.5c0-10.3,4.9-20.2,13.2-26.4,4-3,7.3-6.6,10.2-10.6,8.6,14.8,24.5,24.6,42.7,24.6s34-9.8,42.7-24.6c2.9,3.9,6.2,7.6,10.2,10.6,8.3,6.2,13.2,16.1,13.2,26.4v3.5h0ZM75.9,495.4c3.4-9.6,12.6-16.5,23.4-16.5s19.9,6.9,23.4,16.5h-46.7ZM99.2,462.4c-5,0-9.8,1-14.2,2.7l-17.7-111.9c-.7-4.6-1.1-9.4-1.1-14.1v-3.7l5.3,1.5c19.6,5.6,37.7,16,52.5,30v104c-6.9-5.2-15.4-8.5-24.8-8.5ZM141.9,495.4c3.4-9.6,12.6-16.5,23.4-16.5s19.9,6.9,23.4,16.5h-46.7ZM197.2,353.1l-17.7,111.9c-4.5-1.7-9.2-2.7-14.2-2.7-9.3,0-17.8,3.2-24.8,8.5v-104c14.8-14,32.8-24.4,52.5-30l5.3-1.5v3.7c0,4.7-.4,9.4-1.1,14.1h0ZM224.5,330.3h-10c-.8-17-5.4-33.6-14-48.3,9.2-9.3,14.3-21.7,14.3-34.8v-3.5c0-15.5-7.4-30.3-19.8-39.6-2.5-1.9-4.6-4.2-6.5-6.7l2.2.4c23.6,4.3,40.7,24.8,40.7,48.7v54.3l3.8,3.8c2.8,2.8,4.4,6.7,4.4,10.7,0,8.3-6.8,15.1-15.1,15.1ZM247.5,193.2c-1.2,6.5-6.6,11.8-13.1,13,0,0-.2,0-.3,0-9.7-12.6-23.9-21.7-40.5-24.7l-36.6-6.7v-12.8l5.7-2.8c16.9-8.4,27.4-25.4,27.4-44.3v-40.5h-9.1c-5.8,0-10.9-3.7-12.7-9.2-3.1-9.3-11.8-15.6-21.6-15.6s-10.2,1.8-14.3,5c-4-3.3-9-5-14.3-5-9.8,0-18.5,6.3-21.6,15.6-1.8,5.5-7,9.2-12.7,9.2h-9.1v40.5c0,18.9,10.5,35.9,27.4,44.3l5.7,2.8v12.8l-36.6,6.7c-16.6,3-30.8,12.1-40.5,24.8-.2,0-.3,0-.5,0-6.5-1.2-11.9-6.5-13.1-13-1.2-6.4,1.2-12.5,6.3-16.4,7.7-5.7,11.4-15.4,10-26.1,0-.7-.1-1.4-.1-2.1,0-9.1,7.4-16.5,16.2-16.5h0l8.8.5v-41.8c0-41,33.3-74.3,74.3-74.3s74.3,33.3,74.3,74.3v41.3h8.3c9.1,0,16.5,7.4,16.5,16.5s0,1.4-.1,2.1c-1.4,10.6,2.4,20.3,10,26,5.1,3.8,7.5,9.9,6.3,16.4h0Z"/>
  <path class="st0" d="M512,123.9C512,55.6,456.5,0,388.2,0s-123.8,55.6-123.8,123.8,38.5,104.7,90.8,119.2v219.2h-8.3c-13.7,0-24.8,11.1-24.8,24.8v24.8h132.1v-24.8c0-13.7-11.1-24.8-24.8-24.8h-8.3v-219.2c52.3-14.5,90.8-62.4,90.8-119.2h0ZM280.9,123.9c0-59.2,48.1-107.3,107.3-107.3s107.3,48.1,107.3,107.3-48.1,107.3-107.3,107.3-107.3-48.1-107.3-107.3h0ZM437.7,487.1v8.3h-99.1v-8.3c0-4.6,3.7-8.3,8.3-8.3h82.6c4.6,0,8.3,3.7,8.3,8.3h0ZM404.7,462.4h-33v-215.9c5.4.7,10.9,1.2,16.5,1.2s11.1-.5,16.5-1.2v215.9h0Z"/>
  <path class="st0" d="M479,123.9c0-50.1-40.7-90.8-90.8-90.8s-90.8,40.7-90.8,90.8,40.7,90.8,90.8,90.8,90.8-40.7,90.8-90.8ZM341.9,89.4c-5.7,7.6-9.6,16.5-11,26.3h-16.6c1.6-14.3,7.3-27.4,15.8-38.1l11.8,11.8ZM353.6,77.7l-11.8-11.7c10.7-8.6,23.8-14.2,38.1-15.8v16.7c-9.8,1.4-18.8,5.2-26.3,10.9h0ZM396.4,50.1c14.3,1.6,27.4,7.3,38.1,15.8l-11.7,11.7c-7.6-5.7-16.5-9.5-26.3-10.9v-16.7h0ZM446.2,77.6c8.6,10.7,14.2,23.8,15.8,38.1h-16.6c-1.4-9.8-5.3-18.7-11-26.3l11.8-11.8ZM314.4,132.2h32.5v-8.3c0-22.8,18.5-41.3,41.3-41.3s41.3,18.5,41.3,41.3v8.3h32.5c-4.1,37.1-35.6,66-73.8,66s-69.7-29-73.8-66Z"/>
  <path class="st0" d="M412.9,156.9c0-10.7-6.9-19.8-16.5-23.2v-34.5h-16.5v34.5c-9.6,3.4-16.5,12.5-16.5,23.2s11.1,24.8,24.8,24.8,24.8-11.1,24.8-24.8h0ZM379.9,156.9c0-4.5,3.7-8.3,8.3-8.3s8.3,3.7,8.3,8.3-3.7,8.3-8.3,8.3-8.3-3.7-8.3-8.3Z"/>
</svg>