<?xml version="1.0" encoding="UTF-8"?>
<svg id="Layer_1" data-name="Layer 1" xmlns="http://www.w3.org/2000/svg" viewBox="0 0 120 120">
  <defs>
    <style>
      .cls-1 {
        fill: #fff;
        fill-rule: evenodd;
      }
    </style>
  </defs>
  <path class="cls-1" d="M71.69,120h36.19v-3.97c0-1.53-1.57-2.79-3.49-2.79h-6.23v-6.51h14.17c2.25,0,4.1-1.84,4.1-4.1v-28.17c0-2.25-1.84-4.1-4.1-4.1h-45.08c-2.25,0-4.1,1.84-4.1,4.1v28.17c0,2.25,1.84,4.1,4.1,4.1h14.17v6.51h-6.23c-1.92,0-3.49,1.26-3.49,2.79v3.97h0ZM31.53,77.7c0-1.1.9-2,2-2s2,.9,2,2v31.23h9.47l-1.15-.9c-.87-.68-1.02-1.93-.34-2.8.68-.87,1.93-1.02,2.8-.34l5.69,4.44c1.04.78,1.07,2.35.03,3.16l-5.72,4.47c-.87.68-2.12.52-2.8-.34-.68-.87-.52-2.12.34-2.8l1.15-.9h-11.47c-1.1,0-2-.9-2-2v-33.23h0ZM101.79,60.37c0,1.1-.9,2-2,2s-2-.9-2-2v-30.23h-10.47l1.15.9c.87.68,1.02,1.93.34,2.8s-1.93,1.02-2.8.34l-5.69-4.44c-1.04-.78-1.07-2.35-.03-3.16l5.72-4.47c.87-.68,2.12-.52,2.8.34.68.87.52,2.12-.34,2.8l-1.15.9h12.47c1.1,0,2,.9,2,2v32.23ZM65.35,54.92l-15.21-8.79c-2.14-1.23-4.87-.5-6.11,1.64-.48.84-.67,1.77-.58,2.67v17.17c0,2.45,1.99,4.45,4.45,4.45s4.45-1.99,4.45-4.45v-9.87l8.52,4.92c2.14,1.24,4.88.5,6.11-1.64,1.24-2.14.51-4.87-1.64-6.1M27.52,36.09c.03-1.59-.81-3.06-2.18-3.86l-15.21-8.78c-.66-.38-1.42-.58-2.18-.58-1.56,0-3.01.84-3.79,2.18-1.2,2.08-.49,4.76,1.6,5.96l8.77,5.06-8.77,5.06c-1.01.58-1.74,1.52-2.03,2.65-.3,1.13-.15,2.31.43,3.32.78,1.35,2.23,2.18,3.78,2.18.76,0,1.52-.2,2.18-.58l15.21-8.78c1.36-.79,2.2-2.25,2.18-3.83M13.58,17.22l15.21,8.78c1.77,1.03,3.96.69,5.36-.67.89-.82,1.44-1.98,1.44-3.28V4.45c0-2.46-1.99-4.45-4.45-4.45s-4.45,1.99-4.45,4.45v10.02l-8.64-4.99c-2.14-1.24-4.87-.51-6.11,1.63-1.24,2.14-.5,4.87,1.64,6.11M47.78,36.8c0,.34-.19.8-.43,1.05l-6.03,6.03c-.24.24-.71.43-1.05.43h-1.53c-.34,0-.81-.19-1.05-.43l-6.03-6.03c-.24-.25-.43-.71-.43-1.05v-1.53c0-.34.19-.81.43-1.05l6.03-6.03c.24-.24.71-.43,1.05-.43h1.53c.34,0,.81.19,1.05.43l6.03,6.03c.24.24.43.71.43,1.05v1.53ZM42.4,36.06v-.06c0-.25-.14-.59-.32-.77l-1.78-1.77c-.17-.18-.52-.32-.77-.32h-.06c-.25,0-.59.14-.77.32l-1.77,1.77c-.17.17-.32.52-.32.77v.06c0,.25.14.6.32.77l1.77,1.78c.18.17.52.32.77.32h.06c.25,0,.6-.14.77-.32l1.78-1.78c.17-.17.32-.52.32-.77ZM50.14,26l15.21-8.78c2.14-1.23,2.87-3.97,1.64-6.11-1.24-2.14-3.97-2.87-6.11-1.63l-8.52,4.92V4.45c0-2.46-1.99-4.45-4.45-4.45s-4.45,1.99-4.45,4.45v17.25c-.08.89.09,1.83.58,2.67,1.24,2.14,3.97,2.87,6.11,1.63M31.84,45.61c-1.01-.19-2.09-.03-3.05.52l-15.21,8.79c-2.14,1.23-2.87,3.96-1.64,6.1,1.24,2.14,3.97,2.87,6.11,1.64l8.64-4.99v9.94c0,2.45,1.99,4.45,4.45,4.45s4.45-1.99,4.45-4.45v-17.6c0-2.22-1.63-4.06-3.75-4.4M74.85,24.99c-1.23-2.14-3.97-2.87-6.11-1.64l-15.21,8.78c-1.46.84-2.26,2.38-2.23,3.95-.01,1.56.79,3.08,2.23,3.91l15.21,8.79c2.14,1.23,4.87.5,6.11-1.64,1.24-2.14.5-4.87-1.64-6.11l-8.61-4.97,8.61-4.97c2.14-1.23,2.87-3.96,1.64-6.1M113.36,103.54h-47.01v-29c0-.62.5-1.12,1.12-1.12h44.77c.62,0,1.12.5,1.12,1.12v29ZM93.32,78.52c0,.17-.1.32-.24.45-.21.2-.53.37-.9.52-1.29.51-3.3.76-5.31.76-2.01,0-4.03-.25-5.31-.76-.38-.15-.69-.32-.91-.52-.14-.14-.24-.28-.24-.45,0-.13.09-.25.21-.37.2-.19.49-.36.85-.52,1.22-.54,3.18-.88,5.4-.88s4.18.34,5.4.88c.36.16.65.33.85.52.12.12.21.24.21.37h0ZM93.32,82.57c0,.17-.1.32-.24.45-.21.2-.53.37-.9.52-1.29.51-3.3.76-5.31.76-2.01,0-4.03-.25-5.31-.76-.38-.15-.69-.32-.91-.52-.14-.14-.24-.28-.24-.45v-2.61s.09.06.14.09c1.28.75,3.8,1.14,6.32,1.14,2.52,0,5.03-.39,6.32-1.14.05-.03.1-.06.14-.09v2.61ZM87.29,89.29c0,.14.02.28.08.41l.31.7c-.18.35-.33.71-.45,1.08l-.71.27c-.29.11-.5.36-.57.65-1.7-.06-3.31-.31-4.41-.74-.38-.15-.69-.32-.91-.52-.14-.14-.24-.28-.24-.45v-2.61s.09.06.14.09c1.28.75,3.8,1.14,6.32,1.14.14,0,.29,0,.43,0h0ZM93.32,85.69h-.47c-.39,0-.73.24-.87.6l-.27.71c-.37.12-.73.27-1.08.45l-.7-.31c-.35-.16-.77-.08-1.04.19l-1,1c-.34.01-.68.02-1.03.02-2.01,0-4.03-.25-5.31-.76-.38-.15-.69-.32-.91-.52-.14-.14-.24-.28-.24-.45v-2.61s.09.06.14.09c1.28.75,3.8,1.14,6.32,1.14,2.52,0,5.03-.39,6.32-1.14.05-.03.1-.06.14-.09v1.68ZM95.17,87.77c.61.15,1.19.39,1.73.72l1.12-.5,1.32,1.32-.5,1.12c.33.54.57,1.12.72,1.73l1.15.44v1.87l-1.15.44c-.15.61-.39,1.19-.72,1.73l.5,1.12-1.32,1.32-1.12-.5c-.53.33-1.12.57-1.73.72l-.44,1.15h-1.87l-.44-1.15c-.61-.15-1.2-.39-1.73-.72l-1.12.5-1.32-1.32.5-1.12c-.33-.53-.57-1.12-.72-1.73l-1.15-.44v-1.87l1.15-.44c.15-.61.39-1.2.72-1.73l-.5-1.12,1.32-1.32,1.12.5c.54-.33,1.12-.57,1.73-.72l.44-1.15h1.87l.44,1.15ZM93.79,90.28c-1.81,0-3.27,1.46-3.27,3.27s1.46,3.27,3.27,3.27,3.27-1.46,3.27-3.27-1.46-3.27-3.27-3.27Z"/>
</svg>