<svg width="24" height="24" viewBox="0 0 24 24" fill="none" xmlns="http://www.w3.org/2000/svg">
<path fill-rule="evenodd" clip-rule="evenodd" d="M9.51097 7.9767C9.43878 7.9767 9.36706 7.94904 9.31175 7.8942L7.81784 6.40029C7.76534 6.34732 7.73581 6.27607 7.73581 6.20154C7.73581 6.12701 7.76534 6.05529 7.81784 6.00279L9.31175 4.50889C9.4219 4.39873 9.59956 4.39873 9.70972 4.50889C9.8194 4.61857 9.8194 4.7967 9.70972 4.90639L8.41409 6.20154L9.70972 7.4967C9.8194 7.60639 9.8194 7.78451 9.70972 7.8942C9.6544 7.94904 9.58268 7.9767 9.51097 7.9767Z" fill="#C14616"/>
<path fill-rule="evenodd" clip-rule="evenodd" d="M14.4891 7.9767C14.4174 7.9767 14.3452 7.94904 14.2903 7.8942C14.1806 7.78451 14.1806 7.60639 14.2903 7.4967L15.5855 6.20154L14.2903 4.90639C14.1806 4.7967 14.1806 4.61857 14.2903 4.50889C14.4 4.39873 14.5781 4.39873 14.6878 4.50889L16.1817 6.00279C16.2347 6.05529 16.2642 6.12701 16.2642 6.20154C16.2642 6.27607 16.2347 6.34732 16.1817 6.40029L14.6878 7.8942C14.633 7.94904 14.5613 7.9767 14.4891 7.9767Z" fill="#C14616"/>
<path fill-rule="evenodd" clip-rule="evenodd" d="M11.1371 7.97675C11.0897 7.97675 11.041 7.96456 10.9969 7.93878C10.8624 7.86143 10.8164 7.6894 10.8938 7.55487L12.6192 4.56706C12.6966 4.43253 12.8686 4.38659 13.0031 4.46393C13.1377 4.54175 13.1836 4.71378 13.1058 4.84784L11.3808 7.83612C11.3288 7.92612 11.2346 7.97675 11.1371 7.97675Z" fill="#C14616"/>
<path fill-rule="evenodd" clip-rule="evenodd" d="M12.3206 19.5735H11.6794C11.4174 19.5735 11.2036 19.3692 11.1816 19.0978L11.1174 18.2943C10.7902 18.2109 10.4789 18.0815 10.1883 17.909L9.57424 18.4317C9.47721 18.5142 9.35581 18.5596 9.23206 18.5596C9.10127 18.5596 8.97799 18.509 8.88565 18.4167L8.43237 17.9629C8.24674 17.7778 8.24065 17.4815 8.4169 17.2743L8.94002 16.6603C8.76706 16.3692 8.63815 16.0584 8.55471 15.7312L7.75081 15.667C7.47987 15.6449 7.27502 15.4312 7.27502 15.1692V14.5279C7.27502 14.2659 7.4794 14.0521 7.75081 14.0301L8.55471 13.9659C8.63768 13.6387 8.76706 13.3274 8.93956 13.0368L8.4169 12.4228C8.24065 12.2151 8.24721 11.9193 8.43237 11.7342L8.88565 11.2809C8.97799 11.1885 9.10127 11.1374 9.23206 11.1374C9.35581 11.1374 9.47721 11.1829 9.57424 11.2654L10.1883 11.7881C10.4789 11.6156 10.7902 11.4867 11.1174 11.4032L11.1821 10.5993C11.2036 10.3279 11.4174 10.1235 11.6794 10.1235H12.3206C12.5827 10.1235 12.7964 10.3279 12.8185 10.5993L12.8831 11.4032C13.2099 11.4867 13.5211 11.6156 13.8117 11.7881L14.4258 11.2654C14.5228 11.1829 14.6442 11.1374 14.768 11.1374C14.8992 11.1374 15.0221 11.1885 15.1144 11.2809L15.5681 11.7342C15.7533 11.9193 15.7599 12.2151 15.5831 12.4228L15.0605 13.0368C15.233 13.3279 15.3619 13.6387 15.4453 13.9659L16.2492 14.0306C16.5206 14.0521 16.725 14.2659 16.725 14.5279V15.1692C16.7255 15.4312 16.5206 15.6449 16.2492 15.667L15.4458 15.7317C15.3624 16.0584 15.2335 16.3696 15.0605 16.6603L15.5831 17.2748C15.7599 17.482 15.7533 17.7778 15.5681 17.9629L15.1144 18.4167C15.0221 18.509 14.8992 18.5596 14.768 18.5596C14.6442 18.5596 14.5228 18.5142 14.4263 18.4317L13.8117 17.909C13.5211 18.0815 13.2099 18.2104 12.8831 18.2938L12.8185 19.0978C12.7964 19.3692 12.5827 19.5735 12.3206 19.5735ZM11.7389 19.0115H12.2611L12.3389 18.0421C12.3492 17.916 12.4421 17.8124 12.5663 17.7885C12.9661 17.7121 13.3402 17.557 13.6781 17.3278C13.7831 17.2565 13.9219 17.2645 14.0185 17.3465L14.7591 17.977L15.128 17.6076L14.498 16.867C14.416 16.7704 14.408 16.6312 14.4792 16.5267C14.7085 16.1887 14.8636 15.8146 14.9405 15.4148C14.9639 15.2906 15.068 15.1978 15.1941 15.1874L16.163 15.1096V14.5874L15.1936 14.5096C15.0675 14.4993 14.9639 14.4065 14.94 14.2823C14.8636 13.8824 14.7085 13.5084 14.4792 13.1704C14.408 13.0659 14.416 12.9267 14.4975 12.8301L15.128 12.0895L14.7586 11.7201L14.0185 12.3506C13.9219 12.4326 13.7827 12.4401 13.6781 12.3693C13.3402 12.1396 12.9661 11.9849 12.5663 11.9081C12.4421 11.8846 12.3492 11.7806 12.3389 11.6545L12.2611 10.6856H11.7389L11.6611 11.6545C11.6508 11.7806 11.558 11.8842 11.4338 11.9081C11.0339 11.9849 10.6594 12.1396 10.3214 12.3688C10.2169 12.4401 10.0777 12.4326 9.98159 12.3506L9.24096 11.7201L8.87206 12.0895L9.50206 12.8301C9.58409 12.9262 9.59159 13.0654 9.52081 13.1699C9.29112 13.5079 9.13596 13.882 9.05956 14.2818C9.03612 14.406 8.93206 14.4993 8.80596 14.5092L7.83706 14.5874V15.1096L8.80643 15.1874C8.93252 15.1978 9.03612 15.2906 9.06002 15.4148C9.13643 15.8142 9.29159 16.1887 9.52081 16.5267C9.59206 16.6312 9.58409 16.7704 9.50252 16.8665L8.87159 17.6071L9.24096 17.9765L9.98159 17.346C10.0781 17.264 10.2174 17.2565 10.3219 17.3278C10.6594 17.557 11.0335 17.7121 11.4338 17.7885C11.558 17.8124 11.6508 17.9165 11.6611 18.0421L11.7389 19.0115Z" fill="#C14616"/>
<path fill-rule="evenodd" clip-rule="evenodd" d="M12 17.2654C10.6674 17.2654 9.58316 16.1812 9.58316 14.8485C9.58316 13.5158 10.6674 12.4312 12 12.4312C13.3327 12.4312 14.4169 13.5158 14.4169 14.8485C14.4169 16.1812 13.3327 17.2654 12 17.2654ZM12 12.9937C10.9772 12.9937 10.1452 13.8257 10.1452 14.8485C10.1452 15.8713 10.9772 16.7033 12 16.7033C13.0228 16.7033 13.8549 15.8713 13.8549 14.8485C13.8549 13.8257 13.0228 12.9937 12 12.9937Z" fill="#C14616"/>
<path fill-rule="evenodd" clip-rule="evenodd" d="M17.5622 23.9944H6.43783C5.61001 23.9944 4.93689 23.3212 4.93689 22.4934V1.50655C4.93689 0.67874 5.61001 0.00561523 6.43783 0.00561523H17.5622C18.39 0.00561523 19.0631 0.67874 19.0631 1.50655V22.4934C19.0631 23.3212 18.39 23.9944 17.5622 23.9944ZM6.43783 0.567647C5.91986 0.567647 5.49892 0.989053 5.49892 1.50655V22.4934C5.49892 23.0114 5.91986 23.4323 6.43783 23.4323H17.5622C18.0797 23.4323 18.5011 23.0114 18.5011 22.4934V1.50655C18.5011 0.989053 18.0797 0.567647 17.5622 0.567647H6.43783Z" fill="#C14616"/>
<path fill-rule="evenodd" clip-rule="evenodd" d="M18.7824 3.4125H5.21814C5.06251 3.4125 4.93689 3.28687 4.93689 3.13171C4.93689 2.97656 5.06251 2.85046 5.21814 2.85046H18.7824C18.9375 2.85046 19.0631 2.97656 19.0631 3.13171C19.0631 3.28687 18.9375 3.4125 18.7824 3.4125Z" fill="#C14616"/>
<path fill-rule="evenodd" clip-rule="evenodd" d="M18.7824 21.1496H5.21814C5.06251 21.1496 4.93689 21.0239 4.93689 20.8683C4.93689 20.7131 5.06251 20.5875 5.21814 20.5875H18.7824C18.9375 20.5875 19.0631 20.7131 19.0631 20.8683C19.0631 21.0239 18.9375 21.1496 18.7824 21.1496Z" fill="#C14616"/>
<path fill-rule="evenodd" clip-rule="evenodd" d="M12.7842 22.5721H11.2158C11.0607 22.5721 10.935 22.446 10.935 22.2909C10.935 22.1357 11.0607 22.0096 11.2158 22.0096H12.7842C12.9394 22.0096 13.065 22.1357 13.065 22.2909C13.065 22.446 12.9394 22.5721 12.7842 22.5721Z" fill="#C14616"/>
<path fill-rule="evenodd" clip-rule="evenodd" d="M12.7842 1.99036H11.2158C11.0607 1.99036 10.935 1.86426 10.935 1.70911C10.935 1.55395 11.0607 1.42786 11.2158 1.42786H12.7842C12.9394 1.42786 13.065 1.55395 13.065 1.70911C13.065 1.86426 12.9394 1.99036 12.7842 1.99036Z" fill="#C14616"/>
</svg>
