<svg width="24" height="24" viewBox="0 0 24 24" fill="none" xmlns="http://www.w3.org/2000/svg">
<path d="M21.3768 0H2.62313C2.21551 0.00047143 1.82471 0.162609 1.53648 0.450844C1.24824 0.739079 1.0861 1.12987 1.08563 1.5375V17.4427C1.08609 17.8503 1.24822 18.2411 1.53646 18.5293C1.8247 18.8176 2.2155 18.9797 2.62313 18.9802H7.98094C8.24401 19.4126 8.52001 19.9024 8.7676 20.3411C9.21929 21.1421 9.60938 21.8339 9.88524 22.1584C10.5432 22.9382 11.4153 23.5081 12.3938 23.7975C12.8461 23.9312 13.3152 23.9994 13.7868 24C14.3258 24.0001 14.8609 23.9091 15.3696 23.731C17.2198 23.0838 18.5433 21.4089 19.1939 18.9802H21.3768C21.7845 18.9797 22.1753 18.8176 22.4635 18.5293C22.7517 18.2411 22.9139 17.8503 22.9143 17.4427V1.5375C22.9139 1.12987 22.7517 0.739079 22.4635 0.450844C22.1753 0.162609 21.7845 0.00047143 21.3768 0ZM15.1039 22.9714C13.5031 23.5314 11.6523 22.9952 10.4984 21.6372C10.2724 21.3714 9.86377 20.6467 9.46857 19.9458C9.15727 19.3938 8.84044 18.8321 8.54213 18.3563C8.54129 18.355 8.54054 18.3536 8.53965 18.3523C8.26477 17.9143 8.00555 17.5493 7.78079 17.3326C7.60632 17.1642 7.54074 16.9893 7.58583 16.8128C7.64082 16.5975 7.85429 16.4046 8.11698 16.3327C8.19207 16.3122 8.26957 16.3018 8.34741 16.3018C8.54799 16.3018 8.81035 16.3706 9.07566 16.6363L10.6823 18.2415C10.7385 18.2977 10.8102 18.336 10.8883 18.3515C10.9663 18.367 11.0472 18.359 11.1207 18.3285C11.1942 18.298 11.257 18.2465 11.3012 18.1803C11.3454 18.1141 11.369 18.0364 11.369 17.9568V9.26433C11.369 9.09679 11.4356 8.93612 11.554 8.81766C11.6725 8.69919 11.8332 8.63264 12.0007 8.63264C12.1682 8.63264 12.3289 8.69919 12.4474 8.81766C12.5658 8.93612 12.6324 9.09679 12.6324 9.26433V16.319C12.6318 16.3722 12.6418 16.425 12.6618 16.4743C12.6817 16.5236 12.7113 16.5685 12.7487 16.6063C12.7861 16.6442 12.8307 16.6742 12.8798 16.6947C12.9289 16.7152 12.9815 16.7257 13.0347 16.7257C13.088 16.7257 13.1406 16.7152 13.1897 16.6947C13.2388 16.6742 13.2834 16.6442 13.3208 16.6063C13.3582 16.5685 13.3878 16.5236 13.4077 16.4743C13.4277 16.425 13.4377 16.3722 13.4371 16.319V13.7509C13.4371 13.5833 13.5037 13.4227 13.6221 13.3042C13.7406 13.1857 13.9013 13.1192 14.0688 13.1192C14.2363 13.1192 14.397 13.1857 14.5155 13.3042C14.6339 13.4227 14.7005 13.5833 14.7005 13.7509V16.2605C14.7016 16.3664 14.7445 16.4677 14.8198 16.5422C14.8952 16.6167 14.9969 16.6585 15.1028 16.6585C15.2088 16.6585 15.3105 16.6167 15.3858 16.5422C15.4611 16.4677 15.504 16.3664 15.5052 16.2605V14.6724C15.5052 14.5049 15.5717 14.3442 15.6902 14.2257C15.8087 14.1073 15.9693 14.0407 16.1369 14.0407C16.3044 14.0407 16.4651 14.1073 16.5835 14.2257C16.702 14.3442 16.7686 14.5049 16.7686 14.6724V16.3219C16.768 16.3751 16.778 16.4279 16.7979 16.4772C16.8179 16.5265 16.8474 16.5714 16.8849 16.6092C16.9223 16.647 16.9668 16.6771 17.0159 16.6975C17.065 16.718 17.1177 16.7286 17.1709 16.7286C17.2241 16.7286 17.2768 16.718 17.3259 16.6975C17.375 16.6771 17.4195 16.647 17.457 16.6092C17.4944 16.5714 17.5239 16.5265 17.5439 16.4772C17.5638 16.4279 17.5738 16.3751 17.5733 16.3219V15.7406C17.5734 15.5731 17.6401 15.4126 17.7585 15.2942C17.8769 15.1757 18.0375 15.1091 18.2049 15.1089C18.2913 15.1093 18.3768 15.1269 18.4563 15.1607C18.5358 15.1945 18.6077 15.2438 18.6679 15.3058C18.723 15.3611 18.7664 15.427 18.7954 15.4995C18.8244 15.572 18.8384 15.6496 18.8367 15.7277C18.7172 19.5434 17.3565 22.1835 15.1039 22.9714ZM22.1096 17.4427C22.1094 17.6369 22.0321 17.8232 21.8948 17.9606C21.7574 18.098 21.5711 18.1752 21.3768 18.1755H19.3792C19.5314 17.3762 19.619 16.5661 19.6411 15.7528C19.6466 15.5669 19.6143 15.3818 19.5463 15.2087C19.4783 15.0356 19.376 14.8781 19.2455 14.7456C19.1101 14.6065 18.9484 14.4958 18.7697 14.42C18.591 14.3442 18.399 14.3048 18.2049 14.3042C17.9798 14.3039 17.758 14.3568 17.5573 14.4586C17.5231 14.2314 17.435 14.0157 17.3003 13.8297C17.1656 13.6436 16.9882 13.4926 16.783 13.3892C16.5778 13.2859 16.3508 13.2333 16.1211 13.2359C15.8914 13.2384 15.6656 13.2961 15.4628 13.4039C15.4111 13.196 15.3135 13.0023 15.1772 12.837C15.0409 12.6716 14.8694 12.5389 14.6752 12.4485C14.4809 12.358 14.2689 12.3122 14.0547 12.3143C13.8405 12.3165 13.6294 12.3665 13.437 12.4607V9.26433C13.437 8.88337 13.2857 8.51802 13.0163 8.24865C12.7469 7.97927 12.3816 7.82794 12.0006 7.82794C11.6197 7.82794 11.2543 7.97927 10.9849 8.24865C10.7156 8.51802 10.5642 8.88337 10.5642 9.26433V16.986L9.64468 16.0673C9.15249 15.5746 8.51818 15.3885 7.90435 15.5564C7.36337 15.7046 6.9323 16.1195 6.80602 16.6135C6.68926 17.0707 6.8408 17.5438 7.22204 17.9117C7.30386 17.9939 7.37946 18.082 7.44821 18.1754H2.62313C2.42888 18.1751 2.24264 18.0979 2.10528 17.9605C1.96791 17.8231 1.89063 17.6369 1.89038 17.4427V4.72725H22.1096V17.4427ZM22.1096 3.9225H1.89038V1.5375C1.89061 1.34323 1.96788 1.15697 2.10524 1.0196C2.24261 0.882221 2.42886 0.804939 2.62313 0.804703H21.3768C21.5711 0.804939 21.7574 0.88222 21.8947 1.01959C22.0321 1.15697 22.1094 1.34322 22.1096 1.5375V3.9225ZM3.89574 2.36363C3.89575 2.41646 3.88535 2.46879 3.86513 2.5176C3.84491 2.56642 3.81528 2.61078 3.77792 2.64814C3.74056 2.68551 3.6962 2.71515 3.64739 2.73537C3.59857 2.75559 3.54625 2.766 3.49341 2.766H3.46918C3.36246 2.766 3.26012 2.72361 3.18466 2.64815C3.1092 2.57269 3.0668 2.47034 3.0668 2.36363C3.0668 2.25691 3.1092 2.15456 3.18466 2.0791C3.26012 2.00364 3.36246 1.96125 3.46918 1.96125H3.49341C3.54625 1.96125 3.59857 1.97166 3.64739 1.99188C3.6962 2.0121 3.74056 2.04174 3.77792 2.07911C3.81528 2.11647 3.84491 2.16083 3.86513 2.20965C3.88535 2.25846 3.89575 2.31079 3.89574 2.36363ZM5.4938 2.36363C5.49381 2.41646 5.48341 2.46879 5.46319 2.5176C5.44298 2.56642 5.41334 2.61078 5.37598 2.64814C5.33862 2.68551 5.29427 2.71515 5.24545 2.73537C5.19664 2.75559 5.14431 2.766 5.09148 2.766H5.06719C4.96048 2.766 4.85813 2.72361 4.78267 2.64815C4.70721 2.57269 4.66482 2.47034 4.66482 2.36363C4.66482 2.25691 4.70721 2.15456 4.78267 2.0791C4.85813 2.00364 4.96048 1.96125 5.06719 1.96125H5.09143C5.14427 1.96125 5.19659 1.97166 5.2454 1.99188C5.29422 2.0121 5.33857 2.04174 5.37594 2.07911C5.4133 2.11647 5.44293 2.16083 5.46315 2.20965C5.48336 2.25846 5.49376 2.31079 5.49376 2.36363H5.4938ZM7.09046 2.36363C7.09046 2.47034 7.04807 2.57269 6.97261 2.64815C6.89715 2.72361 6.7948 2.766 6.68809 2.766H6.6639C6.55718 2.766 6.45484 2.72361 6.37938 2.64815C6.30392 2.57269 6.26152 2.47034 6.26152 2.36363C6.26152 2.25691 6.30392 2.15456 6.37938 2.0791C6.45484 2.00364 6.55718 1.96125 6.6639 1.96125H6.68809C6.7948 1.96125 6.89715 2.00364 6.97261 2.0791C7.04807 2.15456 7.09046 2.25691 7.09046 2.36363ZM20.9332 2.36363C20.9332 2.47034 20.8908 2.57269 20.8154 2.64815C20.7399 2.72361 20.6376 2.766 20.5308 2.766H16.2309C16.1241 2.766 16.0218 2.72361 15.9463 2.64815C15.8709 2.57269 15.8285 2.47034 15.8285 2.36363C15.8285 2.25691 15.8709 2.15456 15.9463 2.0791C16.0218 2.00364 16.1241 1.96125 16.2309 1.96125H20.5308C20.6376 1.96125 20.7399 2.00364 20.8154 2.0791C20.8908 2.15456 20.9332 2.25691 20.9332 2.36363ZM9.61726 10.9718C9.30339 10.5338 9.11637 10.0176 9.07677 9.48014C9.03716 8.94268 9.1465 8.4047 9.39276 7.92533C9.63902 7.44596 10.0127 7.04376 10.4726 6.76294C10.9326 6.48211 11.4611 6.33354 12 6.33354C12.539 6.33354 13.0674 6.48211 13.5274 6.76294C13.9874 7.04376 14.361 7.44596 14.6073 7.92533C14.8536 8.4047 14.9629 8.94268 14.9233 9.48014C14.8837 10.0176 14.6967 10.5338 14.3828 10.9718C14.3206 11.0585 14.2264 11.1169 14.1211 11.1342C14.0158 11.1515 13.9079 11.1262 13.8213 11.064C13.7346 11.0017 13.6762 10.9076 13.6589 10.8023C13.6416 10.697 13.6669 10.5891 13.7291 10.5024C13.9567 10.1846 14.0922 9.81016 14.1208 9.42031C14.1494 9.03047 14.07 8.64028 13.8913 8.29262C13.7126 7.94495 13.4415 7.65327 13.1079 7.44962C12.7742 7.24597 12.3909 7.13822 12 7.13822C11.6091 7.13822 11.2258 7.24597 10.8921 7.44962C10.5584 7.65327 10.2874 7.94495 10.1087 8.29262C9.93 8.64028 9.8506 9.03047 9.8792 9.42031C9.9078 9.81016 10.0433 10.1846 10.2708 10.5024C10.3021 10.5453 10.3245 10.594 10.3369 10.6456C10.3493 10.6972 10.3513 10.7507 10.3429 10.8031C10.3345 10.8555 10.3158 10.9057 10.2879 10.9509C10.26 10.996 10.2234 11.0352 10.1803 11.0661C10.1372 11.0971 10.0885 11.1192 10.0368 11.1312C9.98509 11.1433 9.93154 11.1449 9.8792 11.1362C9.82687 11.1274 9.77678 11.1084 9.73182 11.0802C9.68687 11.052 9.64793 11.0152 9.61726 10.9719V10.9718Z" fill="#C14616"/>
</svg>
