<svg width="24" height="24" viewBox="0 0 24 24" fill="none" xmlns="http://www.w3.org/2000/svg">
<path d="M19.1666 5.56179C19.0706 5.39115 18.9117 5.26484 18.7238 5.20986C18.5359 5.15488 18.3339 5.17558 18.161 5.26755L16.361 6.21555C16.2721 6.26293 16.1935 6.3276 16.1299 6.40576C16.0663 6.48393 16.019 6.57402 15.9907 6.67074C15.9624 6.76745 15.9537 6.86885 15.9651 6.96898C15.9765 7.0691 16.0078 7.16593 16.0572 7.25379L16.2852 7.65483C16.1054 7.91187 15.6281 8.40219 14.669 8.23515C13.8247 8.01915 12.9482 7.12995 11.9513 7.58067C11.5886 7.74459 11.0573 8.02203 10.5612 8.28915C9.91129 8.15019 8.53489 7.77603 7.92505 7.28307C7.97953 7.19493 8.01536 7.09656 8.03034 6.99404C8.04531 6.89151 8.03912 6.787 8.01213 6.68697C7.98514 6.58693 7.93793 6.49348 7.87342 6.4124C7.80891 6.33132 7.72846 6.26432 7.63705 6.21555L5.83705 5.26755C5.66419 5.17564 5.46224 5.15497 5.27435 5.20995C5.08645 5.26493 4.9275 5.3912 4.83145 5.56179L1.29841 11.7852C1.24853 11.8729 1.2168 11.9698 1.20509 12.07C1.19339 12.1703 1.20195 12.2718 1.23027 12.3687C1.25859 12.4655 1.3061 12.5557 1.36996 12.6338C1.43381 12.7119 1.51273 12.7764 1.60201 12.8235L3.40201 13.7715C3.50335 13.8219 3.61436 13.8499 3.7275 13.8536C3.84064 13.8573 3.95324 13.8366 4.05765 13.7929C4.16207 13.7492 4.25584 13.6835 4.33258 13.6002C4.40933 13.517 4.46725 13.4183 4.50241 13.3107C4.79493 13.7029 5.12611 14.0647 5.49097 14.3907C5.4458 14.5515 5.43879 14.7206 5.47048 14.8846C5.50218 15.0486 5.57171 15.203 5.67355 15.3354C5.77538 15.4678 5.90671 15.5746 6.05709 15.6474C6.20747 15.7201 6.37274 15.7567 6.53977 15.7543C6.58005 16.0092 6.71121 16.241 6.90902 16.4067C7.10682 16.5724 7.35791 16.661 7.61593 16.656C7.65614 16.9114 7.78732 17.1435 7.98528 17.3097C8.18323 17.4759 8.43461 17.5649 8.69305 17.5603C8.72562 17.7603 8.81452 17.9468 8.94932 18.098C9.08413 18.2492 9.25924 18.3588 9.45414 18.4141C9.64904 18.4693 9.85565 18.4678 10.0497 18.4098C10.2438 18.3517 10.4173 18.2396 10.5499 18.0864L10.9606 17.5961L12.2455 18.576C12.3951 18.6927 12.5714 18.7702 12.7585 18.8017C12.9456 18.8331 13.1376 18.8175 13.3171 18.7562C13.4966 18.6949 13.658 18.5898 13.7868 18.4505C13.9156 18.3112 14.0076 18.142 14.0546 17.9583C14.2071 18.0249 14.3723 18.0574 14.5387 18.0534C14.7051 18.0494 14.8685 18.009 15.0176 17.9351C15.1667 17.8612 15.2978 17.7555 15.4017 17.6255C15.5056 17.4955 15.5798 17.3443 15.619 17.1826C15.7897 17.2466 15.9733 17.2691 16.1544 17.248C16.3356 17.227 16.5091 17.1631 16.6606 17.0616C16.8121 16.9601 16.9373 16.8239 17.0257 16.6644C17.1141 16.5049 17.1632 16.3266 17.1689 16.1443C17.3932 16.1367 17.6102 16.0632 17.793 15.9331C17.9758 15.8029 18.1163 15.6218 18.1968 15.4123C18.2773 15.2029 18.2944 14.9743 18.246 14.7552C18.1975 14.5361 18.0856 14.3361 17.9242 14.1802C18.513 13.9887 19.0242 13.6122 19.3817 13.1067L19.5929 13.4782C19.6889 13.6488 19.8478 13.7751 20.0356 13.8301C20.2235 13.8851 20.4254 13.8644 20.5982 13.7724L22.3982 12.8244C22.4872 12.777 22.5657 12.7123 22.6293 12.6342C22.6929 12.556 22.7402 12.4659 22.7685 12.3692C22.7968 12.2725 22.8054 12.1711 22.794 12.071C22.7826 11.9708 22.7512 11.874 22.7018 11.7862L19.1666 5.56179ZM3.73729 13.1345L1.93729 12.1863C1.84273 12.1447 5.47537 5.96355 5.45905 5.91747C5.46329 5.91 5.47028 5.90449 5.47854 5.90211C5.48679 5.89973 5.49564 5.90068 5.50321 5.90475L7.30321 6.85275C7.30708 6.8548 7.31049 6.85762 7.31325 6.86102C7.31601 6.86442 7.31805 6.86835 7.31926 6.87256C7.32047 6.87677 7.32082 6.88118 7.32029 6.88553C7.31976 6.88988 7.31835 6.89407 7.31617 6.89787C7.26889 6.91587 3.81601 13.1806 3.73729 13.1345ZM6.29953 14.9602L6.06841 15.2362L6.28441 14.9482C6.21691 14.8915 6.17463 14.8103 6.16685 14.7225C6.15907 14.6347 6.18641 14.5474 6.24289 14.4797L6.52585 14.142C6.55535 14.1079 6.5914 14.08 6.63187 14.06C6.67234 14.04 6.7164 14.0283 6.76145 14.0256C6.8065 14.0229 6.85164 14.0293 6.89419 14.0444C6.93675 14.0594 6.97585 14.0828 7.00921 14.1132C7.07675 14.1699 7.11906 14.251 7.12684 14.3388C7.13463 14.4265 7.10725 14.5138 7.05073 14.5815L6.76801 14.9189C6.71131 14.9864 6.63014 15.0287 6.5423 15.0364C6.45447 15.0442 6.36716 15.0168 6.29953 14.9602ZM7.37617 15.8621L7.14505 16.1381L7.36105 15.8501C7.29365 15.7935 7.25143 15.7124 7.2436 15.6247C7.23578 15.537 7.26299 15.4498 7.31929 15.3821L7.60273 15.0439L8.10529 14.4439C8.1649 14.3794 8.24706 14.3402 8.33476 14.3345C8.42247 14.3288 8.50901 14.357 8.57647 14.4133C8.64393 14.4697 8.68716 14.5498 8.6972 14.6371C8.70724 14.7244 8.68332 14.8123 8.63041 14.8824L7.84441 15.8208C7.78768 15.8882 7.70656 15.9304 7.61881 15.9381C7.53106 15.9459 7.44381 15.9185 7.37617 15.8621ZM8.45305 16.7643C8.41696 16.7371 8.38676 16.7029 8.36426 16.6637C8.34176 16.6246 8.32743 16.5812 8.32213 16.5364C8.31684 16.4915 8.32069 16.446 8.33346 16.4027C8.34622 16.3594 8.36764 16.3191 8.39641 16.2843L9.18241 15.3461L9.41833 15.0646C9.47815 15.0003 9.56037 14.9614 9.64802 14.956C9.73567 14.9505 9.82206 14.979 9.88937 15.0354C9.95668 15.0918 9.99977 15.1719 10.0097 15.2591C10.0197 15.3464 9.99581 15.4341 9.94297 15.5043L8.92081 16.7244C8.86375 16.7912 8.78266 16.8329 8.6951 16.8404C8.60755 16.8478 8.52059 16.8205 8.45305 16.7643ZM9.77305 17.7423C9.70609 17.7475 9.63906 17.7331 9.58012 17.7009C9.52118 17.6687 9.47288 17.6201 9.44109 17.5609C9.4093 17.5018 9.39539 17.4347 9.40106 17.3677C9.40674 17.3008 9.43175 17.237 9.47305 17.184L10.1016 16.4338C10.1595 16.3696 10.2397 16.3298 10.3259 16.3225C10.4121 16.3151 10.4978 16.3408 10.5657 16.3943C10.6337 16.4478 10.6788 16.5251 10.6919 16.6106C10.705 16.6961 10.6851 16.7834 10.6363 16.8547C10.6184 16.8716 10.6036 16.8915 10.5926 16.9135L9.99793 17.6237C9.97003 17.6574 9.93573 17.6852 9.89701 17.7056C9.85828 17.7259 9.8159 17.7384 9.77233 17.7423H9.77305ZM17.4922 15.2379C17.4596 15.2863 17.4175 15.3275 17.3682 15.3589C17.319 15.3903 17.2639 15.4111 17.2062 15.4201C17.1485 15.4291 17.0896 15.4261 17.0332 15.4113C16.9768 15.3964 16.924 15.3701 16.8782 15.3339L16.7436 15.2295C16.7011 15.1956 16.2305 14.8162 16.1916 14.8023L14.7233 13.6663C14.6478 13.6079 14.5521 13.5819 14.4574 13.594C14.3627 13.606 14.2766 13.6553 14.2182 13.7308C14.1598 13.8063 14.1337 13.902 14.1458 13.9967C14.1579 14.0914 14.2071 14.1774 14.2826 14.2359L16.2986 15.7959C16.3604 15.8488 16.4056 15.9184 16.4288 15.9964C16.4521 16.0743 16.4525 16.1573 16.4299 16.2355C16.4073 16.3136 16.3627 16.3836 16.3014 16.4371C16.2402 16.4906 16.1648 16.5254 16.0843 16.5372C15.8292 16.5927 15.5191 16.2315 15.257 16.0555C15.1618 15.9673 15.0588 15.8878 14.9494 15.8179L13.5094 14.706C13.4338 14.6477 13.3381 14.6217 13.2434 14.6339C13.1487 14.6461 13.0627 14.6954 13.0043 14.7709C12.9459 14.8465 12.92 14.9422 12.9321 15.0369C12.9443 15.1317 12.9936 15.2177 13.0692 15.276L14.8118 16.6217C14.8848 16.6986 14.9261 16.8002 14.9275 16.9062C14.9289 17.0122 14.8903 17.1148 14.8193 17.1936C14.7484 17.2724 14.6503 17.3215 14.5447 17.3311C14.4392 17.3408 14.3338 17.3103 14.2498 17.2457L13.6891 16.8106C13.6238 16.7523 13.2298 16.4338 13.1542 16.3954L12.6821 16.0289C12.6065 15.9738 12.5125 15.9503 12.4199 15.9634C12.3273 15.9764 12.2434 16.0249 12.186 16.0987C12.1286 16.1725 12.1021 16.2657 12.1122 16.3587C12.1222 16.4516 12.1681 16.537 12.24 16.5967L13.243 17.376C13.32 17.4516 13.3651 17.5538 13.3689 17.6616C13.3728 17.7694 13.3351 17.8745 13.2636 17.9554C13.1922 18.0362 13.0925 18.0865 12.985 18.0959C12.8776 18.1054 12.7706 18.0732 12.6862 18.006L11.365 16.9992C11.4524 16.7282 11.4287 16.4335 11.2993 16.1798C11.1698 15.9261 10.945 15.7341 10.6742 15.6459C10.9896 14.8635 10.1494 13.9798 9.34465 14.28C9.28363 14.126 9.1874 13.9884 9.06367 13.8782C8.93994 13.768 8.79214 13.6883 8.63208 13.6454C8.47203 13.6026 8.30417 13.5978 8.14194 13.6314C7.9797 13.6651 7.82759 13.7362 7.69777 13.8391C7.60677 13.6829 7.47758 13.5523 7.32231 13.4597C7.16705 13.367 6.9908 13.3153 6.81008 13.3094C6.62937 13.3034 6.45011 13.3435 6.28911 13.4258C6.12811 13.5081 5.99065 13.6299 5.88961 13.7799C5.50193 13.4397 5.17034 13.0406 4.90705 12.5971L7.56769 7.91331C8.20305 8.31914 8.90013 8.61905 9.63169 8.80131C9.30241 9.00363 9.27601 8.95467 9.12889 9.13155C8.62849 9.91011 7.84777 11.0825 7.67857 11.2515C7.61509 11.3149 7.57759 11.3997 7.57342 11.4894C7.56925 11.579 7.5987 11.667 7.65601 11.736C8.06953 12.2299 9.10681 12.9802 10.0759 12.288C10.4922 11.9843 10.8597 11.6187 11.1655 11.2039C11.3316 10.992 11.4629 10.8247 11.586 10.782C11.828 10.7066 12.0814 10.6741 12.3346 10.686L17.4019 14.67C17.4855 14.736 17.5413 14.8311 17.558 14.9363C17.5747 15.0415 17.5512 15.1492 17.4922 15.2379ZM17.2102 13.6059L12.6917 10.0539C12.6385 10.012 12.5745 9.98592 12.5071 9.97875C12.1168 9.94466 11.7236 9.98714 11.3496 10.1038C11.0401 10.244 10.779 10.4727 10.5994 10.7611C10.3357 11.1218 10.0181 11.4399 9.65785 11.7041C9.19321 12.0358 8.68993 11.7173 8.41513 11.4797C8.80249 10.9582 9.45457 9.95475 9.68545 9.59643C10.0399 9.39675 11.5265 8.56443 12.2484 8.23803C12.9245 7.95555 13.8259 8.85171 14.5459 8.94579C14.9229 9.02969 15.315 9.01687 15.6857 8.90853C16.0564 8.80018 16.3936 8.59983 16.6661 8.32611L18.973 12.3874C18.8046 12.7217 18.555 13.0084 18.247 13.2212C17.939 13.4339 17.5825 13.5659 17.2102 13.6049V13.6059ZM22.0625 12.1872L20.2625 13.1355C20.1886 13.1885 16.7249 6.90987 16.6836 6.89883C16.6815 6.895 16.6801 6.89077 16.6796 6.88641C16.6792 6.88205 16.6796 6.87764 16.6808 6.87343C16.6821 6.86923 16.6841 6.86532 16.6869 6.86193C16.6897 6.85854 16.6932 6.85575 16.697 6.85371C16.7124 6.84987 18.4954 5.89779 18.5122 5.90187C18.5602 5.88243 22.0481 12.1311 22.0757 12.1419C22.0798 12.1495 22.0807 12.1585 22.0782 12.1668C22.0758 12.1751 22.0701 12.1821 22.0625 12.1863V12.1872Z" fill="#C14616"/>
</svg>
