<?xml version="1.0" encoding="UTF-8"?>
<svg xmlns="http://www.w3.org/2000/svg" version="1.1" viewBox="0 0 150 150">
  <defs>
    <style>
      .cls-1 {
        fill: #c14616;
        fill-rule: evenodd;
      }
    </style>
  </defs>
  <!-- Generator: Adobe Illustrator 28.7.1, SVG Export Plug-In . SVG Version: 1.2.0 Build 142)  -->
  <g>
    <g id="Layer_1">
      <path class="cls-1" d="M50,0c-8,0-14.4,6.5-14.4,14.4,0,2.5.7,4.9,1.8,7H10.8c-6,0-10.8,4.9-10.8,10.8v106.9c0,6,4.9,10.8,10.8,10.8h46.3c2.1,0,3.7-1.7,3.7-3.7,0-2-1.7-3.7-3.7-3.7H10.8c-1.9,0-3.4-1.5-3.4-3.4V32.2c0-1.9,1.5-3.4,3.4-3.4h78.4c1.9,0,3.4,1.5,3.4,3.4v71.3c0,2,1.7,3.7,3.7,3.7s3.7-1.7,3.7-3.7V32.2c0-6-4.9-10.8-10.8-10.8h-26.6c1.2-2.1,1.8-4.5,1.8-7C64.5,6.4,58,0,50,0ZM50,7.4c3.9,0,7,3.1,7,7s-3.1,7-7,7-7-3.1-7-7,3.1-7,7-7ZM32.2,39.2c-1.2,0-2.4.6-3.1,1.7l-4.6,6.9-3.9-3.9c-1.5-1.4-3.9-1.3-5.2.2-1.3,1.4-1.3,3.6,0,5l7.1,7.1c1.5,1.4,3.8,1.4,5.3,0,.2-.2.3-.4.5-.6l7.1-10.7c1.1-1.7.7-4-1-5.2-.6-.4-1.3-.6-2.1-.6h0ZM42.9,46.3c-2.1,0-3.7,1.7-3.7,3.7,0,2.1,1.7,3.7,3.7,3.7h39.2c2.1,0,3.7-1.7,3.7-3.7s-1.7-3.7-3.7-3.7h-39.2ZM32.2,64.2c-1.2,0-2.4.6-3.1,1.7l-4.6,6.9-3.9-3.9c-1.5-1.4-3.9-1.3-5.2.2-1.3,1.4-1.3,3.6,0,5l7.1,7.1c1.5,1.4,3.8,1.4,5.3,0,.2-.2.3-.4.5-.6l7.1-10.7c1.1-1.7.7-4-1-5.2-.6-.4-1.3-.6-2.1-.6h0ZM42.9,71.3c-2.1,0-3.7,1.7-3.7,3.7s1.7,3.7,3.7,3.7h39.2c2.1,0,3.7-1.7,3.7-3.7s-1.7-3.7-3.7-3.7h-39.2ZM32.2,89.1c-1.2,0-2.4.6-3.1,1.7l-4.6,6.9-3.9-3.9c-1.5-1.4-3.9-1.3-5.2.2-1.3,1.4-1.3,3.6,0,5l7.1,7.1c1.5,1.4,3.8,1.4,5.3,0,.2-.2.3-.4.5-.6l7.1-10.7c1.1-1.7.7-4-1-5.2-.6-.4-1.3-.6-2.1-.6h0ZM42.9,96.2c-2.1,0-3.7,1.7-3.7,3.7,0,2,1.7,3.7,3.7,3.7h39.2c2.1,0,3.7-1.7,3.7-3.7s-1.7-3.7-3.7-3.7h-39.2ZM82.1,114.1c-4,0-7.2,3.2-7.3,7.1h-4.3c-3.2,0-6.4,3-6.4,7.3v7.1c0,4.3,3.2,7.3,6.4,7.3h4.3c0,4,3.3,7.1,7.3,7.1h7.1c4,0,7.3-3.3,7.3-7.3v-7h21.1v7c0,4,3.3,7.3,7.3,7.3h7.1c4,0,7.2-3.2,7.3-7.1h4.3c3.2,0,6.4-3,6.4-7.3v-7.1c0-4.3-3.2-7.3-6.4-7.3h-4.3c0-4-3.3-7.1-7.3-7.1h-7.1c-4,0-7.3,3.3-7.3,7.3v7h-21.1v-7c0-4-3.3-7.3-7.3-7.3h-7.1ZM32.2,114.1c-1.2,0-2.4.6-3.1,1.7l-4.6,6.9-3.9-3.9c-1.5-1.4-3.9-1.3-5.2.2-1.3,1.4-1.3,3.6,0,5l7.1,7.1c1.5,1.4,3.8,1.4,5.3,0,.2-.2.3-.4.5-.6l7.1-10.7c1.1-1.7.7-4-1-5.2-.6-.4-1.3-.6-2.1-.6h0ZM42.9,121.2c-2.1,0-3.7,1.7-3.7,3.7,0,2,1.7,3.7,3.7,3.7h10.7c2.1,0,3.7-1.7,3.7-3.7,0-2-1.7-3.7-3.7-3.7h-10.7ZM82.3,121.5h6.8v21.1h-6.8v-21.1ZM125.1,121.5h6.8v21.1h-6.8v-21.1ZM71.6,128.6h3.3v6.8h-3.3v-6.8ZM139.3,128.6h3.3v6.8h-3.3v-6.8Z"/>
    </g>
  </g>
</svg>