<svg xmlns="http://www.w3.org/2000/svg" version="1.1" xmlns:xlink="http://www.w3.org/1999/xlink" width="512" height="512" x="0" y="0" viewBox="0 0 64 64" style="enable-background:new 0 0 512 512" xml:space="preserve" class=""><g><path d="M1 61h62v2H1zM53 5c-1.93 0-3.5 1.57-3.5 3.5h2c0-.83.67-1.5 1.5-1.5s1.5.67 1.5 1.5S53.83 10 53 10c-.55 0-1 .45-1 1v2.5h2v-1.65c1.44-.43 2.5-1.77 2.5-3.35C56.5 6.57 54.93 5 53 5zM52 15h2v2h-2z" fill="#c14616" opacity="1" data-original="#000000"></path><path d="M53 1c-5.51 0-10 4.49-10 10s4.49 10 10 10 10-4.49 10-10S58.51 1 53 1zm0 18c-4.41 0-8-3.59-8-8s3.59-8 8-8 8 3.59 8 8-3.59 8-8 8zM43 59V41c0-.55-.45-1-1-1h-6c-.55 0-1 .45-1 1v18h2V42h4v17zM29 59V35c0-.55-.45-1-1-1h-6c-.55 0-1 .45-1 1v24h2V36h4v23zM9 47h4v12h2V46c0-.55-.45-1-1-1H8c-.55 0-1 .45-1 1v13h2zM23.24 24.11l13.49 3.85c.35.1.73 0 .98-.25l6-6-1.41-1.41-5.58 5.58-13.43-3.84a.99.99 0 0 0-.92.2l-13 11 1.29 1.53 12.59-10.66zM49 41h2v4h-2zM55 41h2v4h-2zM49 34h2v4h-2zM55 34h2v4h-2zM49 48h2v4h-2zM55 48h2v4h-2zM55 55h2v4h-2zM49 55h2v4h-2zM57 27c0-.55-.45-1-1-1h-6c-.55 0-1 .45-1 1v4h2v-3h4v3h2z" fill="#c14616" opacity="1" data-original="#000000"></path></g></svg>