<svg xmlns="http://www.w3.org/2000/svg" version="1.1" xmlns:xlink="http://www.w3.org/1999/xlink" width="512" height="512" x="0" y="0" viewBox="0 0 64 64" style="enable-background:new 0 0 512 512" xml:space="preserve" class=""><g><g data-name="18-human brain"><path d="M62.976 17.738a26.976 26.976 0 0 0-5.91-8.649C53.148 5.14 46.131.36 34.952.018 23.709-.314 17.035 4.305 13.423 8.25c-4.718 5.154-6.36 11.4-5.895 15.3a2.863 2.863 0 0 1-.275 1.614 20.858 20.858 0 0 1-5.5 6.925c-1.375 1.1-1.948 2.229-1.7 3.363.4 1.845 2.9 2.85 4.92 3.367a.627.627 0 0 1 .487.483c.024.176-.06.355-.288.787a7.279 7.279 0 0 0-.591 1.358 1.969 1.969 0 0 0 .237 1.724 2.73 2.73 0 0 0 1.014.86 2.113 2.113 0 0 0-.514 1.164 2.087 2.087 0 0 0 1.156 1.961 1.681 1.681 0 0 1 .726 2.163 1.006 1.006 0 0 0-.053.138c-.929 3.076-.747 5.343.553 6.726 1.771 1.9 4.835 1.243 5.013 1.2 8.707-2.423 11.727-1.68 12.638-1.238.045.02 4.512 2.137 4.284 6.806a1 1 0 0 0 1 1.049H57.32a1 1 0 0 0 .932-1.362L53.5 50.432a1.307 1.307 0 0 0-.109-.206c-.022-.034-2.032-3.4 5.248-11.549 8.391-9.392 4.508-20.464 4.337-20.939Zm-11.3 33.516L55.858 62H31.621c-.345-5.258-5.216-7.569-5.421-7.664-2.391-1.157-7.241-.77-13.976 1.107-.577.127-2.253.255-3.07-.628C8.4 54 8.365 52.372 9.04 50.1a3.671 3.671 0 0 0-1.482-4.623 1.445 1.445 0 0 1-.2-.154 3.558 3.558 0 0 1 1.135-.755 1 1 0 0 0-.293-1.921 2.758 2.758 0 0 1-1.7-.621 5.547 5.547 0 0 1 .444-1 3.121 3.121 0 0 0 .5-2 2.608 2.608 0 0 0-1.972-2.143c-2.227-.569-3.355-1.358-3.461-1.85-.067-.312.306-.828 1-1.381a22.9 22.9 0 0 0 6.043-7.6 4.885 4.885 0 0 0 .467-2.733c-.4-3.336 1.116-9.049 5.383-13.71 3.331-3.637 9.52-7.905 19.994-7.583 20.039.606 25.961 15.766 26.202 16.401.151.422 3.628 10.436-3.948 18.918-7.845 8.781-6.015 13.03-5.473 13.909Z" fill="#ffffff" opacity="1" data-original="#000000" class=""></path><path d="M28 17a3 3 0 1 0-4 2.816V23a1 1 0 0 0 .47.848l7.59 4.743a3.02 3.02 0 1 0 .375-2.123L26 22.445v-2.629A3 3 0 0 0 28 17Zm7 10a1 1 0 1 1-1 1 1 1 0 0 1 1-1ZM25 16a1 1 0 1 1-1 1 1 1 0 0 1 1-1ZM41.4 46.041l-4.777-3.822A1 1 0 0 0 36 42h-3.184a3 3 0 1 0 0 2h2.833l3.412 2.73a3 3 0 1 0 2.341-.689ZM30 44a1 1 0 1 1 1-1 1 1 0 0 1-1 1Zm11 6a1 1 0 1 1 1-1 1 1 0 0 1-1 1Z" fill="#ffffff" opacity="1" data-original="#000000" class=""></path><path d="M43.683 4.269A1 1 0 0 0 43 4H26a1 1 0 0 0-.707.293L14.539 15.047a3.007 3.007 0 1 0 2.26.568L26.414 6h16.191l9.644 9h-4.433a2.987 2.987 0 0 0-5.726.3L37 17.484v-3.668a3 3 0 1 0-2 0V19a1 1 0 0 0 .293.707l4 4A1 1 0 0 0 40 24h8.184a3 3 0 0 0 .757 1.171l-4.5 3A1 1 0 0 0 44 29v8.184a2.991 2.991 0 0 0-1.385 1.016l-2.908-2.908A1 1 0 0 0 39 35h-9.184a2.982 2.982 0 0 0-5.632 0h-5.7L15 30.649v-2.833a3 3 0 1 0-2 0V31a1 1 0 0 0 .219.625l4 5A1 1 0 0 0 18 37h6.184a2.982 2.982 0 0 0 5.632 0h8.77l3.461 3.461a2.994 2.994 0 0 0 2.3 2.461L48 50.236v4.948a3 3 0 1 0 2 0V50a1 1 0 0 0-.1-.447l-3.466-6.932A2.978 2.978 0 0 0 46 37.184v-7.649l5.357-3.571A2.992 2.992 0 1 0 48.184 22h-7.77l-2.663-2.663 4.595-1.969a2.979 2.979 0 0 0 5.47-.368h6.575L57 19.435v10.288l-1.889 3.149a3.008 3.008 0 1 0 .855 2.461l2.891-4.818A1 1 0 0 0 59 30V19a1 1 0 0 0-.317-.731ZM15 19a1 1 0 1 1 1-1 1 1 0 0 1-1 1Zm-1 5a1 1 0 1 1-1 1 1 1 0 0 1 1-1Zm13 13a1 1 0 1 1 1-1 1 1 0 0 1-1 1Zm22 22a1 1 0 1 1 1-1 1 1 0 0 1-1 1Zm-4-20a1 1 0 1 1-1 1 1 1 0 0 1 1-1Zm6-17a1 1 0 1 1-1 1 1 1 0 0 1 1-1ZM36 10a1 1 0 1 1-1 1 1 1 0 0 1 1-1Zm9 7a1 1 0 1 1 1-1 1 1 0 0 1-1 1Zm8 19a1 1 0 1 1 1-1 1 1 0 0 1-1 1Z" fill="#ffffff" opacity="1" data-original="#000000" class=""></path></g></g></svg>