<?xml version="1.0" encoding="UTF-8"?>
<svg id="Layer_1" data-name="Layer 1" xmlns="http://www.w3.org/2000/svg" viewBox="0 0 120.69 120">
  <defs>
    <style>
      .cls-1 {
        fill: #fff;
      }
    </style>
  </defs>
  <path class="cls-1" d="M54.35,84H8.35c-2.2,0-4-1.8-4-4V12c0-2.2,1.8-4,4-4h98c2.2,0,4,1.8,4,4v45.52c0,1.1.9,2,2,2s2-.9,2-2V12c0-4.42-3.58-8-8-8H8.35C3.93,4,.35,7.58.35,12v68c0,4.42,3.58,8,8,8h46c1.1,0,2-.9,2-2s-.9-2-2-2Z"/>
  <path class="cls-1" d="M120.35,86c0-16.54-13.46-30-30-30s-30,13.46-30,30,13.46,30,30,30c8,0,15.52-3.12,21.22-8.78s0,0,0,0c5.66-5.68,8.78-13.22,8.78-21.22ZM110.09,102.92l-5.68-5.68c2.14-2.68,3.46-5.86,3.82-9.24h8.04c-.42,5.52-2.56,10.7-6.18,14.92ZM90.35,72c7.72,0,14,6.28,14,14,0,3.72-1.46,7.24-4.1,9.9-2.66,2.64-6.18,4.1-9.9,4.1-7.72,0-14-6.28-14-14s6.28-14,14-14ZM116.27,84h-8.04c-.92-8.34-7.56-14.96-15.88-15.88v-8.04c12.74.98,22.94,11.18,23.92,23.92ZM90.35,112c-14.34,0-26-11.66-26-26s10.6-24.9,24-25.92v8.04c-8.98,1-16,8.64-16,17.88,0,9.92,8.08,18,18,18,4.12,0,8.04-1.38,11.24-3.94l5.68,5.68c-4.72,4.04-10.66,6.26-16.92,6.26Z"/>
  <path class="cls-1" d="M62.35,36c0-1.06-.3-2.06-.8-2.92l6.58-7.52c.68.28,1.42.44,2.2.44s1.52-.16,2.2-.44l6.58,7.52c-.48.86-.8,1.86-.8,2.92,0,3.3,2.7,6,6,6s6-2.7,6-6c0-1.06-.3-2.06-.8-2.92l6.58-7.52c.68.28,1.42.44,2.2.44,3.3,0,6-2.7,6-6s-2.7-6-6-6-6,2.7-6,6c0,1.06.3,2.06.8,2.92l-6.58,7.52c-.68-.28-1.42-.44-2.2-.44s-1.52.16-2.2.44l-6.58-7.52c.48-.86.8-1.86.8-2.92,0-3.3-2.7-6-6-6s-6,2.7-6,6c0,1.06.3,2.06.8,2.92l-6.58,7.52c-.68-.28-1.42-.44-2.2-.44-3.3,0-6,2.7-6,6s2.7,6,6,6,6-2.7,6-6ZM98.35,18c1.1,0,2,.9,2,2s-.9,2-2,2-2-.9-2-2,.9-2,2-2ZM86.35,36c0,1.1-.9,2-2,2s-2-.9-2-2,.9-2,2-2,2,.9,2,2ZM70.35,18c1.1,0,2,.9,2,2s-.9,2-2,2-2-.9-2-2,.9-2,2-2ZM56.35,38c-1.1,0-2-.9-2-2s.9-2,2-2,2,.9,2,2-.9,2-2,2Z"/>
  <path class="cls-1" d="M10.35,76c0,1.1.9,2,2,2h8c1.1,0,2-.9,2-2v-22c0-1.1-.9-2-2-2h-8c-1.1,0-2,.9-2,2v22ZM14.35,56h4v18h-4v-18Z"/>
  <path class="cls-1" d="M28.35,44c-1.1,0-2,.9-2,2v30c0,1.1.9,2,2,2h8c1.1,0,2-.9,2-2v-30c0-1.1-.9-2-2-2h-8ZM34.35,74h-4v-26h4v26Z"/>
  <path class="cls-1" d="M44.35,78h8c1.1,0,2-.9,2-2v-16c0-1.1-.9-2-2-2h-8c-1.1,0-2,.9-2,2v16c0,1.1.9,2,2,2ZM46.35,62h4v12h-4v-12Z"/>
  <path class="cls-1" d="M12.35,18h4c1.1,0,2-.9,2-2s-.9-2-2-2h-4c-1.1,0-2,.9-2,2s.9,2,2,2Z"/>
  <path class="cls-1" d="M24.35,18h16c1.1,0,2-.9,2-2s-.9-2-2-2h-16c-1.1,0-2,.9-2,2s.9,2,2,2Z"/>
  <path class="cls-1" d="M12.35,28h4c1.1,0,2-.9,2-2s-.9-2-2-2h-4c-1.1,0-2,.9-2,2s.9,2,2,2Z"/>
  <path class="cls-1" d="M24.35,28h16c1.1,0,2-.9,2-2s-.9-2-2-2h-16c-1.1,0-2,.9-2,2s.9,2,2,2Z"/>
  <path class="cls-1" d="M12.35,38h4c1.1,0,2-.9,2-2s-.9-2-2-2h-4c-1.1,0-2,.9-2,2s.9,2,2,2Z"/>
  <path class="cls-1" d="M42.35,36c0-1.1-.9-2-2-2h-16c-1.1,0-2,.9-2,2s.9,2,2,2h16c1.1,0,2-.9,2-2Z"/>
</svg>