<?xml version="1.0" encoding="UTF-8"?>
<svg xmlns="http://www.w3.org/2000/svg" version="1.1" viewBox="0 0 512 512">
  <defs>
    <style>
      .cls-1 {
        fill: #999;
      }
    </style>
  </defs>
  <!-- Generator: Adobe Illustrator 28.7.1, SVG Export Plug-In . SVG Version: 1.2.0 Build 142)  -->
  <g>
    <g id="Layer_1">
      <path class="cls-1" d="M256,207c48,0,87-39,87-87s-39-87-87-87-87,39-87,87,39,87,87,87ZM256,63c31.4,0,57,25.6,57,57s-25.6,57-57,57-57-25.6-57-57,25.6-57,57-57ZM432,207c30.3,0,55-24.7,55-55s-24.7-55-55-55-55,24.7-55,55,24.7,55,55,55ZM432,127c13.8,0,25,11.2,25,25s-11.2,25-25,25-25-11.2-25-25,11.2-25,25-25ZM444.1,241h-23.2c-27.3,0-50.9,16.2-61.7,39.4-22.1-24.2-53.9-39.4-89.2-39.4h-28c-35.3,0-67.1,15.2-89.2,39.4-10.8-23.2-34.4-39.4-61.7-39.4h-23.2C30.5,241,0,271.3,0,308.5v109.2c0,16.2,13.2,29.3,29.4,29.3h91.7c1.5,17.9,16.6,32,34.9,32h200c18.3,0,33.3-14.1,34.9-32h90.7c16.8,0,30.5-13.6,30.5-30.3v-108.2c0-37.2-30.5-67.5-67.9-67.5ZM30,308.5c0-20.7,17-37.5,37.9-37.5h23.2c20.9,0,37.9,16.8,37.9,37.5v10.3c-10.1,26.3-8,42-8,98.2H30v-108.5ZM361,444c0,2.8-2.2,5-5,5h-200c-2.8,0-5-2.2-5-5v-82c0-50.2,40.8-91,91-91h28c50.2,0,91,40.8,91,91v82ZM482,416.7c0,.5,5.6.3-91,.3,0-56.7,2.1-72-8-98.2v-10.3c0-20.7,17-37.5,37.9-37.5h23.2c20.9,0,37.9,16.8,37.9,37.5v108.2ZM80,207c30.3,0,55-24.7,55-55s-24.7-55-55-55-55,24.7-55,55,24.7,55,55,55ZM80,127c13.8,0,25,11.2,25,25s-11.2,25-25,25-25-11.2-25-25,11.2-25,25-25Z"/>
    </g>
  </g>
</svg>