<svg xmlns="http://www.w3.org/2000/svg" version="1.1" xmlns:xlink="http://www.w3.org/1999/xlink" width="512" height="512" x="0" y="0" viewBox="0 0 24 24" style="enable-background:new 0 0 512 512" xml:space="preserve" class=""><g><path d="M21.5 24h-19A2.503 2.503 0 0 1 0 21.5v-17C0 3.122 1.121 2 2.5 2h19C22.879 2 24 3.122 24 4.5v17c0 1.378-1.121 2.5-2.5 2.5zM2.5 3C1.673 3 1 3.673 1 4.5v17c0 .827.673 1.5 1.5 1.5h19c.827 0 1.5-.673 1.5-1.5v-17c0-.827-.673-1.5-1.5-1.5z" fill="#c14616" opacity="1" data-original="#000000" class=""></path><path d="M23.5 9H.5a.5.5 0 0 1 0-1h23a.5.5 0 0 1 0 1zM5.5 5a.5.5 0 0 1-.5-.5v-4a.5.5 0 0 1 1 0v4a.5.5 0 0 1-.5.5zM18.5 5a.5.5 0 0 1-.5-.5v-4a.5.5 0 0 1 1 0v4a.5.5 0 0 1-.5.5zM16.5 21h-3a.5.5 0 0 1-.5-.5v-9a.5.5 0 0 1 .5-.5h3a.5.5 0 0 1 .5.5v9a.5.5 0 0 1-.5.5zM14 20h2v-8h-2zM10.5 21h-3a.5.5 0 0 1-.5-.5v-5a.5.5 0 0 1 .5-.5h3a.5.5 0 0 1 .5.5v5a.5.5 0 0 1-.5.5zM8 20h2v-4H8z" fill="#c14616" opacity="1" data-original="#000000" class=""></path><path d="M17.5 21h-11a.5.5 0 0 1 0-1h11a.5.5 0 0 1 0 1z" fill="#c14616" opacity="1" data-original="#000000" class=""></path></g></svg>