<svg xmlns="http://www.w3.org/2000/svg" version="1.1" xmlns:xlink="http://www.w3.org/1999/xlink" width="512" height="512" x="0" y="0" viewBox="0 0 512 512" style="enable-background:new 0 0 512 512" xml:space="preserve" class=""><g><path d="M488 144h-48a8 8 0 0 0-8 8v304a8 8 0 0 0 8 8h48a8 8 0 0 0 8-8V152a8 8 0 0 0-8-8Zm-8 304h-32V160h32ZM408 464a8 8 0 0 0 8-8V216a8 8 0 0 0-8-8h-48a8 8 0 0 0-8 8v240a8 8 0 0 0 8 8Zm-40-240h32v224h-32ZM328 464a8 8 0 0 0 8-8V272a8 8 0 0 0-8-8h-48a8 8 0 0 0-8 8v184a8 8 0 0 0 8 8Zm-40-184h32v168h-32ZM248 464a8 8 0 0 0 8-8V336a8 8 0 0 0-8-8h-48a8 8 0 0 0-8 8v120a8 8 0 0 0 8 8Zm-40-120h32v104h-32ZM168 464a8 8 0 0 0 8-8v-88a8 8 0 0 0-8-8h-48a8 8 0 0 0-8 8v88a8 8 0 0 0 8 8Zm-40-88h32v72h-32ZM88 464a8 8 0 0 0 8-8v-48a8 8 0 0 0-8-8H40a8 8 0 0 0-8 8v48a8 8 0 0 0 8 8Zm-40-48h32v32H48ZM216 144h16a8 8 0 0 0 0-16h-8v-8a8 8 0 0 0-16 0v9.376A24 24 0 0 0 216 176a8 8 0 0 1 0 16h-16a8 8 0 0 0 0 16h8v8a8 8 0 0 0 16 0v-9.376A24 24 0 0 0 216 160a8 8 0 0 1 0-16Z" fill="#c14616" opacity="1" data-original="#000000" class=""></path><path d="M488 48h-48a8 8 0 0 0 0 16h28.686l-112 112h-45.022a96.69 96.69 0 0 0 .336-8 96 96 0 1 0-113.677 94.362L164.687 296H104a8 8 0 0 0-5.657 2.343l-80 80a8 8 0 0 0 11.314 11.314L107.313 312H168a8 8 0 0 0 5.657-2.343l45.723-45.723A96.19 96.19 0 0 0 308.963 192H360a8 8 0 0 0 5.657-2.343L480 75.314V104a8 8 0 0 0 16 0V56a8 8 0 0 0-8-8ZM216 248a80 80 0 1 1 80-80 80.091 80.091 0 0 1-80 80Z" fill="#c14616" opacity="1" data-original="#000000" class=""></path></g></svg>