<?xml version="1.0" encoding="UTF-8"?>
<svg id="Layer_2" xmlns="http://www.w3.org/2000/svg" viewBox="0 0 1803.52 323.8">
  <defs>
    <style>
      .cls-1, .cls-2 {
        fill: none;
        stroke: #666;
        stroke-miterlimit: 10;
      }

      .cls-3 {
        fill: #fff;
      }

      .cls-4 {
        fill: #809faf;
      }

      .cls-2 {
        stroke-width: .5px;
      }

      .cls-5 {
        fill: #095ba7;
      }

      .cls-6 {
        fill: #f33;
      }

      .cls-7 {
        fill: #f6f7fb;
      }

      .cls-8 {
        fill: #676767;
      }
    </style>
  </defs>
  <line class="cls-1" x1="523.67" y1="280.76" x2="523.67" y2="302.77"/>
  <line class="cls-1" x1="924.67" y1="280.76" x2="924.67" y2="302.77"/>
  <line class="cls-1" x1="1327.67" y1="280.76" x2="1327.67" y2="302.77"/>
  <rect class="cls-6" x="121.94" y="198.3" width="401.73" height="97.68"/>
  <rect class="cls-6" x="523.67" y="198.3" width="401.73" height="97.68"/>
  <rect class="cls-4" x="1325.76" y="2.69" width="401.73" height="97.68"/>
  <rect class="cls-3" x="925.4" y="198.3" width="401.73" height="97.68"/>
  <rect class="cls-7" x="121.94" y="100.68" width="401.73" height="97.68"/>
  <rect class="cls-3" x="121.94" y="2.69" width="401.73" height="97.68"/>
  <line class="cls-1" x1="121.95" y1="198.98" x2="113.93" y2="198.98"/>
  <polyline class="cls-2" points="121.94 1.69 121.94 295.98 1727.49 295.98"/>
  <g>
    <path class="cls-8" d="M271.85,319.59h-1.13v-3.99h-4.51v3.99h-1.13v-8.54h1.13v3.56h4.51v-3.56h1.13v8.54Z"/>
    <path class="cls-8" d="M274.65,312.3h-1.03v-1.25h1.03v1.25ZM274.65,319.59h-1.03v-6.19h1.03v6.19Z"/>
    <path class="cls-8" d="M281.6,318.92c0,.54-.03.95-.08,1.24-.06.29-.16.57-.31.82-.46.75-1.27,1.13-2.45,1.13-.7,0-1.28-.14-1.76-.43-.48-.28-.76-.75-.84-1.4h1.04c.12.69.65,1.03,1.6,1.03.63,0,1.09-.16,1.37-.48.28-.32.43-.83.45-1.55v-.76c-.38.75-1.04,1.13-1.95,1.13-.83,0-1.49-.28-1.99-.85-.49-.57-.74-1.33-.74-2.29,0-.9.24-1.68.73-2.32.49-.64,1.17-.97,2.04-.97.43,0,.82.09,1.16.28.34.18.61.45.8.79v-.9h.94v5.52ZM277.45,314.76c-.32.43-.47,1.02-.47,1.77,0,.68.16,1.23.49,1.64.33.41.76.62,1.31.62s1.01-.22,1.34-.65.49-1.02.49-1.78c0-.7-.16-1.25-.49-1.65-.32-.4-.78-.59-1.36-.59-.55,0-.99.21-1.3.64Z"/>
    <path class="cls-8" d="M284.14,314.28c.46-.69,1.13-1.03,2.03-1.03,1.39,0,2.09.7,2.09,2.11v4.23h-1.02v-3.99c0-.47-.1-.83-.29-1.08s-.55-.38-1.06-.38c-.62,0-1.07.2-1.34.6-.27.4-.4.97-.4,1.71v3.14h-1.02v-8.54h1.02v3.23Z"/>
    <path class="cls-8" d="M296.96,311.05c.78,0,1.43.17,1.95.52s.77.88.77,1.62c0,.42-.11.8-.34,1.13-.23.33-.53.57-.92.7.53.12.93.37,1.22.74s.43.85.43,1.42c0,1.61-1.08,2.41-3.24,2.41h-3.51v-8.54h3.65ZM294.41,314.71h2.03c.23,0,.43,0,.59-.02s.35-.04.56-.09.37-.12.5-.21c.12-.09.23-.23.32-.4.09-.18.14-.39.14-.64s-.04-.46-.12-.63c-.08-.17-.18-.3-.29-.4s-.27-.16-.46-.21c-.2-.05-.37-.08-.53-.09-.16-.01-.36-.02-.61-.02h-2.13v2.7ZM294.41,318.64h2.25c.28,0,.51,0,.68-.02.18-.01.37-.05.59-.1.22-.06.39-.14.52-.25.13-.11.24-.26.32-.47.09-.2.13-.45.13-.74,0-.24-.03-.45-.09-.62-.06-.18-.16-.32-.3-.42-.14-.1-.27-.19-.4-.25-.12-.06-.3-.11-.53-.13-.23-.02-.41-.04-.54-.04-.13,0-.32,0-.59,0h-2.06v3.05Z"/>
    <path class="cls-8" d="M302.43,319.59h-1.03v-8.54h1.03v8.54Z"/>
    <path class="cls-8" d="M308.91,314.08c.52.57.78,1.36.78,2.39s-.26,1.86-.78,2.45c-.52.58-1.25.88-2.19.88s-1.68-.29-2.22-.86c-.54-.58-.8-1.38-.8-2.4s.27-1.82.82-2.41c.54-.59,1.28-.89,2.22-.89s1.66.28,2.18.85ZM305.27,314.73c-.35.44-.53,1.03-.53,1.76s.17,1.35.52,1.78.83.64,1.46.64,1.07-.22,1.41-.65.51-1.03.51-1.79-.17-1.32-.52-1.76c-.35-.44-.82-.65-1.42-.65s-1.08.22-1.43.66Z"/>
    <path class="cls-8" d="M315.8,314.08c.52.57.78,1.36.78,2.39s-.26,1.86-.78,2.45c-.52.58-1.25.88-2.19.88s-1.68-.29-2.22-.86c-.54-.58-.8-1.38-.8-2.4s.27-1.82.82-2.41c.54-.59,1.28-.89,2.22-.89s1.66.28,2.18.85ZM312.16,314.73c-.35.44-.53,1.03-.53,1.76s.17,1.35.52,1.78.83.64,1.46.64,1.07-.22,1.41-.65.51-1.03.51-1.79-.17-1.32-.52-1.76c-.35-.44-.82-.65-1.42-.65s-1.08.22-1.43.66Z"/>
    <path class="cls-8" d="M323.37,319.59h-.96v-.91c-.39.72-1.07,1.08-2.04,1.08-.88,0-1.58-.29-2.09-.88s-.77-1.38-.77-2.39c0-.94.24-1.71.73-2.33.48-.62,1.18-.93,2.09-.93s1.56.34,2.03,1.01v-3.18h1.02v8.54ZM319.07,314.73c-.34.42-.51,1-.51,1.73s.17,1.35.52,1.79c.35.44.81.67,1.4.67s1.06-.21,1.39-.64c.34-.43.5-1.02.5-1.78,0-.68-.16-1.25-.47-1.71-.32-.46-.8-.69-1.45-.69-.58,0-1.05.21-1.39.64Z"/>
    <path class="cls-8" d="M335.83,319.59h-.72l-.29-1.07c-.69.85-1.61,1.27-2.76,1.27-1.22,0-2.2-.41-2.94-1.22s-1.12-1.87-1.12-3.18.37-2.38,1.11-3.24c.74-.86,1.75-1.28,3.04-1.28.59,0,1.14.1,1.66.31s.95.52,1.31.96.56.95.61,1.54h-1.1c-.09-.56-.36-1.01-.81-1.35s-1.01-.51-1.66-.51c-.93,0-1.66.32-2.21.95-.54.64-.82,1.5-.82,2.58s.27,1.92.82,2.55c.54.63,1.28.95,2.19.95.86,0,1.52-.26,1.97-.79.45-.52.69-1.22.71-2.08h-2.73v-.92h3.74v4.52Z"/>
    <path class="cls-8" d="M338.43,319.59h-1.03v-8.54h1.03v8.54Z"/>
    <path class="cls-8" d="M345.15,319.59h-.95v-.97c-.53.76-1.24,1.14-2.13,1.14-.66,0-1.16-.18-1.52-.54-.36-.36-.54-.88-.54-1.56v-4.26h1.02v3.98c0,.49.09.86.28,1.11.19.25.53.38,1.01.38,1.21,0,1.81-.74,1.81-2.23v-3.24h1.02v6.19Z"/>
    <path class="cls-8" d="M351.17,319.11c-.48.44-1.09.66-1.85.66-.94,0-1.66-.29-2.17-.87-.51-.58-.77-1.35-.77-2.32,0-1.03.27-1.85.8-2.45s1.26-.91,2.17-.91c.76,0,1.37.19,1.82.57.46.38.72.92.8,1.62h-1.06c-.18-.9-.7-1.34-1.56-1.34-.59,0-1.06.22-1.4.65s-.52,1.03-.52,1.77.16,1.34.49,1.78c.33.43.78.65,1.36.65.46,0,.84-.14,1.13-.41.29-.27.48-.66.56-1.18h1.03c-.09.74-.37,1.33-.85,1.78Z"/>
    <path class="cls-8" d="M358.02,314.08c.52.57.78,1.36.78,2.39s-.26,1.86-.78,2.45c-.52.58-1.25.88-2.19.88s-1.68-.29-2.22-.86c-.54-.58-.8-1.38-.8-2.4s.27-1.82.82-2.41c.54-.59,1.28-.89,2.22-.89s1.66.28,2.18.85ZM354.39,314.73c-.35.44-.53,1.03-.53,1.76s.17,1.35.52,1.78c.35.43.83.64,1.46.64s1.07-.22,1.41-.65.51-1.03.51-1.79-.17-1.32-.52-1.76c-.35-.44-.82-.65-1.42-.65s-1.08.22-1.43.66Z"/>
    <path class="cls-8" d="M363.59,315.2c-.06-.75-.57-1.13-1.51-1.13-.39,0-.7.08-.92.23-.22.15-.34.36-.34.61,0,.07,0,.14.02.21.02.07.05.13.09.18.04.05.08.1.12.14.04.04.1.08.18.11s.15.07.19.09c.04.02.12.05.24.08.12.03.2.05.25.06.05.01.14.03.28.07.14.03.23.05.27.06.3.06.52.12.67.16s.35.11.61.22c.26.11.46.22.59.34.14.12.26.28.37.48.11.2.16.43.16.69,0,.6-.23,1.08-.7,1.45-.47.36-1.09.54-1.86.54-.84,0-1.49-.18-1.94-.55-.45-.37-.69-.9-.73-1.6h1.01c.06.87.62,1.31,1.68,1.31.46,0,.82-.09,1.1-.28.28-.19.41-.44.41-.75,0-.21-.07-.38-.22-.52-.14-.14-.3-.23-.48-.29-.18-.06-.43-.13-.76-.21-.05,0-.08-.02-.11-.02-.07-.02-.23-.05-.46-.1s-.41-.09-.51-.13-.25-.08-.45-.15c-.2-.07-.34-.14-.44-.22-.1-.08-.2-.17-.32-.29-.12-.12-.2-.25-.25-.41s-.07-.33-.07-.53c0-.56.21-1,.64-1.33s1-.49,1.72-.49,1.32.17,1.78.52c.46.34.69.83.69,1.46h-1.02Z"/>
    <path class="cls-8" d="M368.61,319.8c-.91,0-1.63-.28-2.14-.85s-.77-1.36-.77-2.36.27-1.81.8-2.43c.53-.62,1.23-.93,2.08-.93.95,0,1.66.32,2.12.96.46.64.69,1.46.69,2.44v.14h-4.65v.07c-.01.66.16,1.17.5,1.55s.82.56,1.42.56c.45,0,.8-.1,1.06-.31s.46-.54.61-1.01h1c-.31,1.44-1.21,2.16-2.7,2.16ZM369.78,314.56c-.31-.33-.72-.5-1.24-.5s-.91.17-1.24.5c-.33.34-.52.8-.59,1.38h3.6c-.05-.59-.23-1.05-.54-1.38Z"/>
  </g>
  <g>
    <path class="cls-8" d="M76.57,252.11h-1.13v-3.99h-4.51v3.99h-1.13v-8.54h1.13v3.56h4.51v-3.56h1.13v8.54Z"/>
    <path class="cls-8" d="M79.37,244.82h-1.03v-1.25h1.03v1.25ZM79.37,252.11h-1.03v-6.19h1.03v6.19Z"/>
    <path class="cls-8" d="M86.31,251.44c0,.54-.03.95-.08,1.24-.06.29-.16.57-.31.82-.46.75-1.27,1.13-2.45,1.13-.7,0-1.28-.14-1.76-.43-.48-.28-.76-.75-.84-1.4h1.04c.12.69.65,1.03,1.6,1.03.63,0,1.09-.16,1.37-.48.28-.32.43-.83.45-1.55v-.76c-.38.75-1.04,1.13-1.95,1.13-.83,0-1.49-.28-1.99-.85-.49-.57-.74-1.33-.74-2.29,0-.9.24-1.68.73-2.32.49-.64,1.17-.97,2.04-.97.43,0,.82.09,1.16.28.34.18.61.45.8.79v-.9h.94v5.52ZM82.17,247.28c-.32.43-.47,1.02-.47,1.77,0,.68.16,1.23.49,1.64.33.41.76.62,1.31.62s1.01-.22,1.34-.65.49-1.02.49-1.78c0-.7-.16-1.25-.49-1.65-.32-.4-.78-.59-1.36-.59-.55,0-.99.21-1.3.64Z"/>
    <path class="cls-8" d="M88.86,246.79c.46-.69,1.13-1.03,2.03-1.03,1.39,0,2.09.7,2.09,2.11v4.23h-1.02v-3.99c0-.47-.1-.83-.29-1.08s-.55-.38-1.06-.38c-.62,0-1.07.2-1.34.6-.27.4-.4.97-.4,1.71v3.14h-1.02v-8.54h1.02v3.23Z"/>
  </g>
  <line class="cls-1" x1="121.95" y1="102.98" x2="113.93" y2="102.98"/>
  <g>
    <path class="cls-8" d="M38.85,147.43l2.75,7.23,2.65-7.23h1.57v8.54h-1.07v-7.12l-2.67,7.12h-.98l-2.72-7.12v7.12h-1.08v-8.54h1.56Z"/>
    <path class="cls-8" d="M50.14,156.18c-.91,0-1.63-.28-2.14-.85s-.77-1.36-.77-2.36.27-1.81.8-2.43c.53-.62,1.23-.93,2.08-.93.95,0,1.66.32,2.12.96.46.64.69,1.46.69,2.44v.14h-4.65v.07c-.01.66.16,1.17.5,1.55s.82.56,1.42.56c.45,0,.8-.1,1.06-.31s.46-.54.61-1.01h1c-.31,1.44-1.21,2.16-2.7,2.16ZM51.32,150.94c-.31-.33-.72-.5-1.24-.5s-.91.17-1.24.5c-.33.34-.52.8-.59,1.38h3.6c-.05-.59-.23-1.05-.54-1.38Z"/>
    <path class="cls-8" d="M59.57,155.97h-.96v-.91c-.39.72-1.07,1.08-2.04,1.08-.88,0-1.58-.29-2.09-.88s-.77-1.38-.77-2.39c0-.94.24-1.71.73-2.33.48-.62,1.18-.93,2.09-.93s1.56.34,2.03,1.01v-3.18h1.02v8.54ZM55.27,151.11c-.34.42-.51,1-.51,1.73s.17,1.35.52,1.79c.35.44.81.67,1.4.67s1.06-.21,1.39-.64c.34-.43.5-1.02.5-1.78,0-.68-.16-1.25-.47-1.71-.32-.46-.8-.69-1.45-.69-.58,0-1.05.21-1.39.64Z"/>
    <path class="cls-8" d="M62.19,148.68h-1.03v-1.25h1.03v1.25ZM62.19,155.97h-1.03v-6.19h1.03v6.19Z"/>
    <path class="cls-8" d="M68.91,155.97h-.95v-.97c-.53.76-1.24,1.14-2.13,1.14-.66,0-1.16-.18-1.52-.54-.36-.36-.54-.88-.54-1.56v-4.26h1.02v3.98c0,.49.09.86.28,1.11.19.25.53.38,1.01.38,1.21,0,1.81-.74,1.81-2.23v-3.24h1.02v6.19Z"/>
    <path class="cls-8" d="M71.4,150.68c.27-.37.56-.64.88-.8s.69-.25,1.14-.25c.85,0,1.42.36,1.72,1.07.54-.72,1.22-1.08,2.05-1.08.64,0,1.13.18,1.46.53.33.36.5.85.5,1.49v4.33h-1.02v-3.9c0-.51-.08-.9-.24-1.16-.16-.26-.49-.39-1-.39-1.06,0-1.58.64-1.58,1.93v3.51h-1.02v-3.97c0-.47-.08-.83-.23-1.09-.16-.25-.46-.38-.91-.38-.63,0-1.07.19-1.31.58s-.37.91-.37,1.58v3.27h-1.02v-6.19h.96v.9Z"/>
  </g>
  <g>
    <path class="cls-8" d="M659.35,311.17c.78,0,1.43.17,1.95.52s.77.88.77,1.62c0,.42-.11.8-.34,1.13-.23.33-.53.57-.92.7.53.12.93.37,1.22.74s.43.85.43,1.42c0,1.61-1.08,2.41-3.24,2.41h-3.51v-8.54h3.65ZM656.8,314.82h2.03c.23,0,.43,0,.59-.02s.35-.04.56-.09.37-.12.5-.21c.12-.09.23-.23.32-.4.09-.18.14-.39.14-.64s-.04-.46-.12-.63c-.08-.17-.18-.3-.29-.4s-.27-.16-.46-.21c-.2-.05-.37-.08-.53-.09-.16-.01-.36-.02-.61-.02h-2.13v2.7ZM656.8,318.76h2.25c.28,0,.51,0,.68-.02.18-.01.37-.05.59-.1.22-.06.39-.14.52-.25.13-.11.24-.26.32-.47.09-.2.13-.45.13-.74,0-.24-.03-.45-.09-.62-.06-.18-.16-.32-.3-.42-.14-.1-.27-.19-.4-.25-.12-.06-.3-.11-.53-.13-.23-.02-.41-.04-.54-.04-.13,0-.32,0-.59,0h-2.06v3.05Z"/>
    <path class="cls-8" d="M664.82,319.7h-1.03v-8.54h1.03v8.54Z"/>
    <path class="cls-8" d="M671.3,314.19c.52.57.78,1.36.78,2.39s-.26,1.86-.78,2.45c-.52.58-1.25.88-2.19.88s-1.68-.29-2.22-.86c-.54-.58-.8-1.38-.8-2.4s.27-1.82.82-2.41c.54-.59,1.28-.89,2.22-.89s1.66.28,2.18.85ZM667.66,314.85c-.35.44-.53,1.03-.53,1.76s.17,1.35.52,1.78.83.64,1.46.64,1.07-.22,1.41-.65.51-1.03.51-1.79-.17-1.32-.52-1.76c-.35-.44-.82-.65-1.42-.65s-1.08.22-1.43.66Z"/>
    <path class="cls-8" d="M678.19,314.19c.52.57.78,1.36.78,2.39s-.26,1.86-.78,2.45c-.52.58-1.25.88-2.19.88s-1.68-.29-2.22-.86c-.54-.58-.8-1.38-.8-2.4s.27-1.82.82-2.41c.54-.59,1.28-.89,2.22-.89s1.66.28,2.18.85ZM674.55,314.85c-.35.44-.53,1.03-.53,1.76s.17,1.35.52,1.78.83.64,1.46.64,1.07-.22,1.41-.65.51-1.03.51-1.79-.17-1.32-.52-1.76c-.35-.44-.82-.65-1.42-.65s-1.08.22-1.43.66Z"/>
    <path class="cls-8" d="M685.76,319.7h-.96v-.91c-.39.72-1.07,1.08-2.04,1.08-.88,0-1.58-.29-2.09-.88s-.77-1.38-.77-2.39c0-.94.24-1.71.73-2.33.48-.62,1.18-.93,2.09-.93s1.56.34,2.03,1.01v-3.18h1.02v8.54ZM681.46,314.85c-.34.42-.51,1-.51,1.73s.17,1.35.52,1.79c.35.44.81.67,1.4.67s1.06-.21,1.39-.64c.34-.43.5-1.02.5-1.78,0-.68-.16-1.25-.47-1.71-.32-.46-.8-.69-1.45-.69-.58,0-1.05.21-1.39.64Z"/>
    <path class="cls-8" d="M694.37,311.17c.87,0,1.56.2,2.08.59.51.4.77,1.02.77,1.86,0,1.72-.97,2.58-2.91,2.58h-2.31v3.5h-1.13v-8.54h3.51ZM691.99,315.26h2.17c.61,0,1.08-.11,1.42-.34.34-.23.51-.63.51-1.22,0-.33-.05-.6-.16-.82s-.27-.38-.47-.48c-.21-.1-.42-.17-.65-.21-.22-.04-.49-.05-.8-.05h-2.01v3.12Z"/>
    <path class="cls-8" d="M701.63,314.43c-.07,0-.16-.01-.26-.01-.33,0-.61.05-.85.15-.24.1-.43.23-.57.39-.14.16-.25.36-.34.6-.09.24-.15.48-.17.72-.03.24-.04.51-.04.82v2.61h-1.02v-6.19h.97v1.33c.41-.98,1.17-1.47,2.29-1.47v1.05Z"/>
    <path class="cls-8" d="M704.78,319.91c-.91,0-1.63-.28-2.14-.85s-.77-1.36-.77-2.36.27-1.81.8-2.43c.53-.62,1.23-.93,2.08-.93.95,0,1.66.32,2.12.96.46.64.69,1.46.69,2.44v.14h-4.65v.07c-.01.66.16,1.17.5,1.55s.82.56,1.42.56c.45,0,.8-.1,1.06-.31s.46-.54.61-1.01h1c-.31,1.44-1.21,2.16-2.7,2.16ZM705.95,314.67c-.31-.33-.72-.5-1.24-.5s-.91.17-1.24.5c-.33.34-.52.8-.59,1.38h3.6c-.05-.59-.23-1.05-.54-1.38Z"/>
    <path class="cls-8" d="M712.21,315.31c-.06-.75-.57-1.13-1.51-1.13-.39,0-.7.08-.92.23-.22.15-.34.36-.34.61,0,.07,0,.14.02.21.02.07.05.13.09.18.04.05.08.1.12.14.04.04.1.08.18.11s.15.07.19.09c.04.02.12.05.24.08.12.03.2.05.25.06.05.01.14.03.28.07.14.03.23.05.27.06.3.06.52.12.67.16s.35.11.61.22c.26.11.46.22.59.34.14.12.26.28.37.48.11.2.16.43.16.69,0,.6-.23,1.08-.7,1.45-.47.36-1.09.54-1.86.54-.84,0-1.49-.18-1.94-.55-.45-.37-.69-.9-.73-1.6h1.01c.06.87.62,1.31,1.68,1.31.46,0,.82-.09,1.1-.28.28-.19.41-.44.41-.75,0-.21-.07-.38-.22-.52-.14-.14-.3-.23-.48-.29-.18-.06-.43-.13-.76-.21-.05,0-.08-.02-.11-.02-.07-.02-.23-.05-.46-.1s-.41-.09-.51-.13-.25-.08-.45-.15c-.2-.07-.34-.14-.44-.22-.1-.08-.2-.17-.32-.29-.12-.12-.2-.25-.25-.41s-.07-.33-.07-.53c0-.56.21-1,.64-1.33s1-.49,1.72-.49,1.32.17,1.78.52c.46.34.69.83.69,1.46h-1.02Z"/>
    <path class="cls-8" d="M718.21,315.31c-.06-.75-.57-1.13-1.51-1.13-.39,0-.7.08-.92.23-.22.15-.34.36-.34.61,0,.07,0,.14.02.21.02.07.05.13.09.18.04.05.08.1.12.14.04.04.1.08.18.11s.15.07.19.09c.04.02.12.05.24.08.12.03.2.05.25.06.05.01.14.03.28.07.14.03.23.05.27.06.3.06.52.12.67.16s.35.11.61.22c.26.11.46.22.59.34.14.12.26.28.37.48.11.2.16.43.16.69,0,.6-.23,1.08-.7,1.45-.47.36-1.09.54-1.86.54-.84,0-1.49-.18-1.94-.55-.45-.37-.69-.9-.73-1.6h1.01c.06.87.62,1.31,1.68,1.31.46,0,.82-.09,1.1-.28.28-.19.41-.44.41-.75,0-.21-.07-.38-.22-.52-.14-.14-.3-.23-.48-.29-.18-.06-.43-.13-.76-.21-.05,0-.08-.02-.11-.02-.07-.02-.23-.05-.46-.1s-.41-.09-.51-.13-.25-.08-.45-.15c-.2-.07-.34-.14-.44-.22-.1-.08-.2-.17-.32-.29-.12-.12-.2-.25-.25-.41s-.07-.33-.07-.53c0-.56.21-1,.64-1.33s1-.49,1.72-.49,1.32.17,1.78.52c.46.34.69.83.69,1.46h-1.02Z"/>
    <path class="cls-8" d="M725.77,319.7h-.95v-.97c-.53.76-1.24,1.14-2.13,1.14-.66,0-1.16-.18-1.52-.54-.36-.36-.54-.88-.54-1.56v-4.26h1.02v3.98c0,.49.09.86.28,1.11.19.25.53.38,1.01.38,1.21,0,1.81-.74,1.81-2.23v-3.24h1.02v6.19Z"/>
    <path class="cls-8" d="M730.53,314.43c-.07,0-.16-.01-.26-.01-.33,0-.61.05-.85.15-.24.1-.43.23-.57.39-.14.16-.25.36-.34.6-.09.24-.15.48-.17.72-.03.24-.04.51-.04.82v2.61h-1.02v-6.19h.97v1.33c.41-.98,1.17-1.47,2.29-1.47v1.05Z"/>
    <path class="cls-8" d="M733.67,319.91c-.91,0-1.63-.28-2.14-.85s-.77-1.36-.77-2.36.27-1.81.8-2.43c.53-.62,1.23-.93,2.08-.93.95,0,1.66.32,2.12.96.46.64.69,1.46.69,2.44v.14h-4.65v.07c-.01.66.16,1.17.5,1.55s.82.56,1.42.56c.45,0,.8-.1,1.06-.31s.46-.54.61-1.01h1c-.31,1.44-1.21,2.16-2.7,2.16ZM734.85,314.67c-.31-.33-.72-.5-1.24-.5s-.91.17-1.24.5c-.33.34-.52.8-.59,1.38h3.6c-.05-.59-.23-1.05-.54-1.38Z"/>
    <path class="cls-8" d="M746,313.67c-.12-1.16-.83-1.74-2.12-1.74-.62,0-1.09.12-1.43.37-.34.25-.5.6-.5,1.04,0,.16.02.3.07.42s.13.23.25.32c.12.09.23.17.33.23.1.06.27.13.49.19.22.06.4.11.54.14.14.03.35.07.64.14.35.07.64.14.88.2.23.06.51.16.83.29s.57.29.76.45.35.38.49.65c.14.27.21.58.21.92,0,.6-.17,1.1-.5,1.5-.34.4-.74.69-1.22.85-.48.16-1.01.24-1.6.24-1.07,0-1.93-.25-2.57-.76s-.97-1.26-.97-2.25h1.09c.02.73.27,1.26.73,1.59.46.33,1.07.5,1.81.5.58,0,1.08-.12,1.5-.37.42-.24.62-.64.62-1.19,0-.26-.06-.47-.17-.65s-.29-.33-.53-.44c-.24-.12-.48-.21-.72-.28-.24-.07-.56-.15-.95-.24-.06,0-.1-.02-.12-.02-.88-.2-1.46-.36-1.73-.48-.83-.36-1.25-.98-1.25-1.86,0-.82.3-1.43.91-1.83.6-.4,1.33-.61,2.19-.61.94,0,1.68.22,2.24.67.56.45.86,1.12.89,2h-1.09Z"/>
    <path class="cls-8" d="M749.6,314.39c.45-.71,1.14-1.07,2.09-1.07.86,0,1.55.29,2.06.88.51.58.76,1.38.76,2.38s-.25,1.8-.75,2.39-1.17.89-2.02.89-1.58-.34-2.07-1.02v3.25h-1.02v-8.58h.96v.88ZM750.13,314.82c-.34.43-.51,1.02-.51,1.77s.17,1.34.52,1.77c.35.43.82.64,1.42.64s1.04-.22,1.38-.65.5-1.02.5-1.76-.17-1.34-.51-1.77-.81-.64-1.41-.64-1.06.21-1.4.64Z"/>
    <path class="cls-8" d="M756.83,312.41h-1.03v-1.25h1.03v1.25ZM756.83,319.7h-1.03v-6.19h1.03v6.19Z"/>
    <path class="cls-8" d="M761.17,315.76l2.64,3.95h-1.3l-2.12-3.24-.97.9v2.34h-1v-8.54h1v5.05l2.84-2.7h1.37l-2.46,2.24Z"/>
    <path class="cls-8" d="M767.24,319.91c-.91,0-1.63-.28-2.14-.85s-.77-1.36-.77-2.36.27-1.81.8-2.43c.53-.62,1.23-.93,2.08-.93.95,0,1.66.32,2.12.96.46.64.69,1.46.69,2.44v.14h-4.65v.07c-.01.66.16,1.17.5,1.55s.82.56,1.42.56c.45,0,.8-.1,1.06-.31s.46-.54.61-1.01h1c-.31,1.44-1.21,2.16-2.7,2.16ZM768.41,314.67c-.31-.33-.72-.5-1.24-.5s-.91.17-1.24.5c-.33.34-.52.8-.59,1.38h3.6c-.05-.59-.23-1.05-.54-1.38Z"/>
    <path class="cls-8" d="M774.67,315.31c-.06-.75-.57-1.13-1.51-1.13-.39,0-.7.08-.92.23-.22.15-.34.36-.34.61,0,.07,0,.14.02.21.02.07.05.13.09.18.04.05.08.1.12.14.04.04.1.08.18.11s.15.07.19.09c.04.02.12.05.24.08.12.03.2.05.25.06.05.01.14.03.28.07.14.03.23.05.27.06.3.06.52.12.67.16s.35.11.61.22c.26.11.46.22.59.34.14.12.26.28.37.48.11.2.16.43.16.69,0,.6-.23,1.08-.7,1.45-.47.36-1.09.54-1.86.54-.84,0-1.49-.18-1.94-.55-.45-.37-.69-.9-.73-1.6h1.01c.06.87.62,1.31,1.68,1.31.46,0,.82-.09,1.1-.28.28-.19.41-.44.41-.75,0-.21-.07-.38-.22-.52-.14-.14-.3-.23-.48-.29-.18-.06-.43-.13-.76-.21-.05,0-.08-.02-.11-.02-.07-.02-.23-.05-.46-.1s-.41-.09-.51-.13-.25-.08-.45-.15c-.2-.07-.34-.14-.44-.22-.1-.08-.2-.17-.32-.29-.12-.12-.2-.25-.25-.41s-.07-.33-.07-.53c0-.56.21-1,.64-1.33s1-.49,1.72-.49,1.32.17,1.78.52c.46.34.69.83.69,1.46h-1.02Z"/>
  </g>
  <g>
    <path class="cls-8" d="M1078.52,311.17l2.75,7.23,2.65-7.23h1.57v8.54h-1.07v-7.12l-2.67,7.12h-.98l-2.72-7.12v7.12h-1.08v-8.54h1.56Z"/>
    <path class="cls-8" d="M1088.3,312.41h-1.03v-1.25h1.03v1.25ZM1088.3,319.7h-1.03v-6.19h1.03v6.19Z"/>
    <path class="cls-8" d="M1093.46,315.31c-.06-.75-.57-1.13-1.51-1.13-.39,0-.7.08-.92.23s-.34.36-.34.61c0,.07,0,.14.02.21.02.07.05.13.09.18.04.05.08.1.12.14.04.04.1.08.18.11s.15.07.19.09c.04.02.12.05.24.08.12.03.2.05.25.06.05.01.14.03.28.07.14.03.23.05.27.06.3.06.52.12.67.16.15.04.35.11.61.22.26.11.46.22.59.34.14.12.26.28.37.48.11.2.16.43.16.69,0,.6-.23,1.08-.7,1.45-.47.36-1.09.54-1.86.54-.84,0-1.49-.18-1.94-.55-.45-.37-.69-.9-.73-1.6h1.01c.06.87.62,1.31,1.68,1.31.46,0,.82-.09,1.1-.28.28-.19.41-.44.41-.75,0-.21-.07-.38-.22-.52-.14-.14-.3-.23-.48-.29-.18-.06-.43-.13-.75-.21-.05,0-.08-.02-.11-.02-.07-.02-.23-.05-.46-.1-.24-.05-.41-.09-.51-.13-.1-.03-.25-.08-.45-.15-.2-.07-.34-.14-.44-.22-.1-.08-.2-.17-.32-.29-.12-.12-.2-.25-.25-.41s-.07-.33-.07-.53c0-.56.21-1,.64-1.33s1-.49,1.72-.49,1.32.17,1.78.52.69.83.69,1.46h-1.02Z"/>
    <path class="cls-8" d="M1099.46,315.31c-.06-.75-.57-1.13-1.51-1.13-.39,0-.7.08-.92.23s-.34.36-.34.61c0,.07,0,.14.02.21.02.07.05.13.09.18.04.05.08.1.12.14.04.04.1.08.18.11s.15.07.19.09c.04.02.12.05.24.08.12.03.2.05.25.06.05.01.14.03.28.07.14.03.23.05.27.06.3.06.52.12.67.16.15.04.35.11.61.22.26.11.46.22.59.34.14.12.26.28.37.48.11.2.16.43.16.69,0,.6-.23,1.08-.7,1.45-.47.36-1.09.54-1.86.54-.84,0-1.49-.18-1.94-.55-.45-.37-.69-.9-.73-1.6h1.01c.06.87.62,1.31,1.68,1.31.46,0,.82-.09,1.1-.28.28-.19.41-.44.41-.75,0-.21-.07-.38-.22-.52-.14-.14-.3-.23-.48-.29-.18-.06-.43-.13-.75-.21-.05,0-.08-.02-.11-.02-.07-.02-.23-.05-.46-.1-.24-.05-.41-.09-.51-.13-.1-.03-.25-.08-.45-.15-.2-.07-.34-.14-.44-.22-.1-.08-.2-.17-.32-.29-.12-.12-.2-.25-.25-.41s-.07-.33-.07-.53c0-.56.21-1,.64-1.33s1-.49,1.72-.49,1.32.17,1.78.52.69.83.69,1.46h-1.02Z"/>
    <path class="cls-8" d="M1104.47,319.91c-.91,0-1.62-.28-2.14-.85s-.77-1.36-.77-2.36.27-1.81.8-2.43c.53-.62,1.23-.93,2.08-.93.95,0,1.66.32,2.12.96s.69,1.46.69,2.44v.14h-4.65v.07c-.01.66.16,1.17.5,1.55s.82.56,1.42.56c.45,0,.8-.1,1.06-.31s.46-.54.61-1.01h1c-.31,1.44-1.21,2.16-2.7,2.16ZM1105.65,314.67c-.31-.33-.72-.5-1.24-.5s-.91.17-1.24.5c-.33.34-.52.8-.59,1.38h3.6c-.05-.59-.23-1.05-.54-1.38Z"/>
    <path class="cls-8" d="M1113.9,319.7h-.96v-.91c-.39.72-1.07,1.08-2.04,1.08-.88,0-1.58-.29-2.09-.88s-.77-1.38-.77-2.39c0-.94.24-1.71.73-2.33.48-.62,1.18-.93,2.09-.93s1.56.34,2.03,1.01v-3.18h1.02v8.54ZM1109.6,314.85c-.34.42-.51,1-.51,1.73s.17,1.35.52,1.79c.35.44.81.67,1.4.67s1.06-.21,1.39-.64c.34-.43.5-1.02.5-1.78,0-.68-.16-1.25-.47-1.71-.32-.46-.8-.69-1.45-.69-.58,0-1.04.21-1.38.64Z"/>
    <path class="cls-8" d="M1120.53,311.17l2.75,7.23,2.65-7.23h1.57v8.54h-1.07v-7.12l-2.67,7.12h-.98l-2.72-7.12v7.12h-1.08v-8.54h1.56Z"/>
    <path class="cls-8" d="M1131.82,319.91c-.91,0-1.62-.28-2.14-.85s-.77-1.36-.77-2.36.27-1.81.8-2.43c.53-.62,1.23-.93,2.08-.93.95,0,1.66.32,2.12.96s.69,1.46.69,2.44v.14h-4.65v.07c-.01.66.16,1.17.5,1.55s.82.56,1.42.56c.45,0,.8-.1,1.06-.31s.46-.54.61-1.01h1c-.31,1.44-1.21,2.16-2.7,2.16ZM1133,314.67c-.31-.33-.72-.5-1.24-.5s-.91.17-1.24.5c-.33.34-.52.8-.59,1.38h3.6c-.05-.59-.23-1.05-.54-1.38Z"/>
    <path class="cls-8" d="M1141.25,319.7h-.96v-.91c-.39.72-1.07,1.08-2.04,1.08-.88,0-1.58-.29-2.09-.88s-.77-1.38-.77-2.39c0-.94.24-1.71.73-2.33.48-.62,1.18-.93,2.09-.93s1.56.34,2.03,1.01v-3.18h1.02v8.54ZM1136.95,314.85c-.34.42-.51,1-.51,1.73s.17,1.35.52,1.79c.35.44.81.67,1.4.67s1.06-.21,1.39-.64c.34-.43.5-1.02.5-1.78,0-.68-.16-1.25-.47-1.71-.32-.46-.8-.69-1.45-.69-.58,0-1.04.21-1.38.64Z"/>
    <path class="cls-8" d="M1143.87,312.41h-1.03v-1.25h1.03v1.25ZM1143.87,319.7h-1.03v-6.19h1.03v6.19Z"/>
    <path class="cls-8" d="M1149.93,319.22c-.48.44-1.09.66-1.85.66-.94,0-1.66-.29-2.17-.87-.51-.58-.77-1.35-.77-2.32,0-1.03.27-1.85.8-2.45.54-.6,1.26-.91,2.17-.91.76,0,1.37.19,1.82.57s.72.92.8,1.62h-1.06c-.18-.9-.7-1.34-1.56-1.34-.59,0-1.06.22-1.4.65-.34.44-.52,1.03-.52,1.77s.16,1.34.49,1.78.78.65,1.36.65c.46,0,.84-.14,1.13-.41.29-.27.48-.66.56-1.18h1.03c-.09.74-.37,1.33-.85,1.78Z"/>
    <path class="cls-8" d="M1157.38,319.68c-.21.08-.44.12-.7.12-.58,0-.88-.3-.9-.91-.58.66-1.33.98-2.24.98-.61,0-1.09-.16-1.45-.47s-.53-.74-.53-1.28c0-1.1.73-1.75,2.2-1.93.1-.02.24-.03.42-.05.7-.08,1.12-.17,1.28-.28.18-.13.28-.35.28-.66,0-.68-.47-1.02-1.4-1.02-.48,0-.84.1-1.09.29-.25.2-.4.52-.44.96h-1c.02-.66.25-1.18.71-1.55.46-.37,1.08-.55,1.88-.55.87,0,1.52.2,1.94.6.14.13.24.3.3.5.06.21.1.38.11.51s.01.33.01.59c0,.3,0,.76-.02,1.38-.02.62-.02,1.08-.02,1.38,0,.22.03.38.09.47.06.09.17.14.33.14.06,0,.15-.01.25-.04v.79ZM1155.51,316.63c-.08.04-.18.07-.31.1-.12.02-.21.04-.25.05-.04.01-.15.03-.32.05-.17.02-.26.03-.26.03-.25.03-.41.05-.49.07s-.22.05-.43.1c-.21.06-.36.12-.45.19s-.17.18-.26.32c-.08.14-.13.31-.13.5,0,.32.11.57.33.76.22.18.52.28.91.28.49,0,.92-.14,1.31-.43s.58-.63.58-1.02v-1.13c-.07.06-.15.1-.23.14Z"/>
    <path class="cls-8" d="M1160.99,314.36h-1.24v3.61c0,.2,0,.33,0,.4,0,.06.03.15.07.26.04.11.11.18.2.21.1.03.23.05.41.05.15,0,.34-.01.55-.04v.88c-.29.03-.55.05-.78.05-.29,0-.53-.03-.72-.1-.19-.06-.34-.14-.44-.22-.1-.08-.17-.22-.22-.43s-.08-.38-.08-.52-.01-.37-.01-.7v-3.45h-1.04v-.84h1.04v-1.83h1.02v1.83h1.24v.84Z"/>
    <path class="cls-8" d="M1163.2,312.41h-1.03v-1.25h1.03v1.25ZM1163.2,319.7h-1.03v-6.19h1.03v6.19Z"/>
    <path class="cls-8" d="M1169.68,314.19c.52.57.78,1.36.78,2.39s-.26,1.86-.78,2.45-1.25.88-2.19.88-1.68-.29-2.22-.86c-.54-.58-.8-1.38-.8-2.4s.27-1.82.82-2.41c.54-.59,1.28-.89,2.22-.89s1.66.28,2.18.85ZM1166.04,314.85c-.35.44-.53,1.03-.53,1.76s.17,1.35.52,1.78c.35.43.83.64,1.46.64s1.07-.22,1.41-.65.51-1.03.51-1.79-.17-1.32-.52-1.76c-.35-.44-.82-.65-1.42-.65s-1.08.22-1.43.66Z"/>
    <path class="cls-8" d="M1172.63,314.47c.51-.75,1.21-1.13,2.11-1.13.73,0,1.25.19,1.58.57.32.38.49.94.49,1.67v4.11h-1.02v-3.65c0-.3-.01-.54-.03-.71s-.07-.36-.15-.55c-.08-.2-.22-.34-.41-.43-.19-.09-.44-.13-.74-.13-1.17,0-1.76.74-1.76,2.23v3.24h-1.02v-6.19h.96v.96Z"/>
  </g>
  <g>
    <path class="cls-8" d="M1503.67,311.05c1.45,0,2.51.34,3.2,1.01.69.67,1.03,1.74,1.03,3.19s-.32,2.51-.96,3.24-1.66,1.1-3.07,1.1h-2.99v-8.54h2.78ZM1502.02,318.62h1.71c1.07,0,1.85-.26,2.33-.79.48-.52.73-1.34.73-2.45,0-1.17-.24-2.02-.71-2.55-.47-.54-1.27-.8-2.4-.8h-1.67v6.6Z"/>
    <path class="cls-8" d="M1511.75,319.8c-.91,0-1.63-.28-2.14-.85s-.77-1.36-.77-2.36.27-1.81.8-2.43c.53-.62,1.23-.93,2.08-.93.95,0,1.66.32,2.12.96.46.64.69,1.46.69,2.44v.14h-4.65v.07c-.01.66.16,1.17.5,1.55s.82.56,1.42.56c.45,0,.8-.1,1.06-.31s.46-.54.61-1.01h1c-.31,1.44-1.21,2.16-2.7,2.16ZM1512.92,314.56c-.31-.33-.72-.5-1.24-.5s-.91.17-1.24.5-.52.8-.59,1.38h3.6c-.05-.59-.23-1.05-.54-1.38Z"/>
    <path class="cls-8" d="M1516.14,313.4l1.75,5.19,1.7-5.19h1.07l-2.27,6.19h-1.09l-2.3-6.19h1.14Z"/>
    <path class="cls-8" d="M1522.68,312.3h-1.03v-1.25h1.03v1.25ZM1522.68,319.59h-1.03v-6.19h1.03v6.19Z"/>
    <path class="cls-8" d="M1528.74,319.11c-.48.44-1.09.66-1.85.66-.94,0-1.66-.29-2.17-.87-.51-.58-.77-1.35-.77-2.32,0-1.03.27-1.85.8-2.45.54-.6,1.26-.91,2.17-.91.76,0,1.37.19,1.82.57.46.38.72.92.8,1.62h-1.05c-.18-.9-.7-1.34-1.56-1.34-.59,0-1.06.22-1.4.65s-.52,1.03-.52,1.77.16,1.34.49,1.78c.33.43.78.65,1.35.65.46,0,.84-.14,1.13-.41.29-.27.48-.66.56-1.18h1.03c-.09.74-.37,1.33-.85,1.78Z"/>
    <path class="cls-8" d="M1533.3,319.8c-.91,0-1.63-.28-2.14-.85s-.77-1.36-.77-2.36.27-1.81.8-2.43c.53-.62,1.23-.93,2.08-.93.95,0,1.66.32,2.12.96.46.64.69,1.46.69,2.44v.14h-4.65v.07c-.01.66.16,1.17.5,1.55s.82.56,1.42.56c.45,0,.8-.1,1.06-.31s.46-.54.61-1.01h1c-.31,1.44-1.21,2.16-2.7,2.16ZM1534.47,314.56c-.31-.33-.72-.5-1.24-.5s-.91.17-1.24.5-.52.8-.59,1.38h3.6c-.05-.59-.23-1.05-.54-1.38Z"/>
    <path class="cls-8" d="M1547.29,312.07c.72.81,1.08,1.87,1.08,3.18s-.36,2.41-1.07,3.26-1.72,1.28-3.02,1.28c-.66,0-1.26-.12-1.79-.36-.53-.24-.96-.57-1.29-1s-.58-.91-.76-1.45-.26-1.13-.26-1.76c0-1.34.37-2.4,1.11-3.19.74-.79,1.73-1.19,2.97-1.19s2.3.41,3.02,1.22ZM1542.08,312.83c-.51.67-.76,1.49-.76,2.48,0,1.07.27,1.92.81,2.56.54.64,1.26.95,2.16.95s1.61-.32,2.15-.96c.54-.64.8-1.49.8-2.55s-.27-1.9-.81-2.53c-.54-.63-1.26-.95-2.17-.95-.95,0-1.68.33-2.19,1Z"/>
    <path class="cls-8" d="M1552.4,311.92c-.18-.03-.36-.05-.56-.05-.32,0-.53.05-.63.16-.1.1-.15.33-.15.67v.71h1.19v.84h-1.19v5.35h-1.03v-5.35h-1.04v-.84h1.04v-.83c0-.56.14-.96.43-1.22s.72-.38,1.28-.38c.18,0,.4.02.66.05v.89Z"/>
    <path class="cls-8" d="M1555.74,311.92c-.18-.03-.36-.05-.56-.05-.32,0-.53.05-.63.16-.1.1-.15.33-.15.67v.71h1.19v.84h-1.19v5.35h-1.03v-5.35h-1.04v-.84h1.04v-.83c0-.56.14-.96.43-1.22s.72-.38,1.28-.38c.18,0,.4.02.66.05v.89Z"/>
    <path class="cls-8" d="M1557.58,319.59h-1.03v-8.54h1.03v8.54Z"/>
    <path class="cls-8" d="M1560.24,312.3h-1.03v-1.25h1.03v1.25ZM1560.24,319.59h-1.03v-6.19h1.03v6.19Z"/>
    <path class="cls-8" d="M1562.78,314.36c.51-.75,1.22-1.13,2.11-1.13.73,0,1.25.19,1.58.57.32.38.49.94.49,1.67v4.11h-1.02v-3.65c0-.3,0-.54-.03-.71-.02-.17-.07-.36-.15-.55-.08-.2-.22-.34-.41-.43-.19-.09-.44-.13-.74-.13-1.18,0-1.76.74-1.76,2.23v3.24h-1.02v-6.19h.96v.96Z"/>
    <path class="cls-8" d="M1571.09,319.8c-.91,0-1.63-.28-2.14-.85s-.77-1.36-.77-2.36.27-1.81.8-2.43c.53-.62,1.23-.93,2.08-.93.95,0,1.66.32,2.12.96.46.64.69,1.46.69,2.44v.14h-4.65v.07c-.01.66.16,1.17.5,1.55s.82.56,1.42.56c.45,0,.8-.1,1.06-.31s.46-.54.61-1.01h1c-.31,1.44-1.21,2.16-2.7,2.16ZM1572.26,314.56c-.31-.33-.72-.5-1.24-.5s-.91.17-1.24.5-.52.8-.59,1.38h3.6c-.05-.59-.23-1.05-.54-1.38Z"/>
  </g>
  <g>
    <path class="cls-8" d="M1755.02,299.36h-1.26l-.95-2.61h-3.59l-.97,2.61h-1.2l3.36-8.54h1.27l3.33,8.54ZM1751.02,291.9l-1.47,3.95h2.93l-1.45-3.95Z"/>
    <path class="cls-8" d="M1756.77,299.36h-1.03v-8.54h1.03v8.54Z"/>
    <path class="cls-8" d="M1760.95,299.56c-.91,0-1.63-.28-2.14-.85s-.77-1.36-.77-2.36.27-1.81.8-2.43c.53-.62,1.23-.93,2.08-.93.95,0,1.66.32,2.12.96.46.64.69,1.46.69,2.44v.14h-4.65v.07c-.01.66.16,1.17.5,1.55s.82.56,1.42.56c.45,0,.8-.1,1.06-.31s.46-.54.61-1.01h1c-.31,1.44-1.21,2.16-2.7,2.16ZM1762.12,294.33c-.31-.33-.72-.5-1.24-.5s-.91.17-1.24.5-.52.8-.59,1.38h3.6c-.05-.59-.23-1.05-.54-1.38Z"/>
    <path class="cls-8" d="M1768.03,294.08c-.07,0-.16-.01-.26-.01-.33,0-.61.05-.85.15-.24.1-.43.23-.57.39-.14.16-.25.36-.34.6-.09.24-.15.48-.17.72-.03.24-.04.51-.04.82v2.61h-1.02v-6.19h.97v1.33c.41-.98,1.17-1.47,2.29-1.47v1.05Z"/>
    <path class="cls-8" d="M1771.45,294.01h-1.24v3.61c0,.2,0,.33,0,.4,0,.06.03.15.07.26.04.11.11.18.2.21.1.03.23.05.41.05.15,0,.34-.01.55-.04v.88c-.29.03-.55.05-.78.05-.29,0-.53-.03-.72-.1-.19-.06-.34-.14-.44-.22-.1-.08-.17-.22-.22-.43s-.08-.38-.08-.52c0-.14-.01-.37-.01-.7v-3.45h-1.04v-.84h1.04v-1.83h1.02v1.83h1.24v.84Z"/>
    <path class="cls-8" d="M1782.02,291.8h-2.87v7.56h-1.13v-7.56h-2.87v-.98h6.86v.98Z"/>
    <path class="cls-8" d="M1783.94,300.15c-.1.28-.19.5-.27.65-.08.16-.18.33-.32.52-.14.19-.31.32-.5.41s-.43.12-.69.12c-.2,0-.45-.04-.76-.11v-.91c.3.09.52.13.66.13.33,0,.58-.17.72-.52l.48-1.13-2.46-6.15h1.15l1.83,4.93,1.74-4.93h1.07l-2.65,6.98Z"/>
    <path class="cls-8" d="M1788.43,294.05c.45-.71,1.14-1.07,2.09-1.07.86,0,1.55.29,2.06.88.51.58.76,1.38.76,2.38s-.25,1.8-.75,2.39c-.5.6-1.17.89-2.02.89s-1.58-.34-2.07-1.02v3.25h-1.02v-8.58h.96v.88ZM1788.96,294.47c-.34.43-.51,1.02-.51,1.77s.17,1.34.52,1.77.82.64,1.42.64,1.04-.22,1.38-.65.5-1.02.5-1.76-.17-1.34-.51-1.77-.81-.64-1.41-.64-1.06.21-1.4.64Z"/>
    <path class="cls-8" d="M1797.18,299.56c-.91,0-1.62-.28-2.14-.85s-.77-1.36-.77-2.36.27-1.81.8-2.43c.53-.62,1.23-.93,2.08-.93.95,0,1.66.32,2.12.96s.69,1.46.69,2.44v.14h-4.65v.07c-.01.66.16,1.17.5,1.55s.82.56,1.42.56c.45,0,.8-.1,1.06-.31s.46-.54.61-1.01h1c-.31,1.44-1.21,2.16-2.7,2.16ZM1798.35,294.33c-.31-.33-.72-.5-1.24-.5s-.91.17-1.24.5c-.33.34-.52.8-.59,1.38h3.6c-.05-.59-.23-1.05-.54-1.38Z"/>
  </g>
  <g>
    <path class="cls-8" d="M81.56,58.97h-5.66v-8.54h1.13v7.56h4.53v.98Z"/>
    <path class="cls-8" d="M87.27,53.45c.52.57.78,1.36.78,2.39s-.26,1.86-.78,2.45c-.52.58-1.25.88-2.19.88s-1.68-.29-2.22-.86c-.54-.58-.8-1.38-.8-2.4s.27-1.82.82-2.41c.54-.59,1.28-.89,2.22-.89s1.66.28,2.18.85ZM83.64,54.11c-.35.44-.53,1.03-.53,1.76s.17,1.35.52,1.78.83.64,1.46.64,1.07-.22,1.41-.65.51-1.03.51-1.79-.17-1.32-.52-1.76c-.35-.44-.82-.65-1.42-.65s-1.08.22-1.43.66Z"/>
    <path class="cls-8" d="M89.83,52.78l1.42,5.1,1.26-5.1h1.12l1.31,5.1,1.4-5.1h1.06l-1.98,6.19h-1.08l-1.27-4.89-1.26,4.89h-1.1l-1.99-6.19h1.13Z"/>
  </g>
  <line class="cls-1" x1="121.94" y1="295.76" x2="121.94" y2="302.77"/>
  <line class="cls-1" x1="121.95" y1="295.98" x2="113.93" y2="295.98"/>
  <line class="cls-1" x1="1727.49" y1="296.25" x2="1727.49" y2="302.77"/>
  <g>
    <path class="cls-8" d="M3.57,230.14c0-.87.2-1.56.59-2.08.4-.51,1.02-.77,1.86-.77,1.72,0,2.58.97,2.58,2.91v2.31h3.5v1.13H3.57v-3.51ZM7.66,232.52v-2.17c0-.61-.11-1.08-.34-1.42-.23-.34-.63-.51-1.22-.51-.33,0-.6.05-.82.16-.22.11-.38.27-.48.47-.1.21-.17.42-.21.65-.04.22-.05.49-.05.8v2.01h3.12Z"/>
    <path class="cls-8" d="M6.84,222.88c0,.07-.01.16-.01.26,0,.33.05.61.15.85.1.24.23.43.39.57.16.14.36.25.6.34.24.09.48.15.72.17.24.03.51.04.82.04h2.61v1.02h-6.19v-.97h1.33c-.98-.41-1.47-1.17-1.47-2.29h1.05Z"/>
    <path class="cls-8" d="M4.82,221.03v1.03h-1.25v-1.03h1.25ZM12.11,221.03v1.03h-6.19v-1.03h6.19Z"/>
    <path class="cls-8" d="M6.6,214.55c.57-.52,1.36-.78,2.39-.78s1.86.26,2.45.78.88,1.25.88,2.19-.29,1.68-.86,2.22c-.58.54-1.38.8-2.4.8s-1.82-.27-2.41-.82c-.59-.54-.89-1.28-.89-2.22s.28-1.66.85-2.18ZM7.26,218.18c.44.35,1.03.53,1.76.53s1.35-.17,1.78-.52.64-.83.64-1.46-.22-1.07-.65-1.41-1.03-.51-1.79-.51-1.32.17-1.76.52-.65.82-.65,1.42.22,1.07.66,1.43Z"/>
    <path class="cls-8" d="M6.84,209.33c0,.07-.01.16-.01.26,0,.33.05.61.15.85.1.24.23.43.39.57.16.14.36.25.6.34.24.09.48.15.72.17.24.03.51.04.82.04h2.61v1.02h-6.19v-.97h1.33c-.98-.41-1.47-1.17-1.47-2.29h1.05Z"/>
    <path class="cls-8" d="M4.82,207.48v1.03h-1.25v-1.03h1.25ZM12.11,207.48v1.03h-6.19v-1.03h6.19Z"/>
    <path class="cls-8" d="M6.76,203.24v1.23h3.61c.2,0,.33,0,.4,0,.06,0,.15-.03.26-.07.11-.04.18-.11.21-.2.03-.1.05-.23.05-.41,0-.15-.01-.34-.04-.55h.88c.03.29.05.55.05.78,0,.29-.03.53-.1.72-.06.19-.14.34-.22.44-.08.1-.22.17-.43.22s-.38.08-.52.08-.37.01-.7.01h-3.45v1.04h-.84v-1.04h-1.83v-1.02h1.83v-1.23h.84Z"/>
    <path class="cls-8" d="M12.91,199.64c.28.1.5.19.65.27.16.08.33.18.52.32s.32.31.41.5.12.43.12.69c0,.2-.04.45-.11.75h-.91c.09-.29.13-.52.13-.66,0-.33-.17-.58-.52-.72l-1.13-.48-6.15,2.46v-1.15l4.93-1.84-4.93-1.74v-1.07l6.98,2.65Z"/>
    <path class="cls-8" d="M12.11,186.93v5.66H3.57v-1.13h7.56v-4.53h.98Z"/>
    <path class="cls-8" d="M12.32,183.52c0,.91-.28,1.62-.85,2.14s-1.36.77-2.36.77-1.81-.27-2.43-.8c-.62-.53-.93-1.23-.93-2.08,0-.95.32-1.66.96-2.12.64-.46,1.46-.69,2.44-.69h.14v4.65h.07c.66.01,1.17-.16,1.55-.5s.56-.81.56-1.41c0-.45-.1-.8-.31-1.06s-.54-.46-1.01-.61v-1c1.44.31,2.16,1.21,2.16,2.7ZM7.08,182.34c-.33.31-.5.72-.5,1.24s.17.91.5,1.23c.34.33.8.52,1.38.59v-3.6c-.59.05-1.05.23-1.38.54Z"/>
    <path class="cls-8" d="M5.92,179.12l5.19-1.75-5.19-1.7v-1.07l6.19,2.27v1.09l-6.19,2.3v-1.14Z"/>
    <path class="cls-8" d="M12.32,171.07c0,.91-.28,1.62-.85,2.14s-1.36.77-2.36.77-1.81-.27-2.43-.8c-.62-.53-.93-1.23-.93-2.08,0-.95.32-1.66.96-2.12s1.46-.69,2.44-.69h.14v4.65h.07c.66.01,1.17-.16,1.55-.5s.56-.82.56-1.42c0-.45-.1-.8-.31-1.06s-.54-.46-1.01-.61v-1c1.44.31,2.16,1.21,2.16,2.7ZM7.08,169.9c-.33.31-.5.72-.5,1.24s.17.91.5,1.24.8.52,1.38.59v-3.6c-.59.05-1.05.23-1.38.54Z"/>
    <path class="cls-8" d="M12.11,166.14v1.03H3.57v-1.03h8.54Z"/>
  </g>
  <rect class="cls-7" x="523.67" y="2.69" width="401.73" height="97.68"/>
  <rect class="cls-7" x="523.67" y="100.68" width="401.73" height="97.68"/>
  <rect class="cls-7" x="925.4" y="2.69" width="401.73" height="97.68"/>
  <rect class="cls-7" x="1325.76" y="198.3" width="401.73" height="97.68"/>
  <rect class="cls-7" x="1325.76" y="100.68" width="401.73" height="97.68"/>
  <rect class="cls-5" x="925.4" y="100.68" width="401.73" height="97.68"/>
  <line class="cls-1" x1="121.95" y1="2.98" x2="113.93" y2="2.98"/>
  <g>
    <path class="cls-3" d="M311.74,250.49h-4.02l-.59,2.96c.49-.52,1.15-.78,2-.78.93,0,1.69.3,2.27.9.58.6.87,1.38.87,2.35s-.32,1.84-.95,2.49c-.63.65-1.46.98-2.48.98-.94,0-1.71-.26-2.29-.78-.58-.52-.89-1.22-.92-2.09h1.2c.05.55.26,1,.63,1.34.37.35.84.52,1.39.52.62,0,1.13-.22,1.54-.67.41-.45.62-1,.62-1.67s-.2-1.25-.6-1.69c-.4-.43-.92-.65-1.57-.65-.82,0-1.46.32-1.9.97l-1.02-.07.92-5.15h4.9v1.05Z"/>
    <path class="cls-3" d="M318.34,249.59c.42.22.75.49.97.81s.4.73.53,1.24c.13.51.21.97.24,1.37.03.41.04.89.04,1.46,0,.52-.02,1-.06,1.42s-.13.86-.27,1.32c-.14.46-.32.84-.55,1.14s-.55.55-.95.75c-.4.2-.88.29-1.43.29-.58,0-1.08-.1-1.51-.3-.42-.2-.75-.45-.99-.75s-.42-.68-.55-1.14c-.14-.46-.22-.9-.26-1.32-.04-.42-.06-.89-.06-1.44,0-.47.01-.87.04-1.22.02-.35.07-.74.14-1.17.07-.43.18-.8.33-1.11.15-.3.34-.59.57-.86.23-.27.54-.48.92-.62.38-.14.81-.21,1.31-.21.6,0,1.11.11,1.53.33ZM316.03,250.48c-.22.11-.41.23-.55.37-.14.14-.26.35-.36.62s-.18.51-.22.69-.08.46-.1.81c-.03.35-.04.6-.04.75v.71c0,.33,0,.6.01.81s.03.5.07.84c.04.35.1.63.2.86s.21.46.35.69.33.4.58.52c.25.12.53.17.86.17.28,0,.53-.05.75-.15.22-.1.4-.22.54-.36.14-.14.26-.34.36-.59.1-.26.17-.48.22-.67.05-.19.08-.45.1-.77.02-.32.04-.56.04-.71,0-.15,0-.38,0-.68v-.7c0-.14-.01-.38-.04-.73-.03-.35-.06-.61-.1-.8-.04-.19-.11-.42-.22-.69-.1-.27-.22-.48-.36-.62-.14-.14-.32-.26-.55-.37s-.48-.16-.77-.16-.55.05-.77.16Z"/>
    <path class="cls-3" d="M323.43,259.19h-1.55v-1.55h1.55v1.55Z"/>
    <path class="cls-3" d="M330.01,249.59c.42.22.75.49.97.81s.4.73.53,1.24c.13.51.21.97.24,1.37.03.41.04.89.04,1.46,0,.52-.02,1-.06,1.42s-.13.86-.27,1.32c-.14.46-.32.84-.55,1.14s-.55.55-.95.75c-.4.2-.88.29-1.43.29-.58,0-1.08-.1-1.51-.3-.42-.2-.75-.45-.99-.75s-.42-.68-.55-1.14c-.14-.46-.22-.9-.26-1.32-.04-.42-.06-.89-.06-1.44,0-.47.01-.87.04-1.22.02-.35.07-.74.14-1.17.07-.43.18-.8.33-1.11.15-.3.34-.59.57-.86.23-.27.54-.48.92-.62.38-.14.81-.21,1.31-.21.6,0,1.11.11,1.53.33ZM327.71,250.48c-.22.11-.41.23-.55.37-.14.14-.26.35-.36.62s-.18.51-.22.69-.08.46-.1.81c-.03.35-.04.6-.04.75v.71c0,.33,0,.6.01.81s.03.5.07.84c.04.35.1.63.2.86s.21.46.35.69.33.4.58.52c.25.12.53.17.86.17.28,0,.53-.05.75-.15.22-.1.4-.22.54-.36.14-.14.26-.34.36-.59.1-.26.17-.48.22-.67.05-.19.08-.45.1-.77.02-.32.04-.56.04-.71,0-.15,0-.38,0-.68v-.7c0-.14-.01-.38-.04-.73-.03-.35-.06-.61-.1-.8-.04-.19-.11-.42-.22-.69-.1-.27-.22-.48-.36-.62-.14-.14-.32-.26-.55-.37s-.48-.16-.77-.16-.55.05-.77.16Z"/>
  </g>
  <g>
    <path class="cls-3" d="M710.11,256.79h-1.34v2.4h-1.12v-2.4h-4.36v-1.12l4.51-6.42h.97v6.53h1.34v1.01ZM707.64,251.01l-3.31,4.78h3.31v-4.78Z"/>
    <path class="cls-3" d="M716.09,249.59c.42.22.75.49.97.81s.4.73.53,1.24c.13.51.21.97.24,1.37.03.41.04.89.04,1.46,0,.52-.02,1-.06,1.42s-.13.86-.27,1.32c-.14.46-.32.84-.55,1.14s-.55.55-.95.75c-.4.2-.88.29-1.43.29-.58,0-1.08-.1-1.51-.3-.42-.2-.75-.45-.99-.75s-.42-.68-.55-1.14c-.14-.46-.22-.9-.26-1.32-.04-.42-.06-.89-.06-1.44,0-.47.01-.87.04-1.22.02-.35.07-.74.14-1.17.07-.43.18-.8.33-1.11.15-.3.34-.59.57-.86.23-.27.54-.48.92-.62.38-.14.81-.21,1.31-.21.6,0,1.11.11,1.53.33ZM713.79,250.48c-.22.11-.41.23-.55.37-.14.14-.26.35-.36.62s-.18.51-.22.69-.08.46-.1.81c-.03.35-.04.6-.04.75v.71c0,.33,0,.6.01.81s.03.5.07.84c.04.35.1.63.2.86s.21.46.35.69.33.4.58.52c.25.12.53.17.86.17.28,0,.53-.05.75-.15.22-.1.4-.22.54-.36.14-.14.26-.34.36-.59.1-.26.17-.48.22-.67.05-.19.08-.45.1-.77.02-.32.04-.56.04-.71,0-.15,0-.38,0-.68v-.7c0-.14-.01-.38-.04-.73-.03-.35-.06-.61-.1-.8-.04-.19-.11-.42-.22-.69-.1-.27-.22-.48-.36-.62-.14-.14-.32-.26-.55-.37s-.48-.16-.77-.16-.55.05-.77.16Z"/>
    <path class="cls-3" d="M721.18,259.19h-1.55v-1.55h1.55v1.55Z"/>
    <path class="cls-3" d="M727.77,249.59c.42.22.75.49.97.81s.4.73.53,1.24c.13.51.21.97.24,1.37.03.41.04.89.04,1.46,0,.52-.02,1-.06,1.42s-.13.86-.27,1.32c-.14.46-.32.84-.55,1.14s-.55.55-.95.75c-.4.2-.88.29-1.43.29-.58,0-1.08-.1-1.51-.3-.42-.2-.75-.45-.99-.75s-.42-.68-.55-1.14c-.14-.46-.22-.9-.26-1.32-.04-.42-.06-.89-.06-1.44,0-.47.01-.87.04-1.22.02-.35.07-.74.14-1.17.07-.43.18-.8.33-1.11.15-.3.34-.59.57-.86.23-.27.54-.48.92-.62.38-.14.81-.21,1.31-.21.6,0,1.11.11,1.53.33ZM725.47,250.48c-.22.11-.41.23-.55.37-.14.14-.26.35-.36.62s-.18.51-.22.69-.08.46-.1.81c-.03.35-.04.6-.04.75v.71c0,.33,0,.6.01.81s.03.5.07.84c.04.35.1.63.2.86s.21.46.35.69.33.4.58.52c.25.12.53.17.86.17.28,0,.53-.05.75-.15.22-.1.4-.22.54-.36.14-.14.26-.34.36-.59.1-.26.17-.48.22-.67.05-.19.08-.45.1-.77.02-.32.04-.56.04-.71,0-.15,0-.38,0-.68v-.7c0-.14-.01-.38-.04-.73-.03-.35-.06-.61-.1-.8-.04-.19-.11-.42-.22-.69-.1-.27-.22-.48-.36-.62-.14-.14-.32-.26-.55-.37s-.48-.16-.77-.16-.55.05-.77.16Z"/>
  </g>
  <g>
    <path class="cls-3" d="M1120.49,146.84c-2.17,2.47-3.43,5.38-3.8,8.73h-1.32c.11-1.53.52-3.05,1.21-4.55.7-1.5,1.59-2.86,2.68-4.06h-5.2v-1.13h6.42v1.02Z"/>
    <path class="cls-3" d="M1126.63,145.97c.42.22.75.49.97.81.22.32.4.73.53,1.24.13.51.21.97.24,1.37s.04.89.04,1.46c0,.52-.02,1-.06,1.42s-.13.86-.27,1.32c-.14.46-.32.84-.55,1.14s-.55.55-.95.75c-.4.2-.88.29-1.43.29-.58,0-1.08-.1-1.51-.3-.42-.2-.75-.45-.99-.75s-.42-.68-.55-1.14-.22-.9-.26-1.32c-.04-.42-.06-.89-.06-1.44,0-.47.01-.87.04-1.22.02-.35.07-.74.14-1.17.07-.43.18-.8.33-1.11.15-.3.34-.59.57-.86.23-.27.54-.48.92-.62.38-.14.82-.21,1.31-.21.6,0,1.11.11,1.53.33ZM1124.33,146.87c-.22.11-.41.23-.55.37-.14.14-.26.35-.36.62s-.17.51-.22.69-.08.46-.11.81c-.03.35-.04.6-.04.75v.71c0,.33,0,.6.01.81,0,.21.03.5.07.84.04.35.1.63.2.86.09.23.21.46.35.69.14.23.33.4.58.52.25.12.54.17.86.17.28,0,.53-.05.75-.15.22-.1.4-.22.54-.36s.26-.34.36-.59c.1-.26.17-.48.22-.67s.08-.45.1-.77c.02-.32.04-.56.04-.71,0-.15,0-.38,0-.68v-.7c0-.14-.01-.38-.04-.73-.03-.35-.06-.61-.11-.8-.04-.19-.11-.42-.22-.69-.1-.27-.22-.48-.36-.62-.14-.14-.32-.26-.55-.37-.22-.11-.48-.16-.77-.16s-.55.05-.77.16Z"/>
    <path class="cls-3" d="M1131.72,155.57h-1.55v-1.55h1.55v1.55Z"/>
    <path class="cls-3" d="M1138.31,145.97c.42.22.75.49.97.81.22.32.4.73.53,1.24.13.51.21.97.24,1.37s.04.89.04,1.46c0,.52-.02,1-.06,1.42s-.13.86-.27,1.32c-.14.46-.32.84-.55,1.14s-.55.55-.95.75c-.4.2-.88.29-1.43.29-.58,0-1.08-.1-1.51-.3-.42-.2-.75-.45-.99-.75s-.42-.68-.55-1.14-.22-.9-.26-1.32c-.04-.42-.06-.89-.06-1.44,0-.47.01-.87.04-1.22.02-.35.07-.74.14-1.17.07-.43.18-.8.33-1.11.15-.3.34-.59.57-.86.23-.27.54-.48.92-.62.38-.14.82-.21,1.31-.21.6,0,1.11.11,1.53.33ZM1136,146.87c-.22.11-.41.23-.55.37-.14.14-.26.35-.36.62s-.17.51-.22.69-.08.46-.11.81c-.03.35-.04.6-.04.75v.71c0,.33,0,.6.01.81,0,.21.03.5.07.84.04.35.1.63.2.86.09.23.21.46.35.69.14.23.33.4.58.52.25.12.54.17.86.17.28,0,.53-.05.75-.15.22-.1.4-.22.54-.36s.26-.34.36-.59c.1-.26.17-.48.22-.67s.08-.45.1-.77c.02-.32.04-.56.04-.71,0-.15,0-.38,0-.68v-.7c0-.14-.01-.38-.04-.73-.03-.35-.06-.61-.11-.8-.04-.19-.11-.42-.22-.69-.1-.27-.22-.48-.36-.62-.14-.14-.32-.26-.55-.37-.22-.11-.48-.16-.77-.16s-.55.05-.77.16Z"/>
  </g>
  <g>
    <path class="cls-3" d="M1529.74,57.02h-6.47c.03-.55.11-1.03.25-1.44.14-.41.36-.78.65-1.11.29-.33.58-.6.86-.82s.68-.48,1.19-.8c.8-.5,1.33-.88,1.58-1.13.52-.51.78-1.08.78-1.71,0-.55-.18-1-.53-1.35-.35-.35-.82-.53-1.39-.53-.68,0-1.17.24-1.46.71-.29.47-.45,1.07-.47,1.79h-1.21v-.27c0-.98.29-1.77.88-2.37s1.36-.9,2.32-.9,1.69.26,2.25.78c.56.52.84,1.22.84,2.1,0,.37-.06.73-.19,1.06s-.27.61-.42.83c-.15.22-.39.46-.7.71-.31.25-.57.45-.78.58-.21.14-.5.32-.88.55-.77.46-1.27.81-1.53,1.06-.35.35-.58.74-.69,1.16h5.1v1.08Z"/>
    <path class="cls-3" d="M1536.11,47.42c.42.22.75.49.97.81.22.32.4.73.53,1.24.13.51.21.97.24,1.37s.04.89.04,1.46c0,.52-.02,1-.06,1.42s-.13.86-.27,1.32c-.14.46-.32.84-.55,1.14s-.55.55-.95.75c-.4.2-.88.29-1.43.29-.58,0-1.08-.1-1.51-.3-.42-.2-.75-.45-.99-.75s-.42-.68-.55-1.14-.22-.9-.26-1.32c-.04-.42-.06-.89-.06-1.44,0-.47.01-.87.04-1.22.02-.35.07-.74.14-1.17.07-.43.18-.8.33-1.11.15-.3.34-.59.57-.86.23-.27.54-.48.92-.62.38-.14.82-.21,1.31-.21.6,0,1.11.11,1.53.33ZM1533.81,48.32c-.22.11-.41.23-.55.37-.14.14-.26.35-.36.62s-.17.51-.22.69-.08.46-.11.81c-.03.35-.04.6-.04.75v.71c0,.33,0,.6.01.81,0,.21.03.5.07.84.04.35.1.63.2.86.09.23.21.46.35.69.14.23.33.4.58.52.25.12.54.17.86.17.28,0,.53-.05.75-.15.22-.1.4-.22.54-.36s.26-.34.36-.59c.1-.26.17-.48.22-.67s.08-.45.1-.77c.02-.32.04-.56.04-.71,0-.15,0-.38,0-.68v-.7c0-.14-.01-.38-.04-.73-.03-.35-.06-.61-.11-.8-.04-.19-.11-.42-.22-.69-.1-.27-.22-.48-.36-.62-.14-.14-.32-.26-.55-.37-.22-.11-.48-.16-.77-.16s-.55.05-.77.16Z"/>
    <path class="cls-3" d="M1541.2,57.02h-1.55v-1.55h1.55v1.55Z"/>
    <path class="cls-3" d="M1547.79,47.42c.42.22.75.49.97.81.22.32.4.73.53,1.24.13.51.21.97.24,1.37s.04.89.04,1.46c0,.52-.02,1-.06,1.42s-.13.86-.27,1.32c-.14.46-.32.84-.55,1.14s-.55.55-.95.75c-.4.2-.88.29-1.43.29-.58,0-1.08-.1-1.51-.3-.42-.2-.75-.45-.99-.75s-.42-.68-.55-1.14-.22-.9-.26-1.32c-.04-.42-.06-.89-.06-1.44,0-.47.01-.87.04-1.22.02-.35.07-.74.14-1.17.07-.43.18-.8.33-1.11.15-.3.34-.59.57-.86.23-.27.54-.48.92-.62.38-.14.82-.21,1.31-.21.6,0,1.11.11,1.53.33ZM1545.48,48.32c-.22.11-.41.23-.55.37-.14.14-.26.35-.36.62s-.17.51-.22.69-.08.46-.11.81c-.03.35-.04.6-.04.75v.71c0,.33,0,.6.01.81,0,.21.03.5.07.84.04.35.1.63.2.86.09.23.21.46.35.69.14.23.33.4.58.52.25.12.54.17.86.17.28,0,.53-.05.75-.15.22-.1.4-.22.54-.36s.26-.34.36-.59c.1-.26.17-.48.22-.67s.08-.45.1-.77c.02-.32.04-.56.04-.71,0-.15,0-.38,0-.68v-.7c0-.14-.01-.38-.04-.73-.03-.35-.06-.61-.11-.8-.04-.19-.11-.42-.22-.69-.1-.27-.22-.48-.36-.62-.14-.14-.32-.26-.55-.37-.22-.11-.48-.16-.77-.16s-.55.05-.77.16Z"/>
  </g>
</svg>