<?xml version="1.0" encoding="UTF-8"?>
<svg id="Layer_1" xmlns="http://www.w3.org/2000/svg" viewBox="0 0 807.12 242.64">
  <defs>
    <style>
      .cls-1 {
        fill: #fff;
      }
    </style>
  </defs>
  <path class="cls-1" d="M214.05,141.66v19.53c-4.85,1.73-9.56,3.01-14.14,3.84-4.58.83-9.11,1.24-13.62,1.24-15.67,0-28.52-4.7-38.57-14.1-10.05-9.41-15.08-21.39-15.08-35.96s5.02-26.11,15.06-35.7c10.04-9.57,22.61-14.36,37.7-14.36,4.64,0,9.21.49,13.71,1.45,4.49.97,8.93,2.44,13.3,4.44v20.7c-4.43-2.81-8.82-4.87-13.15-6.2-4.32-1.34-8.75-2.01-13.24-2.01-9.84,0-17.86,2.96-24.06,8.88-6.2,5.92-9.3,13.51-9.3,22.75s3.16,17.18,9.47,23.13c6.31,5.95,14.59,8.92,24.86,8.92,4.72,0,9.31-.54,13.79-1.62,4.47-1.08,8.89-2.72,13.26-4.95"/>
  <path class="cls-1" d="M216.12,116.22c0-13.95,4.96-25.77,14.88-35.49,9.92-9.72,22.03-14.56,36.31-14.56,6.73,0,13.17,1.26,19.3,3.79,6.14,2.53,11.64,6.16,16.49,10.88,4.93,4.99,8.68,10.47,11.24,16.44,2.56,5.97,3.85,12.29,3.85,18.95s-1.32,13.01-3.96,19.25c-2.63,6.25-6.35,11.69-11.14,16.34-4.85,4.79-10.32,8.39-16.38,10.82-6.08,2.42-12.54,3.64-19.41,3.64-14.29,0-26.4-4.85-36.31-14.56-9.92-9.71-14.88-21.55-14.88-35.49M236.14,116.28c0,8.93,3.01,16.53,9.04,22.83,6.03,6.29,13.3,9.44,21.82,9.44s15.7-3.16,21.76-9.5c6.07-6.32,9.09-13.92,9.09-22.77s-3.01-16.32-9.04-22.62c-6.02-6.29-13.3-9.44-21.81-9.44s-15.79,3.16-21.82,9.44c-6.03,6.3-9.04,13.83-9.04,22.62"/>
  <path class="cls-1" d="M326.06,164.3v-96.17h19.04v11.93c4.79-4.59,9.56-7.93,14.33-10.06,4.76-2.12,9.88-3.19,15.37-3.19,10.42,0,18.63,3.03,24.64,9.07,6.02,6.04,9.02,14.32,9.02,24.88v63.54h-19.04v-58.66c0-7.75-1.66-13.49-4.97-17.19-3.31-3.7-8.45-5.56-15.42-5.56-4.94,0-9.28.95-13.01,2.85-3.73,1.91-7.37,5.04-10.92,9.41v69.14h-19.04"/>
  <path class="cls-1" d="M421.91,164.3v-96.17h19.05v11.93c4.79-4.59,9.57-7.93,14.34-10.06,4.77-2.12,9.9-3.19,15.39-3.19,7.1,0,13.03,1.31,17.8,3.92,4.76,2.62,8.78,6.74,12.05,12.38,5.9-5.85,11.44-10.03,16.62-12.54,5.17-2.5,10.68-3.76,16.52-3.76,10.49,0,18.77,3.03,24.85,9.07,6.08,6.04,9.11,14.32,9.11,24.88v63.54h-19.35v-58.66c0-7.83-1.63-13.57-4.87-17.24-3.24-3.67-8.31-5.51-15.2-5.51-5.09,0-9.51.95-13.28,2.85-3.76,1.91-7.41,5.04-10.97,9.41v69.14h-18.71v-58.66c0-7.75-1.65-13.49-4.97-17.19-3.31-3.7-8.45-5.56-15.41-5.56-4.94,0-9.28.95-13.01,2.85-3.73,1.91-7.37,5.04-10.92,9.41v69.14h-19.05"/>
  <path class="cls-1" d="M628.83,156.33c-4.85,3.42-9.44,5.87-13.78,7.38-4.34,1.5-9.01,2.25-13.99,2.25-8.59,0-15.32-2.08-20.17-6.2-4.85-4.14-7.28-9.81-7.28-17.04,0-6.81,2.62-12.78,7.88-17.93,5.26-5.14,13.17-9.48,23.75-13.03l22.87-7.51c.07-.55.12-1.11.15-1.67.04-.55.06-1.36.06-2.4,0-5.78-1.4-9.93-4.21-12.47-2.82-2.53-7.45-3.82-13.9-3.82-5.34,0-10.87,1.14-16.55,3.39-5.69,2.26-11.39,5.62-17.07,10.07v-18.99c4.92-4.03,10.46-7.07,16.58-9.13,6.12-2.04,12.62-3.07,19.51-3.07,12.38,0,21.38,2.73,27.01,8.19,5.63,5.46,8.46,14.28,8.46,26.45v40.72c0,3.39.29,5.79.88,7.2.57,1.42,1.56,2.13,2.95,2.13,1.17,0,2.39-.31,3.68-.92,1.28-.62,3.37-2.07,6.27-4.34v11.57c-3.47,3-6.99,5.21-10.54,6.63-3.55,1.43-7.23,2.16-11.06,2.16s-6.45-.78-8.3-2.3c-1.85-1.54-2.9-3.98-3.18-7.32M628.1,144.76v-28.37c-12.95,4.03-21.88,7.74-26.78,11.16-4.91,3.41-7.36,7.37-7.36,11.89,0,3.96,1.26,7.02,3.81,9.18,2.54,2.15,6.1,3.23,10.7,3.23,3.42,0,6.75-.61,10.03-1.79,3.26-1.19,6.48-2.96,9.61-5.29"/>
  <polygon class="cls-1" points="241.42 225.75 241.42 185.79 265.46 185.79 265.46 190.88 247.08 190.88 247.08 203.02 264.89 203.02 264.89 208.19 247.08 208.19 247.08 220.58 266.04 220.58 266.04 225.75 241.42 225.75"/>
  <polygon class="cls-1" points="268.74 225.75 279.39 212.12 268.98 199.33 275.46 199.33 282.54 208.31 289.49 199.33 295.97 199.33 285.86 212 296.97 225.75 290.61 225.75 282.71 216.03 275.11 225.75 268.74 225.75"/>
  <path class="cls-1" d="M300.28,239.04v-39.71h5.34v1.49c.99-.7,2.03-1.22,3.14-1.56,1.1-.33,2.32-.5,3.65-.5,3.81,0,6.91,1.28,9.31,3.84,2.39,2.54,3.6,5.85,3.6,9.9s-1.2,7.37-3.6,9.92c-2.4,2.56-5.5,3.83-9.31,3.83-1.37,0-2.6-.16-3.7-.48-1.1-.31-2.12-.81-3.1-1.5v14.78h-5.34M305.62,205.15v14.76c.86.62,1.73,1.09,2.61,1.38.89.29,1.84.44,2.85.44,2.68,0,4.8-.82,6.34-2.46,1.54-1.64,2.31-3.9,2.31-6.77s-.77-5.08-2.31-6.71c-1.54-1.63-3.66-2.44-6.34-2.44-1.01,0-1.96.14-2.85.42-.88.3-1.75.75-2.61,1.38"/>
  <path class="cls-1" d="M353.61,222.95c-1.76,1.12-3.56,1.97-5.41,2.54-1.85.55-3.78.83-5.76.83-4.16,0-7.49-1.28-9.97-3.86-2.48-2.58-3.72-6.03-3.72-10.33,0-3.95,1.19-7.15,3.59-9.61,2.39-2.45,5.51-3.68,9.36-3.68s6.84,1.25,9.06,3.73c2.23,2.5,3.35,5.86,3.35,10.1v.77h-19.79c.15,2.5.97,4.46,2.45,5.85,1.48,1.41,3.47,2.11,5.96,2.11,1.67,0,3.42-.32,5.24-.94,1.81-.62,3.69-1.56,5.63-2.84v5.33M334.32,209.67l13.96-.03c-.17-1.89-.86-3.4-2.09-4.55-1.22-1.15-2.74-1.73-4.56-1.73-2.02,0-3.65.53-4.88,1.6-1.24,1.07-2.05,2.65-2.43,4.72"/>
  <path class="cls-1" d="M359.01,225.75v-26.42h5.26v5.82c1.46-2.32,2.78-3.94,3.95-4.85,1.17-.92,2.44-1.38,3.81-1.38.96,0,1.91.21,2.9.62.98.42,2.02,1.07,3.13,1.93l-2.85,4.75c-.86-.75-1.68-1.29-2.46-1.62-.77-.34-1.59-.5-2.45-.5-1.43,0-2.67.6-3.74,1.8-1.06,1.2-1.83,2.86-2.28,5.01v14.86h-5.26"/>
  <path class="cls-1" d="M395.48,224.9c-.82.46-1.71.79-2.64,1.01-.95.22-1.96.34-3.05.34-2.98,0-5.07-.72-6.28-2.12-1.21-1.41-1.82-3.98-1.82-7.71v-12.5h-4.51v-.52l9.24-10.22h.6v6.15h8.29v4.59h-8.29v12.1c0,2.19.28,3.61.82,4.26.54.64,1.57.96,3.05.96.8,0,1.59-.11,2.35-.32.77-.22,1.51-.55,2.24-1v4.98"/>
  <path class="cls-1" d="M399.61,191.53c0-.84.29-1.52.86-2.1.57-.57,1.27-.85,2.1-.85s1.54.28,2.11.85c.57.57.85,1.26.85,2.1s-.28,1.54-.85,2.11c-.57.55-1.26.84-2.11.84s-1.53-.29-2.1-.84c-.57-.57-.86-1.28-.86-2.11M399.94,199.33h5.26v26.42h-5.26v-26.42Z"/>
  <path class="cls-1" d="M410.4,223.95v-5.67c1.59,1.06,3.11,1.88,4.57,2.44,1.47.56,2.82.84,4.04.84,1.35,0,2.42-.25,3.19-.75.77-.51,1.15-1.21,1.15-2.09,0-1.11-1.44-2.39-4.32-3.83-.84-.42-1.49-.76-1.95-1-2.46-1.26-4.15-2.48-5.07-3.65-.92-1.16-1.37-2.6-1.37-4.3,0-2.2.79-3.95,2.37-5.24,1.58-1.3,3.77-1.95,6.53-1.95,1.49,0,2.92.17,4.3.53,1.38.35,2.72.9,4.03,1.64v5.13c-1.62-.88-3.1-1.55-4.45-1.98-1.35-.43-2.62-.64-3.82-.64-1.11,0-1.96.19-2.56.57-.6.38-.9.93-.9,1.66,0,1.33,1.84,2.9,5.54,4.72.21.09.37.16.48.22,2.88,1.45,4.77,2.72,5.63,3.83.88,1.09,1.31,2.47,1.31,4.15,0,2.32-.87,4.19-2.61,5.59-1.75,1.39-4.06,2.08-6.94,2.08-1.65,0-3.24-.19-4.73-.57-1.5-.37-2.97-.95-4.41-1.72"/>
  <path class="cls-1" d="M457.27,222.95c-1.75,1.12-3.55,1.97-5.41,2.54-1.85.55-3.77.83-5.75.83-4.16,0-7.49-1.28-9.98-3.86-2.47-2.58-3.72-6.03-3.72-10.33,0-3.95,1.19-7.15,3.59-9.61,2.38-2.45,5.51-3.68,9.36-3.68s6.83,1.25,9.06,3.73c2.22,2.5,3.34,5.86,3.34,10.1v.77h-19.77c.15,2.5.97,4.46,2.46,5.85,1.47,1.41,3.46,2.11,5.95,2.11,1.68,0,3.42-.32,5.23-.94,1.82-.62,3.7-1.56,5.64-2.84v5.33M437.99,209.67l13.95-.03c-.18-1.89-.87-3.4-2.09-4.55-1.22-1.15-2.74-1.73-4.56-1.73-2.01,0-3.65.53-4.88,1.6-1.24,1.07-2.05,2.65-2.42,4.72"/>
  <polygon class="cls-1" points="487.92 225.75 487.92 205.76 472.5 185.79 479.26 185.79 490.93 200.96 502.86 185.79 509.74 185.79 493.75 206.03 493.75 225.75 487.92 225.75"/>
  <path class="cls-1" d="M503.37,212.5c0-3.84,1.37-7.09,4.1-9.75,2.73-2.66,6.06-4,9.99-4,1.84,0,3.61.35,5.31,1.05,1.68.69,3.19,1.69,4.53,2.98,1.35,1.37,2.38,2.88,3.09,4.51.7,1.64,1.06,3.38,1.06,5.21s-.37,3.57-1.1,5.28c-.72,1.72-1.74,3.21-3.05,4.49-1.34,1.31-2.84,2.31-4.51,2.98-1.67.66-3.45.99-5.33.99-3.93,0-7.26-1.33-9.99-4-2.73-2.67-4.1-5.91-4.1-9.74M508.88,212.51c0,2.46.83,4.55,2.48,6.29,1.66,1.73,3.67,2.6,6.01,2.6s4.33-.87,6-2.61c1.67-1.75,2.5-3.83,2.5-6.28s-.83-4.5-2.49-6.23c-1.65-1.74-3.66-2.6-6.01-2.6s-4.35.87-6.01,2.6c-1.65,1.73-2.48,3.82-2.48,6.23"/>
  <path class="cls-1" d="M553.65,222.55c-1.31,1.24-2.62,2.16-3.93,2.74-1.3.58-2.7.87-4.2.87-2.87,0-5.14-.84-6.79-2.49-1.66-1.66-2.48-3.92-2.48-6.79v-17.56h5.33v16.21c0,2.14.44,3.72,1.35,4.74.9,1.02,2.29,1.53,4.19,1.53,1.34,0,2.53-.26,3.55-.79,1.01-.52,2-1.39,2.97-2.62v-19.07h5.25v26.42h-5.25v-3.2"/>
  <path class="cls-1" d="M615.32,216.31v6.41c-2.35,1.23-4.73,2.17-7.16,2.81-2.42.64-4.84.96-7.21.96s-4.47-.3-6.55-.9c-2.07-.6-4.03-1.49-5.88-2.67-2.97-1.95-5.28-4.43-6.93-7.45-1.64-3.03-2.46-6.31-2.46-9.86,0-2.7.54-5.3,1.63-7.82,1.08-2.53,2.63-4.74,4.62-6.62,2.15-2.02,4.52-3.54,7.18-4.53,2.64-1,5.58-1.51,8.8-1.51,2.24,0,4.47.26,6.68.76,2.21.52,4.52,1.32,6.95,2.42v6.24c-2.55-1.39-4.92-2.43-7.15-3.09-2.23-.67-4.4-1-6.49-1-4.67,0-8.53,1.46-11.58,4.37-3.04,2.9-4.57,6.54-4.57,10.93s1.5,7.96,4.49,10.86c3,2.91,6.78,4.36,11.31,4.36,2.31,0,4.66-.39,7.05-1.15,2.38-.78,4.8-1.95,7.26-3.53"/>
  <path class="cls-1" d="M634.05,223.61c-1.33.93-2.6,1.6-3.79,2.02-1.18.41-2.46.62-3.83.62-2.35,0-4.2-.57-5.53-1.7-1.33-1.14-2-2.68-2-4.66,0-1.85.73-3.49,2.17-4.9,1.44-1.4,3.63-2.6,6.55-3.56l6.21-2.08c.02-.16.03-.32.04-.47.02-.15.02-.38.02-.67,0-1.61-.39-2.76-1.16-3.47-.77-.71-2.04-1.06-3.81-1.06-1.47,0-2.97.31-4.53.93-1.55.62-3.12,1.54-4.68,2.77v-5.2c1.35-1.1,2.88-1.93,4.55-2.49,1.68-.56,3.45-.84,5.35-.84,3.39,0,5.86.75,7.4,2.25,1.54,1.51,2.32,3.93,2.32,7.27v11.19c0,.91.08,1.56.24,1.94.15.38.42.57.81.57.32,0,.66-.08,1-.25.35-.16.92-.54,1.72-1.15v3.17c-.95.82-1.92,1.43-2.89,1.81-.97.39-1.99.59-3.03.59s-1.77-.21-2.27-.63c-.51-.41-.8-1.08-.87-2M633.85,220.44v-7.73c-3.52,1.1-5.94,2.12-7.27,3.05-1.34.93-2,2.01-2,3.25,0,1.08.33,1.91,1.03,2.5.69.59,1.65.88,2.9.88.93,0,1.84-.17,2.73-.5.89-.33,1.75-.81,2.61-1.45"/>
  <path class="cls-1" d="M646.3,225.75v-26.42h5.26v3.24c1.31-1.26,2.63-2.19,3.94-2.78,1.3-.59,2.71-.88,4.21-.88,2.86,0,5.12.83,6.76,2.49,1.66,1.67,2.49,3.95,2.49,6.85v17.49h-5.26v-16.15c0-2.13-.44-3.71-1.36-4.72-.91-1.03-2.32-1.53-4.22-1.53-1.36,0-2.54.26-3.57.79-1.02.52-2.02,1.39-2.99,2.59v19.03h-5.26"/>
  <polygon class="cls-1" points="701.98 225.75 701.98 190.95 687.3 190.95 687.3 185.79 722.33 185.79 722.33 190.95 707.65 190.95 707.65 225.75 701.98 225.75"/>
  <path class="cls-1" d="M715.88,225.75v-26.42h5.26v5.82c1.46-2.32,2.77-3.94,3.94-4.85,1.17-.92,2.44-1.38,3.81-1.38.95,0,1.91.21,2.9.62.98.42,2.02,1.07,3.13,1.93l-2.86,4.75c-.86-.75-1.68-1.29-2.46-1.62-.78-.34-1.6-.5-2.45-.5-1.43,0-2.67.6-3.73,1.8-1.07,1.2-1.83,2.86-2.28,5.01v14.86h-5.26"/>
  <path class="cls-1" d="M755.06,222.55c-1.31,1.24-2.62,2.16-3.92,2.74-1.3.58-2.7.87-4.2.87-2.87,0-5.14-.84-6.79-2.49-1.65-1.66-2.48-3.92-2.48-6.79v-17.56h5.34v16.21c0,2.14.45,3.72,1.35,4.74.91,1.02,2.3,1.53,4.19,1.53,1.35,0,2.53-.26,3.54-.79,1.02-.52,2.01-1.39,2.98-2.62v-19.07h5.26v26.42h-5.26v-3.2"/>
  <path class="cls-1" d="M765.3,223.95v-5.67c1.58,1.06,3.1,1.88,4.57,2.44,1.47.56,2.82.84,4.04.84,1.36,0,2.42-.25,3.2-.75.76-.51,1.15-1.21,1.15-2.09,0-1.11-1.44-2.39-4.32-3.83-.85-.42-1.5-.76-1.96-1-2.46-1.26-4.15-2.48-5.07-3.65-.92-1.16-1.37-2.6-1.37-4.3,0-2.2.79-3.95,2.37-5.24,1.59-1.3,3.77-1.95,6.53-1.95,1.48,0,2.92.17,4.29.53,1.38.35,2.72.9,4.04,1.64v5.13c-1.62-.88-3.11-1.55-4.45-1.98-1.34-.43-2.62-.64-3.83-.64-1.1,0-1.95.19-2.56.57-.6.38-.9.93-.9,1.66,0,1.33,1.84,2.9,5.53,4.72.2.09.38.16.48.22,2.88,1.45,4.76,2.72,5.63,3.83.88,1.09,1.32,2.47,1.32,4.15,0,2.32-.87,4.19-2.62,5.59-1.74,1.39-4.05,2.08-6.93,2.08-1.66,0-3.24-.19-4.74-.57-1.5-.37-2.97-.95-4.41-1.72"/>
  <path class="cls-1" d="M803.56,224.9c-.82.46-1.7.79-2.65,1.01-.94.22-1.95.34-3.04.34-2.98,0-5.07-.72-6.28-2.12-1.22-1.41-1.82-3.98-1.82-7.71v-12.5h-4.51v-.52l9.24-10.22h.61v6.15h8.28v4.59h-8.28v12.1c0,2.19.27,3.61.81,4.26.54.64,1.56.96,3.05.96.81,0,1.59-.11,2.36-.32.76-.22,1.5-.55,2.23-1v4.98"/>
  <path class="cls-1" d="M111.05,22.6c0-5.11,1.6-9.55,4.92-13.33,3.21-3.78,6.99-5.67,11.16-5.67,2.93,0,5.39.85,7.28,2.84,1.98,1.89,2.92,4.25,2.92,7.18,0,5.39-1.6,10.12-4.81,14.09-3.22,3.87-7.09,5.85-11.44,5.85-2.93,0-5.39-1.03-7.19-3.12-1.89-2.07-2.83-4.71-2.83-7.84M100.93,132.16c-2.08,5.11-3.59,9.26-4.63,12.29-.95,3.02-1.42,5.2-1.42,6.52,0,1.04.28,1.7.66,1.99.38.38,1.14.56,2.18.66,1.42,0,3.02-.56,4.82-1.61,1.7-1.14,3.97-3.03,6.81-5.67,1.32-1.23,2.93-2.93,4.82-5.11,3.5-3.68,6.06-5.57,7.57-5.57.75,0,1.42.29,1.98.76.47.47.76,1.04.76,1.7,0,1.42-1.32,3.69-3.78,7-2.55,3.13-5.86,6.52-9.83,10.12-5.86,4.82-11.25,8.6-16.35,11.07-5.11,2.55-9.65,3.87-13.9,3.87-3.41,0-6.14-1.04-7.94-2.93-1.8-1.88-2.75-4.62-2.75-8.22s.57-7.65,1.61-12.38c1.04-4.83,2.55-9.74,4.44-14.74l18.24-46.41c.67-1.8,1.14-3.12,1.32-4.07.28-.95.47-1.7.47-2.17,0-1.23-.28-2.18-.85-2.84-.57-.67-1.42-.95-2.55-.95-1.22,0-3.12.86-5.58,2.65-2.45,1.79-5.1,4.16-8.03,7.18-.76.76-1.99,1.99-3.41,3.59-2.83,3.13-5.01,4.73-6.34,4.73-.75,0-1.42-.28-1.98-.85-.57-.66-.85-1.33-.85-2.07,0-1.33,1.23-3.5,3.87-6.62,2.56-3.21,5.96-6.72,10.12-10.39,5.77-5.21,10.97-8.98,15.78-11.35,4.72-2.45,9.26-3.59,13.52-3.59s7.75.95,9.93,2.93c2.08,1.98,3.21,4.91,3.21,8.89,0,2.27-.38,5.01-1.14,8.13-.75,3.11-1.89,6.51-3.31,10.11l-17.49,43.38Z"/>
  <path class="cls-1" d="M235.64,169.51c-23.35,22.78-61.16,37.81-103.7,37.81C61.23,207.31,3.56,166.11,3.56,115.53c0-45.1,45.66-82.82,105.6-90.47C56.03,35.17,16.7,70.34,16.7,111.93c0,49.54,55.58,89.71,123.93,89.71,38.1,0,72.22-12.57,95-32.14"/>
</svg>