<?xml version="1.0" encoding="UTF-8"?>
<svg id="Layer_1" xmlns="http://www.w3.org/2000/svg" viewBox="0 0 232.08 203.72">
  <defs>
    <style>
      .cls-1 {
        fill: #fff;
      }
    </style>
  </defs>
  <path class="cls-1" d="M107.48,19c0-5.11,1.6-9.55,4.92-13.33C115.61,1.89,119.39,0,123.56,0c2.93,0,5.39.85,7.28,2.84,1.98,1.89,2.92,4.25,2.92,7.18,0,5.39-1.6,10.12-4.81,14.09-3.22,3.87-7.09,5.85-11.44,5.85-2.93,0-5.39-1.03-7.19-3.12-1.89-2.07-2.83-4.71-2.83-7.84M97.36,128.56c-2.08,5.11-3.59,9.26-4.63,12.29-.95,3.02-1.42,5.2-1.42,6.52,0,1.04.28,1.7.66,1.99.38.38,1.14.56,2.18.66,1.42,0,3.02-.56,4.82-1.61,1.7-1.14,3.97-3.03,6.81-5.67,1.32-1.23,2.93-2.93,4.82-5.11,3.5-3.68,6.06-5.57,7.57-5.57.75,0,1.42.29,1.98.76.47.47.76,1.04.76,1.7,0,1.42-1.32,3.69-3.78,7-2.55,3.13-5.86,6.53-9.83,10.12-5.86,4.82-11.25,8.6-16.35,11.07-5.11,2.55-9.65,3.87-13.9,3.87-3.41,0-6.14-1.04-7.94-2.93-1.8-1.88-2.75-4.62-2.75-8.22s.57-7.65,1.61-12.38c1.04-4.83,2.55-9.74,4.44-14.74l18.24-46.41c.67-1.8,1.14-3.12,1.32-4.07.28-.95.47-1.7.47-2.17,0-1.23-.28-2.18-.85-2.84-.57-.67-1.42-.95-2.55-.95-1.22,0-3.12.86-5.58,2.65-2.45,1.79-5.1,4.16-8.03,7.18-.76.76-1.99,1.99-3.41,3.59-2.83,3.13-5.01,4.73-6.34,4.73-.75,0-1.42-.28-1.98-.85-.57-.66-.85-1.33-.85-2.07,0-1.33,1.23-3.5,3.87-6.62,2.56-3.21,5.96-6.72,10.12-10.39,5.77-5.21,10.97-8.98,15.78-11.35,4.72-2.45,9.26-3.59,13.52-3.59s7.75.95,9.93,2.93c2.08,1.98,3.21,4.91,3.21,8.89,0,2.27-.38,5.01-1.14,8.13-.75,3.11-1.89,6.51-3.31,10.11l-17.49,43.38Z"/>
  <path class="cls-1" d="M232.08,165.91c-23.35,22.78-61.16,37.81-103.7,37.81C57.67,203.72,0,162.51,0,111.93,0,66.83,45.66,29.11,105.6,21.46,52.47,31.57,13.14,66.74,13.14,108.34c0,49.54,55.58,89.71,123.93,89.71,38.1,0,72.22-12.57,95-32.14"/>
</svg>