<svg xmlns="http://www.w3.org/2000/svg" version="1.1" xmlns:xlink="http://www.w3.org/1999/xlink" width="512" height="512" x="0" y="0" viewBox="0 0 682.667 682.667" style="enable-background:new 0 0 512 512" xml:space="preserve" class=""><g><defs><clipPath id="a" clipPathUnits="userSpaceOnUse"><path d="M0 512h512V0H0Z" fill="#c14400" opacity="1" data-original="#000000" class=""></path></clipPath></defs><g clip-path="url(#a)" transform="matrix(1.33333 0 0 -1.33333 0 682.667)"><path d="M0 0h482" style="stroke-width:30;stroke-linecap:round;stroke-linejoin:round;stroke-miterlimit:10;stroke-dasharray:none;stroke-opacity:1" transform="translate(15 15)" fill="none" stroke="#c14400" stroke-width="30" stroke-linecap="round" stroke-linejoin="round" stroke-miterlimit="10" stroke-dasharray="none" stroke-opacity="" data-original="#000000" opacity="1"></path><path d="M0 0h-40c-5.523 0-10-4.477-10-10v-110h60v110C10-4.477 5.523 0 0 0Z" style="stroke-width:30;stroke-linecap:round;stroke-linejoin:round;stroke-miterlimit:10;stroke-dasharray:none;stroke-opacity:1" transform="translate(96 135)" fill="none" stroke="#c14400" stroke-width="30" stroke-linecap="round" stroke-linejoin="round" stroke-miterlimit="10" stroke-dasharray="none" stroke-opacity="" data-original="#000000" opacity="1"></path><path d="M0 0h-40c-5.523 0-10-4.477-10-10v-146h60v146C10-4.477 5.523 0 0 0Z" style="stroke-width:30;stroke-linecap:round;stroke-linejoin:round;stroke-miterlimit:10;stroke-dasharray:none;stroke-opacity:1" transform="translate(216 171)" fill="none" stroke="#c14400" stroke-width="30" stroke-linecap="round" stroke-linejoin="round" stroke-miterlimit="10" stroke-dasharray="none" stroke-opacity="" data-original="#000000" opacity="1"></path><path d="M0 0h-40c-5.523 0-10-4.477-10-10v-201h60v201C10-4.477 5.523 0 0 0Z" style="stroke-width:30;stroke-linecap:round;stroke-linejoin:round;stroke-miterlimit:10;stroke-dasharray:none;stroke-opacity:1" transform="translate(336 226)" fill="none" stroke="#c14400" stroke-width="30" stroke-linecap="round" stroke-linejoin="round" stroke-miterlimit="10" stroke-dasharray="none" stroke-opacity="" data-original="#000000" opacity="1"></path><path d="M0 0h-40c-5.523 0-10-4.477-10-10v-301h60v301C10-4.477 5.523 0 0 0Z" style="stroke-width:30;stroke-linecap:round;stroke-linejoin:round;stroke-miterlimit:10;stroke-dasharray:none;stroke-opacity:1" transform="translate(456 326)" fill="none" stroke="#c14400" stroke-width="30" stroke-linecap="round" stroke-linejoin="round" stroke-miterlimit="10" stroke-dasharray="none" stroke-opacity="" data-original="#000000" opacity="1"></path><path d="M0 0c197.021 0 394.042 150.621 457.436 292.3" style="stroke-width:30;stroke-linecap:round;stroke-linejoin:round;stroke-miterlimit:10;stroke-dasharray:none;stroke-opacity:1" transform="translate(15 204.696)" fill="none" stroke="#c14400" stroke-width="30" stroke-linecap="round" stroke-linejoin="round" stroke-miterlimit="10" stroke-dasharray="none" stroke-opacity="" data-original="#000000" opacity="1"></path><path d="m0 0 91.67 24.563 24.563-91.67" style="stroke-width:30;stroke-linecap:round;stroke-linejoin:round;stroke-miterlimit:10;stroke-dasharray:none;stroke-opacity:1" transform="translate(380.767 472.437)" fill="none" stroke="#c14400" stroke-width="30" stroke-linecap="round" stroke-linejoin="round" stroke-miterlimit="10" stroke-dasharray="none" stroke-opacity="" data-original="#000000" opacity="1"></path></g></g></svg>