<svg xmlns="http://www.w3.org/2000/svg" version="1.1" xmlns:xlink="http://www.w3.org/1999/xlink" width="512" height="512" x="0" y="0" viewBox="0 0 512 512" style="enable-background:new 0 0 512 512" xml:space="preserve" class=""><g><path d="M496.986 481.993h-44.999V151.002h44.999c13.303 0 20.017-16.117 10.65-25.562L387.639 4.443c-5.865-5.914-15.435-5.914-21.3 0L246.342 125.44c-9.368 9.446-2.652 25.562 10.65 25.562h44.999V241H194.995c-8.284 0-15 6.716-15 15v74.998H74.998c-8.284 0-15 6.716-15 15v135.996H15c-8.284 0-15 6.716-15 15 0 8.284 6.716 15 15 15h481.987c8.284 0 15-6.716 15-15-.001-8.285-6.717-15.001-15.001-15.001zm-316.991 0H89.998V360.996h89.997v120.997zm121.997 0h-91.997V270.999h91.997v210.994zm119.996-345.991v345.991h-89.997V136.002c0-8.284-6.716-15-15-15h-23.997l83.996-84.696 83.996 84.696h-23.997c-8.285.001-15.001 6.717-15.001 15z" fill="#c14400" opacity="1" data-original="#000000" class=""></path></g></svg>