<svg width="24" height="24" viewBox="0 0 24 24" fill="none" xmlns="http://www.w3.org/2000/svg">
<g clip-path="url(#clip0_35_1837)">
<path d="M18.4 12.8C18.238 12.8 18.08 12.8108 17.92 12.8244C16.6984 10.2488 14.8772 8.2048 12.9088 7.1752C13.0203 7.04693 13.1031 6.89623 13.1514 6.73327C13.1997 6.5703 13.2125 6.39887 13.1889 6.23053C13.1653 6.06219 13.1059 5.90088 13.0147 5.75746C12.9234 5.61405 12.8025 5.49188 12.66 5.3992L14.152 3.48C14.2822 3.30685 14.3619 3.10106 14.3824 2.88541C14.4029 2.66975 14.3634 2.45262 14.2682 2.25804C14.173 2.06346 14.0258 1.89901 13.8429 1.78287C13.66 1.66674 13.4486 1.60345 13.232 1.6H12.676L12.6864 1.5732C12.7494 1.39705 12.7694 1.20843 12.7449 1.02297C12.7204 0.837514 12.6521 0.660564 12.5456 0.506782C12.4391 0.353 12.2975 0.226814 12.1325 0.138682C11.9675 0.0505506 11.7838 0.00300988 11.5968 3.13871e-08H7.6C7.4118 -4.36618e-05 7.22639 0.0455314 7.05966 0.132822C6.89293 0.220112 6.74984 0.346516 6.64265 0.501207C6.53546 0.655898 6.46736 0.834267 6.44419 1.02103C6.42102 1.2078 6.44346 1.3974 6.5096 1.5736L6.52 1.6H5.964C5.74793 1.60396 5.53715 1.66745 5.35483 1.78347C5.17251 1.89949 5.02573 2.06354 4.93063 2.25759C4.83552 2.45165 4.79579 2.66817 4.81579 2.88334C4.83579 3.09852 4.91476 3.304 5.044 3.4772L6.5384 5.4C6.39656 5.49262 6.27616 5.6145 6.18529 5.75747C6.09443 5.90044 6.03518 6.0612 6.01155 6.22894C5.98791 6.39669 6.00042 6.56755 6.04824 6.73007C6.09605 6.89258 6.17808 7.04299 6.2888 7.1712C2.4252 9.1748 0 14.5876 0 17.74C0 21.7768 3.4092 24 9.6 24C11.5521 24.0548 13.4971 23.7428 15.334 23.08C16.0634 23.5581 16.8945 23.8591 17.7609 23.9591C18.6273 24.0591 19.5051 23.9552 20.3242 23.6559C21.1434 23.3565 21.8812 22.8699 22.479 22.2348C23.0768 21.5997 23.5179 20.8337 23.7671 19.998C24.0164 19.1622 24.0669 18.2797 23.9147 17.421C23.7625 16.5622 23.4117 15.7509 22.8904 15.0517C22.3691 14.3525 21.6916 13.7849 20.9119 13.3939C20.1323 13.003 19.2721 12.7996 18.4 12.8ZM7.2 6.8C7.09391 6.8 6.99217 6.75786 6.91716 6.68284C6.84214 6.60783 6.8 6.50609 6.8 6.4C6.8 6.29391 6.84214 6.19217 6.91716 6.11716C6.99217 6.04214 7.09391 6 7.2 6H12C12.1061 6 12.2078 6.04214 12.2828 6.11716C12.3579 6.19217 12.4 6.29391 12.4 6.4C12.4 6.50609 12.3579 6.60783 12.2828 6.68284C12.2078 6.75786 12.1061 6.8 12 6.8H7.2ZM5.64 2.6092C5.6686 2.54719 5.71425 2.4946 5.77162 2.45755C5.82899 2.42051 5.89571 2.40055 5.964 2.4H6.82L7.3228 3.7408C7.35144 3.81696 7.40262 3.88257 7.46952 3.92888C7.53641 3.97519 7.61584 4 7.6972 4C7.74524 3.99984 7.79289 3.99131 7.838 3.9748C7.88725 3.95635 7.93238 3.92837 7.9708 3.89246C8.00923 3.85655 8.04019 3.81342 8.06193 3.76553C8.08366 3.71764 8.09574 3.66593 8.09747 3.61337C8.0992 3.5608 8.09054 3.50842 8.072 3.4592L7.2588 1.2924C7.2388 1.23726 7.23229 1.17812 7.23984 1.11995C7.24738 1.06177 7.26876 1.00625 7.30217 0.958037C7.33558 0.909821 7.38006 0.87031 7.43187 0.842814C7.48369 0.815318 7.54134 0.800637 7.6 0.8H11.5968C11.6555 0.800416 11.7133 0.814934 11.7652 0.84233C11.8171 0.869727 11.8617 0.9092 11.8952 0.957425C11.9287 1.00565 11.9501 1.06122 11.9576 1.11944C11.9651 1.17767 11.9585 1.23685 11.9384 1.292L11.1252 3.4592C11.1067 3.50847 11.0981 3.5609 11.0998 3.6135C11.1016 3.6661 11.1138 3.71784 11.1356 3.76573C11.1574 3.81363 11.1884 3.85676 11.227 3.89263C11.2655 3.92851 11.3107 3.95643 11.36 3.9748C11.4049 3.99119 11.4522 3.99972 11.5 4C11.5814 4.00008 11.6609 3.97531 11.7279 3.92899C11.7949 3.88267 11.8461 3.81702 11.8748 3.7408L12.3772 2.4H13.2332C13.3009 2.40086 13.367 2.42047 13.4243 2.45665C13.4815 2.49282 13.5276 2.54415 13.5574 2.60494C13.5873 2.66572 13.5997 2.73358 13.5933 2.80099C13.5869 2.8684 13.5619 2.93271 13.5212 2.9868L11.8 5.2H7.396L5.676 2.9852C5.63516 2.9323 5.6101 2.86893 5.60373 2.8024C5.59736 2.73587 5.60994 2.66889 5.64 2.6092ZM9.6 23.2C6.3132 23.2 0.8 22.4908 0.8 17.74C0.8 14.6248 3.322 9.1516 7.28 7.6H11.92C13.912 8.3836 15.8188 10.3632 17.098 12.96C16.1118 13.1937 15.2077 13.6913 14.4827 14.3996C13.7576 15.1078 13.239 16 12.9823 16.9805C12.7256 17.961 12.7406 18.9929 13.0255 19.9656C13.3105 20.9382 13.8548 21.815 14.6 22.502C12.982 23.0035 11.2934 23.2392 9.6 23.2ZM18.4 23.2C17.4506 23.2 16.5226 22.9185 15.7333 22.3911C14.9439 21.8636 14.3287 21.114 13.9654 20.2369C13.6021 19.3598 13.507 18.3947 13.6922 17.4636C13.8774 16.5325 14.3346 15.6772 15.0059 15.0059C15.6772 14.3346 16.5325 13.8774 17.4636 13.6922C18.3947 13.507 19.3598 13.6021 20.2369 13.9654C21.114 14.3287 21.8636 14.9439 22.3911 15.7333C22.9185 16.5226 23.2 17.4507 23.2 18.4C23.1986 19.6726 22.6925 20.8927 21.7926 21.7926C20.8927 22.6925 19.6726 23.1986 18.4 23.2Z" fill="#C14616"/>
<path d="M20.0844 16.1544L17.2516 19.7968L16.6828 19.228C16.6074 19.1551 16.5063 19.1148 16.4015 19.1157C16.2966 19.1166 16.1963 19.1587 16.1221 19.2328C16.0479 19.307 16.0059 19.4073 16.005 19.5122C16.004 19.6171 16.0444 19.7181 16.1172 19.7936L17.0064 20.6828C17.0814 20.7578 17.1832 20.8 17.2892 20.8H17.314C17.3706 20.7964 17.4258 20.7809 17.4759 20.7544C17.5261 20.728 17.57 20.6911 17.6048 20.6464L20.7156 16.6464C20.7493 16.6051 20.7743 16.5575 20.7893 16.5063C20.8043 16.4552 20.8089 16.4016 20.8029 16.3487C20.7969 16.2958 20.7803 16.2446 20.7543 16.1981C20.7282 16.1517 20.6931 16.1109 20.6511 16.0782C20.609 16.0454 20.5609 16.0215 20.5095 16.0076C20.458 15.9937 20.4043 15.9903 20.3516 15.9975C20.2988 16.0047 20.248 16.0223 20.2021 16.0494C20.1562 16.0765 20.1162 16.1124 20.0844 16.1552V16.1544Z" fill="#C14616"/>
</g>
<defs>
<clipPath id="clip0_35_1837">
<rect width="24" height="24" fill="white"/>
</clipPath>
</defs>
</svg>
