<svg width="24" height="17" viewBox="0 0 24 17" fill="none" xmlns="http://www.w3.org/2000/svg">
<g clip-path="url(#clip0_18_273)">
<path d="M9.01894 12.1858H3.35499C2.08158 12.1858 1.04926 11.5122 1.04926 10.6814V3.78912C1.04926 2.95831 2.08158 2.28479 3.35499 2.28479H18.4972C19.7706 2.28479 20.8029 2.95831 20.8029 3.78912V5.76289" stroke="#C14616" stroke-miterlimit="10" stroke-linecap="round" stroke-linejoin="round"/>
<path d="M3.08673 4.82898H17.1061" stroke="#C14616" stroke-miterlimit="10" stroke-linecap="round" stroke-linejoin="round"/>
<path d="M6.23007 3.07579V1.37585" stroke="#C14616" stroke-miterlimit="10" stroke-linecap="round" stroke-linejoin="round"/>
<path d="M15.622 3.07579V1.37585" stroke="#C14616" stroke-miterlimit="10" stroke-linecap="round" stroke-linejoin="round"/>
<path d="M4.21965 7.29119C4.52526 7.29119 4.77301 7.12935 4.77301 6.92971C4.77301 6.73008 4.52526 6.56824 4.21965 6.56824C3.91404 6.56824 3.66629 6.73008 3.66629 6.92971C3.66629 7.12935 3.91404 7.29119 4.21965 7.29119Z" fill="#C14616"/>
<path d="M7.28435 7.29119C7.58996 7.29119 7.83771 7.12935 7.83771 6.92971C7.83771 6.73008 7.58996 6.56824 7.28435 6.56824C6.97874 6.56824 6.73099 6.73008 6.73099 6.92971C6.73099 7.12935 6.97874 7.29119 7.28435 7.29119Z" fill="#C14616"/>
<path d="M4.21965 9.21929C4.52526 9.21929 4.77301 9.05745 4.77301 8.85781C4.77301 8.65818 4.52526 8.49634 4.21965 8.49634C3.91404 8.49634 3.66629 8.65818 3.66629 8.85781C3.66629 9.05745 3.91404 9.21929 4.21965 9.21929Z" fill="#C14616"/>
<path d="M7.28435 9.21929C7.58996 9.21929 7.83771 9.05745 7.83771 8.85781C7.83771 8.65818 7.58996 8.49634 7.28435 8.49634C6.97874 8.49634 6.73099 8.65818 6.73099 8.85781C6.73099 9.05745 6.97874 9.21929 7.28435 9.21929Z" fill="#C14616"/>
<path d="M10.3491 7.29119C10.6547 7.29119 10.9024 7.12935 10.9024 6.92971C10.9024 6.73008 10.6547 6.56824 10.3491 6.56824C10.0435 6.56824 9.79572 6.73008 9.79572 6.92971C9.79572 7.12935 10.0435 7.29119 10.3491 7.29119Z" fill="#C14616"/>
<path d="M13.4138 7.29119C13.7194 7.29119 13.9671 7.12935 13.9671 6.92971C13.9671 6.73008 13.7194 6.56824 13.4138 6.56824C13.1082 6.56824 12.8604 6.73008 12.8604 6.92971C12.8604 7.12935 13.1082 7.29119 13.4138 7.29119Z" fill="#C14616"/>
<path d="M20.0979 9.23449C21.6939 9.23449 22.9877 8.76642 22.9877 8.18902C22.9877 7.61163 21.6939 7.14355 20.0979 7.14355C18.5018 7.14355 17.208 7.61163 17.208 8.18902C17.208 8.76642 18.5018 9.23449 20.0979 9.23449Z" stroke="#C14616" stroke-miterlimit="10" stroke-linecap="round" stroke-linejoin="round"/>
<path d="M17.208 9.42798C17.208 10.0056 18.5019 10.4738 20.0979 10.4738C21.6939 10.4738 22.9877 10.0056 22.9877 9.42798" stroke="#C14616" stroke-miterlimit="10" stroke-linecap="round" stroke-linejoin="round"/>
<path d="M17.208 10.6671C17.208 11.2447 18.5019 11.713 20.0979 11.713C21.6939 11.713 22.9877 11.2447 22.9877 10.6671" stroke="#C14616" stroke-miterlimit="10" stroke-linecap="round" stroke-linejoin="round"/>
<path d="M17.208 11.9062C17.208 12.4838 18.5019 12.9521 20.0979 12.9521C21.6939 12.9521 22.9877 12.4839 22.9877 11.9062" stroke="#C14616" stroke-miterlimit="10" stroke-linecap="round" stroke-linejoin="round"/>
<path d="M17.208 13.1453C17.208 13.7228 18.5019 14.1911 20.0979 14.1911C21.6939 14.1911 22.9877 13.7229 22.9877 13.1453" stroke="#C14616" stroke-miterlimit="10" stroke-linecap="round" stroke-linejoin="round"/>
<path d="M17.1972 8.18896V14.3845C17.1972 14.9618 18.5018 15.4298 20.0979 15.4298C21.6939 15.4298 22.9877 14.9618 22.9877 14.3845V8.18896" stroke="#C14616" stroke-miterlimit="10" stroke-linecap="round" stroke-linejoin="round"/>
<path d="M14.3073 11.7801C15.9033 11.7801 17.1972 11.3121 17.1972 10.7347C17.1972 10.1573 15.9033 9.68921 14.3073 9.68921C12.7113 9.68921 11.4175 10.1573 11.4175 10.7347C11.4175 11.3121 12.7113 11.7801 14.3073 11.7801Z" stroke="#C14616" stroke-miterlimit="10" stroke-linecap="round" stroke-linejoin="round"/>
<path d="M11.4175 11.9736C11.4175 12.5512 12.7113 13.0195 14.3073 13.0195C15.9033 13.0195 17.1972 12.5512 17.1972 11.9736" stroke="#C14616" stroke-miterlimit="10" stroke-linecap="round" stroke-linejoin="round"/>
<path d="M11.4175 13.2126C11.4175 13.7902 12.7113 14.2585 14.3073 14.2585C15.9033 14.2585 17.1972 13.7903 17.1972 13.2126" stroke="#C14616" stroke-miterlimit="10" stroke-linecap="round" stroke-linejoin="round"/>
<path d="M11.4066 10.7346V14.4286C11.4066 15.0059 12.7113 15.474 14.3073 15.474C15.9034 15.474 17.1972 15.006 17.1972 14.4286V10.7346" stroke="#C14616" stroke-miterlimit="10" stroke-linecap="round" stroke-linejoin="round"/>
</g>
<defs>
<clipPath id="clip0_18_273">
<rect width="24" height="15.6583" fill="white" transform="translate(0 0.605469)"/>
</clipPath>
</defs>
</svg>
