<?xml version="1.0" encoding="UTF-8"?>
<svg id="Layer_1" xmlns="http://www.w3.org/2000/svg" version="1.1" viewBox="0 0 512 512">
  <!-- Generator: Adobe Illustrator 29.3.1, SVG Export Plug-In . SVG Version: 2.1.0 Build 151)  -->
  <defs>
    <style>
      .st0 {
        fill: #c14400;
      }
    </style>
  </defs>
  <g>
    <g>
      <path class="st0" d="M233,508.1h-39.7c-3.2,0-5.7-2.5-5.7-5.7v-13.8c0-10.7,8.8-19.5,19.5-19.5h12.2c10.7,0,19.5,8.8,19.5,19.5v13.8c0,3.2-2.5,5.7-5.7,5.7ZM199,496.8h28.3v-8.1c0-4.4-3.6-8.1-8.1-8.1h-12.2c-4.4,0-8.1,3.6-8.1,8.1v8.1Z"/>
      <path class="st0" d="M296.6,508.1h-39.7c-3.2,0-5.7-2.5-5.7-5.7v-13.8c0-10.7,8.8-19.5,19.5-19.5h12.2c10.7,0,19.5,8.8,19.5,19.5v13.8c0,3.2-2.5,5.7-5.7,5.7ZM262.6,496.8h28.3v-8.1c0-4.4-3.6-8.1-8.1-8.1h-12.2c-4.4,0-8.1,3.6-8.1,8.1v8.1Z"/>
    </g>
    <path class="st0" d="M294.2,480.6h-98.5c-4.1,0-8.1-1.6-11-4.6-2.8-3-4.4-6.8-4.4-10.9l3-271.2c0-3.1,2.6-5.6,5.7-5.6h.1c3.2,0,5.7,2.6,5.6,5.8l-3,271.2c0,1,.3,2,1.1,2.7.8.8,1.8,1.3,2.8,1.3h98.5c1.1,0,2.2-.5,2.8-1.3.8-.8,1.1-1.7,1.1-2.7l-1.3-112.8c0-3.2,2.5-5.7,5.6-5.8h.1c3.1,0,5.7,2.5,5.7,5.6l1.3,112.8c0,4.1-1.5,8-4.4,10.9-2.7,3-6.6,4.6-10.8,4.6Z"/>
    <path class="st0" d="M255.3,305.6h-70.3c-3.2,0-5.7-2.5-5.7-5.7s2.5-5.7,5.7-5.7h70.3c3.2,0,5.7,2.5,5.7,5.7s-2.6,5.7-5.7,5.7Z"/>
    <path class="st0" d="M184.8,306.5h-12.9c-14.4,0-26.2-11.7-26.2-26.2v-113.8c0-12.5,9-22,24.7-25.9l52.6-13.2c3.1-.8,6.1,1,6.9,4.1s-1,6.1-4.1,6.9l-52.6,13.2c-6,1.5-16.2,5.5-16.2,14.9v113.9c0,8.1,6.6,14.8,14.8,14.8h12.9c3.2,0,5.7,2.5,5.7,5.7s-2.5,5.6-5.7,5.6ZM338.4,178.5c-3.2,0-5.7-2.5-5.7-5.7v-6.3c0-9.4-10.1-13.4-16.2-14.9l-52.6-13.3c-3.1-.8-4.9-3.9-4.1-6.9s3.9-4.9,6.9-4.1l52.6,13.2c15.7,4,24.7,13.4,24.7,25.9v6.3c0,3.3-2.5,5.8-5.7,5.8Z"/>
    <path class="st0" d="M245,165.5c-14.4,0-26.2-11.7-26.2-26.2v-14.8c0-3.2,2.5-5.7,5.7-5.7s5.7,2.5,5.7,5.7v14.8c0,8.1,6.6,14.8,14.8,14.8s14.8-6.6,14.8-14.8v-14.8c0-3.2,2.5-5.7,5.7-5.7s5.7,2.5,5.7,5.7v14.8c0,14.4-11.7,26.2-26.2,26.2Z"/>
    <path class="st0" d="M245,480.6c-3.2,0-5.7-2.5-5.7-5.7v-110.4c0-3.2,2.5-5.7,5.7-5.7s5.7,2.5,5.7,5.7v110.4c0,3.2-2.5,5.7-5.7,5.7Z"/>
    <path class="st0" d="M188.8,217.9h-37.2c-3.2,0-5.7-2.5-5.7-5.7s2.5-5.7,5.7-5.7h37.2c3.2,0,5.7,2.5,5.7,5.7s-2.5,5.7-5.7,5.7Z"/>
    <path class="st0" d="M245,136.2c-24.6,0-44.5-19.9-44.5-44.5v-20.7c0-24.6,19.9-44.5,44.5-44.5s44.5,19.9,44.5,44.5v20.7c0,24.5-19.9,44.5-44.5,44.5h0ZM245,37.9c-18.2,0-33.1,14.8-33.1,33.1v20.7c0,18.2,14.8,33.1,33.1,33.1s33.1-14.8,33.1-33.1v-20.7c0-18.2-14.8-33.1-33.1-33.1Z"/>
  </g>
  <path class="st0" d="M344.2,367.7c-55.3,0-100.4-45.1-100.4-100.4s45.1-100.4,100.4-100.4,100.4,45.1,100.4,100.4-45.1,100.4-100.4,100.4ZM344.2,178.4c-49,0-89,39.9-89,89s39.9,89,89,89,89-39.9,89-89-39.9-89-89-89Z"/>
  <path class="st0" d="M344.2,342.4c-41.3,0-75-33.7-75-75s33.7-75,75-75,75,33.7,75,75-33.7,75-75,75ZM344.2,203.8c-35,0-63.6,28.6-63.6,63.6s28.6,63.6,63.6,63.6,63.6-28.6,63.6-63.6-28.6-63.6-63.6-63.6h0Z"/>
  <path class="st0" d="M344.2,216.4c-3.2,0-5.7-2.5-5.7-5.7v-12.6c0-3.2,2.5-5.7,5.7-5.7s5.7,2.5,5.7,5.7v12.6c0,3.2-2.5,5.7-5.7,5.7Z"/>
  <path class="st0" d="M372.5,224c-.9,0-1.9-.2-2.8-.8-2.7-1.6-3.6-5-2-7.7l6.4-10.9c1.6-2.7,5-3.6,7.7-2s3.6,5,2,7.7l-6.4,10.9c-1,1.8-3,2.8-4.9,2.8Z"/>
  <path class="st0" d="M393.2,244.7c-1.9,0-3.9-1-4.9-2.8-1.6-2.7-.7-6.1,2-7.7l10.9-6.4c2.7-1.6,6.3-.7,7.7,2,1.6,2.7.7,6.1-2,7.7l-10.9,6.4c-.9.6-1.8.8-2.8.8Z"/>
  <path class="st0" d="M413.5,273.1h-12.6c-3.2,0-5.7-2.5-5.7-5.7s2.5-5.7,5.7-5.7h12.6c3.2,0,5.7,2.5,5.7,5.7s-2.5,5.7-5.7,5.7Z"/>
  <path class="st0" d="M404.1,307.7c-.9,0-1.9-.2-2.8-.8l-10.9-6.4c-2.7-1.6-3.6-5-2-7.7s5-3.6,7.7-2l10.9,6.4c2.7,1.6,3.6,5,2,7.7-1,1.8-2.8,2.8-4.9,2.8h0Z"/>
  <path class="st0" d="M378.9,333c-1.9,0-3.9-1-4.9-2.8l-6.4-10.9c-1.6-2.7-.7-6.1,2-7.7s6.1-.7,7.7,2l6.4,10.9c1.6,2.7.7,6.1-2,7.7-.9.6-1.9.8-2.8.8Z"/>
  <path class="st0" d="M344.2,342.4c-3.2,0-5.7-2.5-5.7-5.7v-12.6c0-3.2,2.5-5.7,5.7-5.7s5.7,2.5,5.7,5.7v12.6c0,3.1-2.5,5.7-5.7,5.7Z"/>
  <path class="st0" d="M309.6,333c-.9,0-1.9-.2-2.8-.8-2.7-1.6-3.6-5-2-7.7l6.4-10.9c1.6-2.7,5-3.6,7.7-2s3.6,5,2,7.7l-6.4,10.9c-1,1.8-3,2.8-4.9,2.8Z"/>
  <path class="st0" d="M284.2,307.7c-1.9,0-3.9-1-4.9-2.8-1.6-2.7-.7-6.1,2-7.7l10.9-6.4c2.7-1.6,6.3-.7,7.7,2,1.6,2.7.7,6.1-2,7.7l-10.9,6.4c-.9.6-1.9.8-2.8.8h0Z"/>
  <path class="st0" d="M287.5,273.1h-12.6c-3.2,0-5.7-2.5-5.7-5.7s2.5-5.7,5.7-5.7h12.6c3.2,0,5.7,2.5,5.7,5.7s-2.5,5.7-5.7,5.7h0Z"/>
  <path class="st0" d="M295.1,244.7c-.9,0-1.9-.2-2.8-.8l-10.9-6.4c-2.7-1.6-3.6-5-2-7.7s5-3.6,7.7-2l10.9,6.4c2.7,1.6,3.6,5,2,7.7-1,1.8-3,2.8-4.9,2.8Z"/>
  <path class="st0" d="M315.8,224c-1.9,0-3.9-1-4.9-2.8l-6.4-10.9c-1.6-2.7-.7-6.1,2-7.7s6.3-.7,7.7,2l6.4,10.9c1.6,2.7.7,6.1-2,7.7-.9.5-1.8.8-2.8.8Z"/>
  <path class="st0" d="M344.2,285c-9.8,0-17.7-8-17.7-17.7s8-17.7,17.7-17.7,17.7,8,17.7,17.7-8,17.7-17.7,17.7ZM344.2,261c-3.5,0-6.4,2.8-6.4,6.4s2.8,6.4,6.4,6.4,6.4-2.8,6.4-6.4-2.8-6.4-6.4-6.4Z"/>
  <path class="st0" d="M377.6,292.3c-.9,0-1.9-.2-2.8-.8l-23-13.3c-2.7-1.6-3.6-5-2-7.7s5-3.6,7.7-2l23,13.3c2.7,1.6,3.6,5,2,7.7-1,1.8-3,2.8-4.9,2.8h0Z"/>
  <path class="st0" d="M416,508.1H74.1c-3.2,0-5.7-2.5-5.7-5.7s2.5-5.7,5.7-5.7h341.9c3.2,0,5.7,2.5,5.7,5.7s-2.6,5.7-5.7,5.7Z"/>
  <path class="st0" d="M114.5,508.1c-3.2,0-5.7-2.5-5.7-5.7V10.9c0-3.2,2.5-5.7,5.7-5.7s5.7,2.5,5.7,5.7v491.5c0,3.2-2.5,5.7-5.7,5.7Z"/>
  <path class="st0" d="M114.5,40.3h-17.1c-3.2,0-5.7-2.5-5.7-5.7s2.5-5.7,5.7-5.7h17.1c3.2,0,5.7,2.5,5.7,5.7s-2.5,5.7-5.7,5.7Z"/>
  <path class="st0" d="M114.5,69.5h-17.1c-3.2,0-5.7-2.5-5.7-5.7s2.5-5.7,5.7-5.7h17.1c3.2,0,5.7,2.5,5.7,5.7s-2.5,5.7-5.7,5.7Z"/>
  <path class="st0" d="M114.5,98.8h-17.1c-3.2,0-5.7-2.5-5.7-5.7s2.5-5.7,5.7-5.7h17.1c3.2,0,5.7,2.5,5.7,5.7s-2.5,5.7-5.7,5.7Z"/>
  <path class="st0" d="M114.5,128h-17.1c-3.2,0-5.7-2.5-5.7-5.7s2.5-5.7,5.7-5.7h17.1c3.2,0,5.7,2.5,5.7,5.7s-2.5,5.7-5.7,5.7Z"/>
  <path class="st0" d="M114.5,157.2h-17.1c-3.2,0-5.7-2.5-5.7-5.7s2.5-5.7,5.7-5.7h17.1c3.2,0,5.7,2.5,5.7,5.7s-2.5,5.7-5.7,5.7Z"/>
  <path class="st0" d="M114.5,186.5h-17.1c-3.2,0-5.7-2.5-5.7-5.7s2.5-5.7,5.7-5.7h17.1c3.2,0,5.7,2.5,5.7,5.7s-2.5,5.7-5.7,5.7Z"/>
  <path class="st0" d="M114.5,215.7h-17.1c-3.2,0-5.7-2.5-5.7-5.7s2.5-5.7,5.7-5.7h17.1c3.2,0,5.7,2.5,5.7,5.7s-2.5,5.7-5.7,5.7Z"/>
  <path class="st0" d="M114.5,245h-17.1c-3.2,0-5.7-2.5-5.7-5.7s2.5-5.7,5.7-5.7h17.1c3.2,0,5.7,2.5,5.7,5.7s-2.5,5.7-5.7,5.7Z"/>
  <path class="st0" d="M114.5,274.2h-17.1c-3.2,0-5.7-2.5-5.7-5.7s2.5-5.7,5.7-5.7h17.1c3.2,0,5.7,2.5,5.7,5.7s-2.5,5.7-5.7,5.7Z"/>
  <path class="st0" d="M114.5,303.4h-17.1c-3.2,0-5.7-2.5-5.7-5.7s2.5-5.7,5.7-5.7h17.1c3.2,0,5.7,2.5,5.7,5.7s-2.5,5.7-5.7,5.7Z"/>
  <path class="st0" d="M114.5,332.7h-17.1c-3.2,0-5.7-2.5-5.7-5.7s2.5-5.7,5.7-5.7h17.1c3.2,0,5.7,2.5,5.7,5.7s-2.5,5.7-5.7,5.7Z"/>
  <path class="st0" d="M114.5,361.9h-17.1c-3.2,0-5.7-2.5-5.7-5.7s2.5-5.7,5.7-5.7h17.1c3.2,0,5.7,2.5,5.7,5.7s-2.5,5.7-5.7,5.7Z"/>
  <path class="st0" d="M114.5,391.2h-17.1c-3.2,0-5.7-2.5-5.7-5.7s2.5-5.7,5.7-5.7h17.1c3.2,0,5.7,2.5,5.7,5.7s-2.5,5.7-5.7,5.7Z"/>
  <path class="st0" d="M114.5,420.4h-17.1c-3.2,0-5.7-2.5-5.7-5.7s2.5-5.7,5.7-5.7h17.1c3.2,0,5.7,2.5,5.7,5.7s-2.5,5.7-5.7,5.7Z"/>
  <path class="st0" d="M114.5,449.6h-17.1c-3.2,0-5.7-2.5-5.7-5.7s2.5-5.7,5.7-5.7h17.1c3.2,0,5.7,2.5,5.7,5.7s-2.5,5.7-5.7,5.7Z"/>
  <path class="st0" d="M114.5,478.9h-17.1c-3.2,0-5.7-2.5-5.7-5.7s2.5-5.7,5.7-5.7h17.1c3.2,0,5.7,2.5,5.7,5.7s-2.5,5.7-5.7,5.7Z"/>
</svg>