<svg xmlns="http://www.w3.org/2000/svg" version="1.1" xmlns:xlink="http://www.w3.org/1999/xlink" width="512" height="512" x="0" y="0" viewBox="0 0 32 32" style="enable-background:new 0 0 512 512" xml:space="preserve" class=""><g><g data-name="Layer 2"><path d="M29.72 13.31a1 1 0 0 0-1.41-.03l-.461.44A11.925 11.925 0 0 0 16 3a11.791 11.791 0 0 0-11.341 8.342 1 1 0 1 0 1.911.588A9.8 9.8 0 0 1 16 5a9.915 9.915 0 0 1 9.777 8.37l-.057-.06a1 1 0 0 0-1.44 1.38l1.91 2a.97.97 0 0 0 .72.31.277.277 0 0 0 .09-.01.9.9 0 0 0 .6-.27l2.09-2a1 1 0 0 0 .03-1.41ZM26.679 19.408a1 1 0 0 0-1.249.662A9.8 9.8 0 0 1 16 27a9.915 9.915 0 0 1-9.777-8.37l.057.06a.991.991 0 0 0 1.41.03 1 1 0 0 0 .03-1.41l-1.91-2a.966.966 0 0 0-.81-.3.9.9 0 0 0-.6.27l-2.09 2a1 1 0 0 0-.03 1.41.991.991 0 0 0 1.41.03l.461-.44A11.926 11.926 0 0 0 16 29a11.791 11.791 0 0 0 11.341-8.342 1 1 0 0 0-.662-1.25Z" fill="#c14400" opacity="1" data-original="#000000" class=""></path><circle cx="16" cy="13" r="3" fill="#c14400" opacity="1" data-original="#000000" class=""></circle><path d="M12.26 16.32a4.476 4.476 0 0 0-.72.66 2.845 2.845 0 0 0-.51 3.1A3.454 3.454 0 0 0 14.3 22h3.93a3.008 3.008 0 0 0 2.23-5.02 4.476 4.476 0 0 0-.72-.66 5 5 0 0 1-7.48 0Z" fill="#c14400" opacity="1" data-original="#000000" class=""></path></g></g></svg>