<?xml version="1.0" encoding="UTF-8"?>
<svg id="Layer_1" data-name="Layer 1" xmlns="http://www.w3.org/2000/svg" viewBox="0 0 120 120">
  <defs>
    <style>
      .cls-1 {
        fill: #fff;
      }
    </style>
  </defs>
  <g id="Icons">
    <g>
      <path class="cls-1" d="M5.26,44.21h21.05c2.9,0,5.26-2.36,5.26-5.26V13.68c0-2.9-2.36-5.26-5.26-5.26H5.26c-2.9,0-5.26,2.36-5.26,5.26v25.26c0,2.9,2.36,5.26,5.26,5.26ZM2.11,13.68c0-1.74,1.42-3.16,3.16-3.16h21.05c1.74,0,3.16,1.42,3.16,3.16v25.26c0,1.74-1.42,3.16-3.16,3.16H5.26c-1.74,0-3.16-1.42-3.16-3.16V13.68Z"/>
      <path class="cls-1" d="M34,42.01l-.64,2.01c.41.13.87.2,1.37.2h21.05c2.9,0,5.26-2.36,5.26-5.26V13.68c0-2.9-2.36-5.26-5.26-5.26h-21.05c-.5,0-.96.07-1.37.2l.64,2.01c.21-.07.45-.1.73-.1h21.05c1.74,0,3.16,1.42,3.16,3.16v25.26c0,1.74-1.42,3.16-3.16,3.16h-21.05c-.28,0-.53-.03-.73-.1Z"/>
      <path class="cls-1" d="M63.48,42.01l-.64,2.01c.41.13.87.2,1.37.2h21.05c2.9,0,5.26-2.36,5.26-5.26V13.68c0-2.9-2.36-5.26-5.26-5.26h-21.05c-.5,0-.96.07-1.37.2l.64,2.01c.21-.07.45-.1.73-.1h21.05c1.74,0,3.16,1.42,3.16,3.16v25.26c0,1.74-1.42,3.16-3.16,3.16h-21.05c-.28,0-.53-.03-.73-.1Z"/>
      <path class="cls-1" d="M114.74,8.42h-21.05c-.5,0-.96.07-1.37.2l.64,2.01c.21-.07.45-.1.73-.1h21.05c1.74,0,3.16,1.42,3.16,3.16v25.26c0,1.74-1.42,3.16-3.16,3.16h-21.05c-.28,0-.53-.03-.73-.1l-.64,2.01c.41.13.87.2,1.37.2h21.05c2.9,0,5.26-2.36,5.26-5.26V13.68c0-2.9-2.36-5.26-5.26-5.26Z"/>
      <path class="cls-1" d="M14.74,47.37v11.58h-5.26c-1.2,0-2.28.67-2.83,1.75-.54,1.08-.42,2.34.3,3.3l6.32,8.42c.59.79,1.54,1.27,2.53,1.27s1.93-.47,2.53-1.27l6.32-8.42c.72-.96.84-2.23.3-3.31-.54-1.08-1.62-1.74-2.83-1.74h-5.26v-11.58h-2.11ZM23.05,61.63c.18.36.14.78-.1,1.1l-6.32,8.42c-.4.53-1.29.53-1.68,0l-6.32-8.42c-.24-.32-.28-.74-.1-1.1.18-.36.54-.58.94-.58h12.63c.4,0,.76.22.94.58Z"/>
      <path class="cls-1" d="M44.21,47.37v11.58h-5.26c-1.2,0-2.28.67-2.83,1.75-.54,1.08-.42,2.34.3,3.3l6.32,8.42c.59.79,1.54,1.27,2.53,1.27s1.93-.47,2.53-1.27l6.32-8.42c.72-.96.84-2.23.3-3.31-.54-1.08-1.62-1.74-2.83-1.74h-5.26v-11.58h-2.11ZM52.52,61.63c.18.36.14.78-.1,1.1l-6.32,8.42c-.4.53-1.29.53-1.68,0l-6.32-8.42c-.24-.32-.28-.74-.1-1.1.18-.36.54-.58.94-.58h12.63c.4,0,.76.22.94.58Z"/>
      <path class="cls-1" d="M73.68,47.37v11.58h-5.26c-1.2,0-2.28.67-2.83,1.75-.54,1.08-.42,2.34.3,3.3l6.32,8.42c.59.79,1.54,1.27,2.53,1.27s1.93-.47,2.53-1.27l6.32-8.42c.72-.96.84-2.23.3-3.31-.54-1.08-1.62-1.74-2.83-1.74h-5.26v-11.58h-2.11ZM81.99,61.63c.18.36.14.78-.1,1.1l-6.32,8.42c-.4.53-1.29.53-1.68,0l-6.32-8.42c-.24-.32-.28-.74-.1-1.1.18-.36.54-.58.94-.58h12.63c.4,0,.76.22.94.58Z"/>
      <path class="cls-1" d="M103.16,47.37v11.58h-5.26c-1.2,0-2.28.67-2.83,1.75-.54,1.08-.42,2.34.3,3.3l6.32,8.42c.59.79,1.54,1.27,2.53,1.27s1.93-.47,2.53-1.27l6.32-8.42c.72-.96.84-2.23.3-3.31-.54-1.08-1.62-1.74-2.83-1.74h-5.26v-11.58h-2.11ZM111.47,61.63c.18.36.14.78-.1,1.1l-6.32,8.42c-.4.53-1.29.53-1.68,0l-6.32-8.42c-.24-.32-.28-.74-.1-1.1.18-.36.54-.58.94-.58h12.63c.4,0,.76.22.94.58Z"/>
      <path class="cls-1" d="M10.53,27.37h10.53v10.53h2.11v-15.79c0-4.06-3.31-7.37-7.37-7.37s-7.37,3.31-7.37,7.37v15.79h2.11v-10.53ZM10.53,22.11c0-2.9,2.36-5.26,5.26-5.26s5.26,2.36,5.26,5.26v3.16h-10.53v-3.16Z"/>
      <path class="cls-1" d="M52.63,21.05c0-3.48-2.83-6.32-6.32-6.32h-7.37c-.58,0-1.05.47-1.05,1.05v21.05c0,.58.47,1.05,1.05,1.05h7.37c3.48,0,6.32-2.83,6.32-6.32,0-2.2-1.13-4.13-2.84-5.26,1.71-1.13,2.84-3.07,2.84-5.26ZM50.53,31.58c0,2.32-1.89,4.21-4.21,4.21h-6.32v-8.42h6.32c2.32,0,4.21,1.89,4.21,4.21ZM46.32,25.26h-6.32v-8.42h6.32c2.32,0,4.21,1.89,4.21,4.21s-1.89,4.21-4.21,4.21Z"/>
      <path class="cls-1" d="M82.11,23.16v-1.05c0-4.06-3.31-7.37-7.37-7.37s-7.37,3.31-7.37,7.37v8.42c0,4.06,3.31,7.37,7.37,7.37s7.37-3.31,7.37-7.37v-1.05h-2.11v1.05c0,2.9-2.36,5.26-5.26,5.26s-5.26-2.36-5.26-5.26v-8.42c0-2.9,2.36-5.26,5.26-5.26s5.26,2.36,5.26,5.26v1.05h2.11Z"/>
      <path class="cls-1" d="M104.21,37.89c4.06,0,7.37-3.31,7.37-7.37v-8.42c0-4.06-3.31-7.37-7.37-7.37h-6.32c-.58,0-1.05.47-1.05,1.05v21.05c0,.58.47,1.05,1.05,1.05h6.32ZM98.95,16.84h5.26c2.9,0,5.26,2.36,5.26,5.26v8.42c0,2.9-2.36,5.26-5.26,5.26h-5.26v-18.95Z"/>
      <path class="cls-1" d="M56.52,77.99l.64-2.01c-.41-.13-.87-.2-1.37-.2h-21.05c-2.9,0-5.26,2.36-5.26,5.26v25.26c0,2.9,2.36,5.26,5.26,5.26h21.05c.5,0,.96-.07,1.37-.2l-.64-2.01c-.21.07-.45.1-.73.1h-21.05c-1.74,0-3.16-1.42-3.16-3.16v-25.26c0-1.74,1.42-3.16,3.16-3.16h21.05c.28,0,.53.03.73.1Z"/>
      <path class="cls-1" d="M27.05,77.99l.64-2.01c-.41-.13-.87-.2-1.37-.2H5.26c-2.9,0-5.26,2.36-5.26,5.26v25.26c0,2.9,2.36,5.26,5.26,5.26h21.05c.5,0,.96-.07,1.37-.2l-.64-2.01c-.21.07-.45.1-.73.1H5.26c-1.74,0-3.16-1.42-3.16-3.16v-25.26c0-1.74,1.42-3.16,3.16-3.16h21.05c.28,0,.53.03.73.1Z"/>
      <path class="cls-1" d="M114.74,75.79h-21.05c-2.9,0-5.26,2.36-5.26,5.26v25.26c0,2.9,2.36,5.26,5.26,5.26h21.05c2.9,0,5.26-2.36,5.26-5.26v-25.26c0-2.9-2.36-5.26-5.26-5.26ZM117.89,106.32c0,1.74-1.42,3.16-3.16,3.16h-21.05c-1.74,0-3.16-1.42-3.16-3.16v-25.26c0-1.74,1.42-3.16,3.16-3.16h21.05c1.74,0,3.16,1.42,3.16,3.16v25.26Z"/>
      <path class="cls-1" d="M86,77.99l.64-2.01c-.41-.13-.87-.2-1.37-.2h-21.05c-2.9,0-5.26,2.36-5.26,5.26v25.26c0,2.9,2.36,5.26,5.26,5.26h21.05c.5,0,.96-.07,1.37-.2l-.64-2.01c-.21.07-.45.1-.73.1h-21.05c-1.74,0-3.16-1.42-3.16-3.16v-25.26c0-1.74,1.42-3.16,3.16-3.16h21.05c.28,0,.53.03.73.1Z"/>
      <path class="cls-1" d="M52.63,87.37v-5.26h-2.11v5.26c0,2.9-2.36,5.26-5.26,5.26s-5.26-2.36-5.26-5.26v-5.26h-2.11v5.26c0,2.69,1.47,5.03,3.63,6.32-2.16,1.28-3.63,3.62-3.63,6.32v5.26h2.11v-5.26c0-2.9,2.36-5.26,5.26-5.26s5.26,2.36,5.26,5.26v5.26h2.11v-5.26c0-2.69-1.47-5.03-3.63-6.32,2.16-1.28,3.63-3.62,3.63-6.32Z"/>
      <path class="cls-1" d="M82.11,87.37v-5.26h-2.11v5.26c0,2.9-2.36,5.26-5.26,5.26s-5.26-2.36-5.26-5.26v-5.26h-2.11v5.26c0,2.69,1.47,5.03,3.63,6.32-2.16,1.28-3.63,3.62-3.63,6.32v5.26h2.11v-5.26c0-2.9,2.36-5.26,5.26-5.26s5.26,2.36,5.26,5.26v5.26h2.11v-5.26c0-2.69-1.47-5.03-3.63-6.32,2.16-1.28,3.63-3.62,3.63-6.32Z"/>
      <path class="cls-1" d="M109.47,87.37c0,2.9-2.36,5.26-5.26,5.26s-5.26-2.36-5.26-5.26v-5.26h-2.11v5.26c0,2.69,1.47,5.03,3.63,6.32-2.16,1.28-3.63,3.62-3.63,6.32v5.26h2.11v-5.26c0-2.9,2.36-5.26,5.26-5.26s5.26,2.36,5.26,5.26v5.26h2.11v-5.26c0-2.69-1.47-5.03-3.63-6.32,2.16-1.28,3.63-3.62,3.63-6.32v-5.26h-2.11v5.26Z"/>
      <path class="cls-1" d="M23.16,87.37v-5.26h-2.11v5.26c0,2.9-2.36,5.26-5.26,5.26s-5.26-2.36-5.26-5.26v-5.26h-2.11v5.26c0,2.69,1.47,5.03,3.63,6.32-2.16,1.28-3.63,3.62-3.63,6.32v5.26h2.11v-5.26c0-2.9,2.36-5.26,5.26-5.26s5.26,2.36,5.26,5.26v5.26h2.11v-5.26c0-2.69-1.47-5.03-3.63-6.32,2.16-1.28,3.63-3.62,3.63-6.32Z"/>
    </g>
  </g>
</svg>