<svg width="24" height="24" viewBox="0 0 24 24" fill="none" xmlns="http://www.w3.org/2000/svg">
<path d="M22.3495 14.5466L18.2812 11.6409V3C18.2812 2.01784 17.4822 1.21875 16.5 1.21875H3C2.01784 1.21875 1.21875 2.01784 1.21875 3V7.5C1.21875 7.65529 1.34471 7.78125 1.5 7.78125H4.21875V19.5C4.21875 20.4822 5.01784 21.2812 6 21.2812H11.7188V21.75C11.7188 22.3187 12.1813 22.7812 12.75 22.7812H21.75C22.3187 22.7812 22.7812 22.3187 22.7812 21.75V15.386C22.7812 15.0539 22.6199 14.7403 22.3495 14.5466ZM4.21875 7.21875H1.78125V3C1.78125 2.328 2.328 1.78125 3 1.78125C3.672 1.78125 4.21875 2.328 4.21875 3V7.21875ZM11.7188 20.7188H6C5.328 20.7188 4.78125 20.172 4.78125 19.5V3C4.78125 2.52761 4.59326 2.10037 4.29214 1.78125H16.5C17.172 1.78125 17.7188 2.328 17.7188 3V11.254C17.3797 11.081 16.9674 11.1066 16.6507 11.3324L15.0595 12.4688H6.75C6.59471 12.4688 6.46875 12.5947 6.46875 12.75C6.46875 12.9053 6.59471 13.0312 6.75 13.0312H14.272L12.1503 14.5466C12.0808 14.5965 12.0191 14.6547 11.9649 14.7188H6.75C6.59471 14.7188 6.46875 14.8447 6.46875 15C6.46875 15.1553 6.59471 15.2812 6.75 15.2812H11.7314C11.7278 15.3163 11.7188 15.3504 11.7188 15.386V20.7188ZM19.2188 22.2188H15.2812V17.625C15.2812 17.5734 15.3234 17.5312 15.375 17.5312H19.125C19.1766 17.5312 19.2188 17.5734 19.2188 17.625V22.2188ZM22.2188 21.75C22.2188 22.0086 22.0086 22.2188 21.75 22.2188H19.7812V17.625C19.7812 17.2632 19.4868 16.9688 19.125 16.9688H15.375C15.0132 16.9688 14.7188 17.2632 14.7188 17.625V22.2188H12.75C12.4914 22.2188 12.2812 22.0086 12.2812 21.75V15.386C12.2812 15.2351 12.3547 15.0923 12.4775 15.0044L16.9775 11.7901C17.1405 11.6737 17.3595 11.6737 17.5224 11.7901L22.0223 15.0044C22.1453 15.0923 22.2187 15.2351 22.2187 15.386L22.2188 21.75ZM7.125 7.78125H15.375C15.7368 7.78125 16.0312 7.4868 16.0312 7.125V5.625C16.0312 5.2632 15.7368 4.96875 15.375 4.96875H7.125C6.7632 4.96875 6.46875 5.2632 6.46875 5.625V7.125C6.46875 7.4868 6.7632 7.78125 7.125 7.78125ZM7.03125 5.625C7.03125 5.57336 7.07336 5.53125 7.125 5.53125H15.375C15.4266 5.53125 15.4688 5.57336 15.4688 5.625V7.125C15.4688 7.17664 15.4266 7.21875 15.375 7.21875H7.125C7.07336 7.21875 7.03125 7.17664 7.03125 7.125V5.625ZM6.46875 10.5C6.46875 10.3447 6.59471 10.2188 6.75 10.2188H15.375C15.5303 10.2188 15.6562 10.3447 15.6562 10.5C15.6562 10.6553 15.5303 10.7812 15.375 10.7812H6.75C6.59471 10.7812 6.46875 10.6553 6.46875 10.5Z" fill="#C14616"/>
</svg>
