<?xml version="1.0" encoding="UTF-8"?>
<svg xmlns="http://www.w3.org/2000/svg" version="1.1" viewBox="0 0 150 150">
  <defs>
    <style>
      .cls-1 {
        fill: #c14616;
      }
    </style>
  </defs>
  <!-- Generator: Adobe Illustrator 28.7.1, SVG Export Plug-In . SVG Version: 1.2.0 Build 142)  -->
  <g>
    <g id="Layer_1">
      <g>
        <path class="cls-1" d="M117.8,73.2c5.2,0,9.5-4.3,9.5-9.5V9.5c0-5.2-4.3-9.5-9.5-9.5h-12.3c-4.3,0-8,2.9-9.1,6.9h-55.7c-3.7,0-6.7,3-6.7,6.7v5.5c0,1.2.4,2.4.9,3.4-1.8,1.3-2.9,3.3-2.9,5.6v5c0,.8.1,1.5.4,2.2-3.5.2-6.3,3.2-6.3,6.7v5.5c0,1.2.4,2.4,1,3.4-2.6,1.3-4.3,3.7-4.3,6.4v3.8c0,4.2,4.2,7.6,9.5,7.6h29.9v18.1c0,8.6,7,15.6,15.6,15.6s3.1-1.4,3.1-3.1v-10.2c0-6.7,2.9-13.2,7.9-17.8l7.4-6.8c.4,4.9,4.5,8.7,9.5,8.7h12.3ZM85.6,67.9c-5.9,5.4-9.3,13.1-9.4,21.1v8.7c-5.4-.7-9.6-5.3-9.6-11v-19.5c0-1.6-1.2-2.9-2.7-3.1-.1,0-.3,0-.5,0h-31.3c-2.9,0-5-1.6-5-3v-3.8c0-1.4,2-3,5-3h10c1.3,0,2.3-1,2.3-2.3s-1-2.3-2.3-2.3h-9.4c-1.2,0-2.2-1-2.2-2.2v-5.5c0-1.2,1-2.2,2.2-2.2h14.1c1.3,0,2.3-1,2.3-2.3s-1-2.3-2.3-2.3h-8.2c-1.2,0-2.2-1-2.2-2.2v-5c0-1.2,1-2.2,2.2-2.2s.5,0,.7-.1c.4,0,.8.1,1.3.1h11.2c1.3,0,2.3-1,2.3-2.3s-1-2.3-2.3-2.3h-11.2c-1.2,0-2.2-1-2.2-2.2v-5.5c0-1.2,1-2.2,2.2-2.2h55.4v46.9l-10.4,9.4ZM100.6,63.7V9.5c0-2.7,2.2-4.9,4.9-4.9h12.3c2.7,0,4.9,2.2,4.9,4.9v54.2c0,2.7-2.2,4.9-4.9,4.9h-12.3c-2.7,0-4.9-2.2-4.9-4.9Z"/>
        <path class="cls-1" d="M144.5,102.8l-9.2-8.9,2.1-12.6c.1-.9-.2-1.7-.9-2.2s-1.6-.6-2.4-.2l-11.3,6-11.3-5.9c-1.1-.6-2.5-.1-3.1,1-.2.4-.3,1-.2,1.4l2.2,12.6-9.1,9c-.9.9-.9,2.3,0,3.2.4.4.8.6,1.3.7l12.7,1.8,5.7,11.4c.4.8,1.2,1.3,2,1.3h0c.9,0,1.7-.5,2-1.3l5.6-11.5,12.6-1.9c.9-.1,1.6-.7,1.8-1.6.2-.8,0-1.7-.6-2.3ZM128.8,104.3c-.7.1-1.4.6-1.7,1.3l-4.1,8.4-4.2-8.4c-.3-.7-1-1.1-1.7-1.2l-9.3-1.3,6.7-6.6c.5-.5.8-1.3.6-2l-1.6-9.2,8.3,4.3c.7.4,1.5.3,2.1,0l8.3-4.4-1.5,9.3c-.1.7.1,1.5.7,2l6.8,6.5-9.3,1.4ZM39.5,93.9l2.1-12.6c.1-.9-.2-1.7-.9-2.2s-1.6-.6-2.4-.2l-11.3,6-11.3-5.9c-1.1-.6-2.5-.1-3.1,1-.2.4-.3,1-.2,1.4l2.2,12.6-9.1,9c-.9.9-.9,2.3,0,3.2.4.4.8.6,1.3.7l12.7,1.8,5.7,11.4c.4.8,1.2,1.3,2,1.3h0c.9,0,1.6-.5,2-1.3l5.6-11.5,12.7-1.9c.9-.1,1.6-.7,1.8-1.6.3-.8,0-1.7-.6-2.3l-9.2-8.9ZM32.9,104.3c-.7.1-1.4.6-1.7,1.3l-4.1,8.4-4.2-8.4c-.3-.7-1-1.1-1.7-1.2l-9.3-1.3,6.7-6.6c.5-.5.8-1.3.6-2l-1.6-9.2,8.3,4.3c.7.4,1.5.3,2.1,0l8.3-4.4-1.5,9.3c-.1.7.1,1.5.7,2l6.7,6.5-9.3,1.4ZM87.4,122.6l2.1-12.6c.1-.8-.2-1.7-.9-2.2s-1.6-.6-2.4-.2l-11.3,6-11.3-5.9c-.8-.4-1.7-.3-2.4.2-.7.5-1,1.4-.9,2.2l2.2,12.6-9.1,9c-.9.9-.9,2.3,0,3.2.4.4.8.6,1.3.7l12.7,1.8,5.7,11.4c.4.8,1.1,1.2,2,1.2h0c.9,0,1.6-.5,2-1.3l5.6-11.5,12.6-1.9c.9-.1,1.6-.7,1.8-1.6.3-.8,0-1.7-.6-2.3l-9.2-8.9ZM80.8,132.9c-.7.1-1.4.6-1.7,1.3l-4.1,8.4-4.2-8.4c-.3-.7-1-1.1-1.7-1.2l-9.3-1.3,6.7-6.6c.5-.5.8-1.3.6-2l-1.6-9.2,8.3,4.3c.7.4,1.5.3,2.1,0l8.3-4.4-1.5,9.3c-.1.7.1,1.5.7,2l6.7,6.5-9.3,1.4Z"/>
      </g>
    </g>
  </g>
</svg>