<svg xmlns="http://www.w3.org/2000/svg" version="1.1" xmlns:xlink="http://www.w3.org/1999/xlink" width="512" height="512" x="0" y="0" viewBox="0 0 64 64" style="enable-background:new 0 0 512 512" xml:space="preserve" class=""><g><path d="M20.77 38.54h-11A1.5 1.5 0 0 0 8.27 40v18a1.5 1.5 0 0 0 1.5 1.5h11a1.5 1.5 0 0 0 1.5-1.5V40a1.5 1.5 0 0 0-1.5-1.46zm-1.5 18h-8v-15h8zm18.23-26h-11A1.5 1.5 0 0 0 25 32v26a1.5 1.5 0 0 0 1.5 1.5h11A1.5 1.5 0 0 0 39 58V32a1.5 1.5 0 0 0-1.5-1.46zm-1.5 26h-8v-23h8zm18.23-34h-11a1.5 1.5 0 0 0-1.5 1.5V58a1.5 1.5 0 0 0 1.5 1.5h11a1.5 1.5 0 0 0 1.5-1.5V24a1.5 1.5 0 0 0-1.5-1.46zm-1.5 34h-8v-31h8zM13.17 28a1.5 1.5 0 0 1-.108 2.119l-.002.001-3.39 3.06a1.5 1.5 0 1 1-2-2.22L11 27.89a1.5 1.5 0 0 1 2.17.11zM49.81 6.29h-7.48a1.5 1.5 0 0 0 0 3h3.25L28.12 24l-5.06-5.06a1.5 1.5 0 0 0-2.06-.05l-6.22 5.63a1.5 1.5 0 0 0 2 2.22l5.16-4.67 5 5a1.5 1.5 0 0 0 2 .08l19.23-16.24v3.91a1.5 1.5 0 0 0 3 0V7.67c0-.674-.476-1.38-1.36-1.38z" fill="#c14616" opacity="1" data-original="#000000"></path></g></svg>