<?xml version="1.0" encoding="UTF-8"?>
<svg id="Layer_1" xmlns="http://www.w3.org/2000/svg" version="1.1" viewBox="0 0 838 418.4">
  <!-- Generator: Adobe Illustrator 29.0.0, SVG Export Plug-In . SVG Version: 2.1.0 Build 186)  -->
  <defs>
    <style>
      .st0 {
        fill: #dc3545;
      }

      .st1 {
        fill: #fff;
      }

      .st2 {
        font-family: ArialMT, Arial;
        font-size: 60px;
      }

      .st2, .st3 {
        isolation: isolate;
      }

      .st4 {
        fill: #28a745;
      }

      .st5 {
        fill: #fabd07;
      }

      .st6 {
        fill-rule: evenodd;
      }
    </style>
  </defs>
  <g id="Layer_11" data-name="Layer_1">
    <path class="st0" d="M0,418.4h129.8c.2-91.2,42.6-172.5,108.7-225.4l-73.6-107.1C64.8,162.3.2,282.8,0,418.4Z"/>
    <path class="st5" d="M419,0c-95.2,0-183,31.8-253.4,85.3l73.6,107.1c49.4-39.2,111.8-62.7,179.8-62.7s136.3,25.7,186.7,68.4l73.8-107.3C608,34,517.4,0,419,0Z"/>
    <path class="st4" d="M680.2,91.4l-73.8,107.3c62.1,52.9,101.6,131.7,101.7,219.6h129.8c-.2-132.4-61.7-250.3-157.7-327h0Z"/>
    <path class="st1" d="M164.8,85.9l73.6,107.1c.3-.2.5-.4.8-.6l-73.6-107.1c-.3.2-.5.4-.8.6h0Z"/>
    <path class="st1" d="M679.5,90.8l-73.8,107.3c.3.2.5.4.8.6l73.8-107.3c-.3-.2-.5-.4-.8-.6Z"/>
    <path id="_349456216" class="st6" d="M435.1,400.4c-8.9,8.5-21.3,12.6-33.7,11-22.4-3-38.3-23.7-35.3-46.1,3-22.4,23.7-38.3,46.1-35.3,12.4,1.6,23.3,8.8,29.7,19.4l273.6,55.3-1.8,13.6-278.6-17.9h0Z"/>
    <g class="st3">
      <text class="st2" transform="translate(342.3 225.2)"><tspan x="0" y="0">329%</tspan></text>
    </g>
  </g>
</svg>