<?xml version="1.0" encoding="UTF-8"?>
<svg id="Layer_1" xmlns="http://www.w3.org/2000/svg" version="1.1" viewBox="0 0 512 512">
  <!-- Generator: Adobe Illustrator 29.3.1, SVG Export Plug-In . SVG Version: 2.1.0 Build 151)  -->
  <defs>
    <style>
      .st0 {
        fill: #b7e0f6;
      }

      .st1 {
        fill: #10bb67;
      }

      .st2 {
        fill: #11aa4f;
      }

      .st3 {
        fill: #59e259;
      }

      .st4 {
        fill: #3e5959;
      }

      .st5 {
        fill: #00ecce;
      }

      .st6 {
        fill: #1689fc;
      }

      .st7 {
        fill: #384949;
      }

      .st8 {
        fill: none;
        stroke: #000;
        stroke-linecap: round;
        stroke-linejoin: round;
        stroke-width: 21.3px;
      }

      .st9 {
        display: none;
      }

      .st10 {
        fill: #c14400;
      }

      .st11 {
        fill: #18a7fc;
      }

      .st12 {
        fill: #cae8f9;
      }

      .st13 {
        fill: #01a28e;
      }

      .st14 {
        fill: #32d736;
      }
    </style>
  </defs>
  <g id="line" class="st9">
    <g>
      <path class="st8" d="M96,416c-23.5,0-42.7-19.2-42.7-42.7V53.3c0-23.5,19.2-42.7,42.7-42.7h234.7c23.5,0,42.7,19.2,42.7,42.7"/>
      <path class="st8" d="M313.6,501.3h-132.3c-23.5,0-42.7-19.2-42.7-42.7V138.7c0-23.5,19.2-42.7,42.7-42.7h234.7c23.5,0,42.7,19.2,42.7,42.7v217.6c0,10.7-4.3,21.3-12.8,29.9l-102.4,102.4c-8.5,8.5-19.2,12.8-29.9,12.8h0Z"/>
      <path class="st8" d="M138.7,458.7c-23.5,0-42.7-19.2-42.7-42.7V96c0-23.5,19.2-42.7,42.7-42.7h234.7c23.5,0,42.7,19.2,42.7,42.7"/>
      <path class="st8" d="M330.7,497.1v-81.1c0-23.5,19.2-42.7,42.7-42.7h81.1"/>
      <path class="st8" d="M224,138.7h-21.3c-12.8,0-21.3,8.5-21.3,21.3v64"/>
    </g>
    <circle cx="181.3" cy="266.7" r="10.7"/>
  </g>
  <g id="line_expanded">
    <g>
      <path class="st10" d="M426.7,85.3c-4.3-21.3-21.3-38.4-42.7-42.7-4.3-25.6-25.6-42.7-53.3-42.7H96c-29.9,0-53.3,23.5-53.3,53.3v320c0,25.6,19.2,46.9,42.7,53.3,4.3,21.3,21.3,38.4,42.7,42.7,4.3,25.6,25.6,42.7,53.3,42.7h132.3c14.9,0,27.7-6.4,38.4-14.9l102.4-102.4c10.7-10.7,14.9-23.5,14.9-38.4v-217.6c0-25.6-19.2-46.9-42.7-53.3h0ZM85.3,96v307.2c-12.8-4.3-21.3-17.1-21.3-29.9V53.3c0-17.1,14.9-32,32-32h234.7c14.9,0,25.6,8.5,29.9,21.3h-221.9c-29.9,0-53.3,23.5-53.3,53.3ZM128,138.7v307.2c-12.8-4.3-21.3-17.1-21.3-29.9V96c0-17.1,14.9-32,32-32h234.7c14.9,0,25.6,8.5,29.9,21.3h-221.9c-29.9,0-53.3,23.5-53.3,53.3ZM181.3,490.7c-17.1,0-32-14.9-32-32V138.7c0-17.1,14.9-32,32-32h234.7c17.1,0,32,14.9,32,32v224h-74.7c-29.9,0-53.3,23.5-53.3,53.3v74.7h-138.7ZM341.3,475.7v-59.7c0-17.1,14.9-32,32-32h59.7l-91.7,91.7Z"/>
      <path class="st10" d="M224,128h-21.3c-17.1,0-32,14.9-32,32v64c0,6.4,4.3,10.7,10.7,10.7s10.7-4.3,10.7-10.7v-64c0-6.4,4.3-10.7,10.7-10.7h21.3c6.4,0,10.7-4.3,10.7-10.7s-4.3-10.7-10.7-10.7Z"/>
      <circle class="st10" cx="181.3" cy="266.7" r="10.7"/>
    </g>
  </g>
  <g id="colored_line" class="st9">
    <path class="st6" d="M96,426.7c-29.9,0-53.3-23.5-53.3-53.3V53.3C42.7,23.5,66.1,0,96,0h234.7c29.9,0,53.3,23.5,53.3,53.3h-21.3c0-17.1-14.9-32-32-32H96c-17.1,0-32,14.9-32,32v320c0,17.1,14.9,32,32,32v21.3Z"/>
    <path class="st4" d="M138.7,469.3c-29.9,0-53.3-23.5-53.3-53.3V96c0-29.9,23.5-53.3,53.3-53.3h234.7c29.9,0,53.3,23.5,53.3,53.3h-21.3c0-17.1-14.9-32-32-32h-234.7c-17.1,0-32,14.9-32,32v320c0,17.1,14.9,32,32,32v21.3Z"/>
    <path class="st6" d="M416,85.3h-234.7c-29.9,0-53.3,23.5-53.3,53.3v320c0,29.9,23.5,53.3,53.3,53.3h132.3c14.9,0,27.7-6.4,38.4-14.9l102.4-102.4c10.7-10.7,14.9-23.5,14.9-38.4v-217.6c0-29.9-23.5-53.3-53.3-53.3h0ZM181.3,490.7c-17.1,0-32-14.9-32-32V138.7c0-17.1,14.9-32,32-32h234.7c17.1,0,32,14.9,32,32v224h-74.7c-29.9,0-53.3,23.5-53.3,53.3v74.7h-138.7ZM341.3,475.7v-59.7c0-17.1,14.9-32,32-32h59.7l-91.7,91.7Z"/>
    <path class="st4" d="M181.3,234.7c-6.4,0-10.7-4.3-10.7-10.7v-64c0-17.1,14.9-32,32-32h21.3c6.4,0,10.7,4.3,10.7,10.7s-4.3,10.7-10.7,10.7h-21.3c-6.4,0-10.7,4.3-10.7,10.7v64c0,6.4-4.3,10.7-10.7,10.7Z"/>
    <circle class="st4" cx="181.3" cy="266.7" r="10.7"/>
  </g>
  <g id="filled_line" class="st9">
    <g>
      <path class="st6" d="M245.3,416H96c-23.5,0-42.7-19.2-42.7-42.7V53.3c0-23.5,19.2-42.7,42.7-42.7h234.7c23.5,0,42.7,19.2,42.7,42.7v234.7l-128,128Z"/>
      <path class="st0" d="M288,458.7h-149.3c-23.5,0-42.7-19.2-42.7-42.7V96c0-23.5,19.2-42.7,42.7-42.7h234.7c23.5,0,42.7,19.2,42.7,42.7v234.7l-128,128Z"/>
      <path class="st14" d="M330.7,501.3h-149.3c-23.5,0-42.7-19.2-42.7-42.7V138.7c0-23.5,19.2-42.7,42.7-42.7h234.7c23.5,0,42.7,19.2,42.7,42.7v234.7l-128,128Z"/>
      <path class="st1" d="M458.7,373.3h-85.3c-23.5,0-42.7,19.2-42.7,42.7v85.3l128-128Z"/>
      <g>
        <path class="st7" d="M426.7,85.3c-4.3-21.3-21.3-38.4-42.7-42.7-4.3-25.6-25.6-42.7-53.3-42.7H96c-29.9,0-53.3,23.5-53.3,53.3v320c0,25.6,19.2,46.9,42.7,53.3,4.3,21.3,21.3,38.4,42.7,42.7,4.3,25.6,25.6,42.7,53.3,42.7h132.3c14.9,0,27.7-6.4,38.4-14.9l102.4-102.4c10.7-10.7,14.9-23.5,14.9-38.4v-217.6c0-25.6-19.2-46.9-42.7-53.3h0ZM85.3,96v307.2c-12.8-4.3-21.3-17.1-21.3-29.9V53.3c0-17.1,14.9-32,32-32h234.7c14.9,0,25.6,8.5,29.9,21.3h-221.9c-29.9,0-53.3,23.5-53.3,53.3ZM128,138.7v307.2c-12.8-4.3-21.3-17.1-21.3-29.9V96c0-17.1,14.9-32,32-32h234.7c14.9,0,25.6,8.5,29.9,21.3h-221.9c-29.9,0-53.3,23.5-53.3,53.3ZM181.3,490.7c-17.1,0-32-14.9-32-32V138.7c0-17.1,14.9-32,32-32h234.7c17.1,0,32,14.9,32,32v224h-74.7c-29.9,0-53.3,23.5-53.3,53.3v74.7h-138.7ZM341.3,475.7v-59.7c0-17.1,14.9-32,32-32h59.7l-91.7,91.7Z"/>
        <g>
          <path class="st3" d="M224,128h-21.3c-17.1,0-32,14.9-32,32v64c0,6.4,4.3,10.7,10.7,10.7s10.7-4.3,10.7-10.7v-64c0-6.4,4.3-10.7,10.7-10.7h21.3c6.4,0,10.7-4.3,10.7-10.7s-4.3-10.7-10.7-10.7Z"/>
          <circle class="st3" cx="181.3" cy="266.7" r="10.7"/>
        </g>
      </g>
    </g>
  </g>
  <g id="duo_tone" class="st9">
    <path class="st5" d="M330.7,501.3v-85.3c0-23.5,19.2-42.7,42.7-42.7h85.3l-128,128Z"/>
    <path class="st5" d="M138.7,458.7c-23.5,0-42.7-19.2-42.7-42.7V96c0-23.5,19.2-42.7,42.7-42.7h234.7c23.5,0,42.7,19.2,42.7,42.7h-234.7c-23.5,0-42.7,19.2-42.7,42.7v320Z"/>
    <g>
      <path class="st13" d="M426.7,85.3c-4.3-21.3-21.3-38.4-42.7-42.7-4.3-25.6-25.6-42.7-53.3-42.7H96c-29.9,0-53.3,23.5-53.3,53.3v320c0,25.6,19.2,46.9,42.7,53.3,4.3,21.3,21.3,38.4,42.7,42.7,4.3,25.6,25.6,42.7,53.3,42.7h132.3c14.9,0,27.7-6.4,38.4-14.9l102.4-102.4c10.7-10.7,14.9-23.5,14.9-38.4v-217.6c0-25.6-19.2-46.9-42.7-53.3h0ZM85.3,96v307.2c-12.8-4.3-21.3-17.1-21.3-29.9V53.3c0-17.1,14.9-32,32-32h234.7c14.9,0,25.6,8.5,29.9,21.3h-221.9c-29.9,0-53.3,23.5-53.3,53.3ZM128,138.7v307.2c-12.8-4.3-21.3-17.1-21.3-29.9V96c0-17.1,14.9-32,32-32h234.7c14.9,0,25.6,8.5,29.9,21.3h-221.9c-29.9,0-53.3,23.5-53.3,53.3ZM181.3,490.7c-17.1,0-32-14.9-32-32V138.7c0-17.1,14.9-32,32-32h234.7c17.1,0,32,14.9,32,32v224h-74.7c-29.9,0-53.3,23.5-53.3,53.3v74.7h-138.7ZM341.3,475.7v-59.7c0-17.1,14.9-32,32-32h59.7l-91.7,91.7Z"/>
      <path class="st13" d="M224,128h-21.3c-17.1,0-32,14.9-32,32v64c0,6.4,4.3,10.7,10.7,10.7s10.7-4.3,10.7-10.7v-64c0-6.4,4.3-10.7,10.7-10.7h21.3c6.4,0,10.7-4.3,10.7-10.7s-4.3-10.7-10.7-10.7Z"/>
      <circle class="st13" cx="181.3" cy="266.7" r="10.7"/>
    </g>
  </g>
  <g id="flat" class="st9">
    <g>
      <path class="st11" d="M213.3,0h-117.3c-29.9,0-53.3,23.5-53.3,53.3v320c0,29.9,23.5,53.3,53.3,53.3h117.3V0Z"/>
      <path class="st6" d="M330.7,0h-117.3v426.7h14.9c14.9,0,27.7-6.4,38.4-14.9l102.4-102.4c10.7-10.7,14.9-23.5,14.9-38.4V53.3C384,23.5,360.5,0,330.7,0h0Z"/>
      <path class="st12" d="M256,42.7h-117.3c-29.9,0-53.3,23.5-53.3,53.3v320c0,29.9,23.5,53.3,53.3,53.3h117.3V42.7Z"/>
      <path class="st0" d="M373.3,42.7h-117.3v426.7h14.9c14.9,0,27.7-6.4,38.4-14.9l102.4-102.4c10.7-10.7,14.9-23.5,14.9-38.4V96c0-29.9-23.5-53.3-53.3-53.3Z"/>
      <path class="st14" d="M298.7,85.3h-117.3c-29.9,0-53.3,23.5-53.3,53.3v320c0,29.9,23.5,53.3,53.3,53.3h117.3V85.3Z"/>
      <path class="st1" d="M416,85.3h-117.3v426.7h14.9c14.9,0,27.7-6.4,38.4-14.9l102.4-102.4c10.7-10.7,14.9-23.5,14.9-38.4v-217.6c0-29.9-23.5-53.3-53.3-53.3h0Z"/>
      <path class="st2" d="M362.7,362.7c-23.5,0-42.7,19.2-42.7,42.7v106.7c10.7-2.1,21.3-6.4,29.9-14.9l102.4-102.4c8.5-8.5,12.8-19.2,14.9-29.9h-104.5v-2.1Z"/>
      <path class="st1" d="M160,213.3c-6.4,0-10.7-4.3-10.7-10.7v-64c0-17.1,14.9-32,32-32h21.3c6.4,0,10.7,4.3,10.7,10.7s-4.3,10.7-10.7,10.7h-21.3c-6.4,0-10.7,4.3-10.7,10.7v64c0,6.4-4.3,10.7-10.7,10.7Z"/>
      <circle class="st1" cx="160" cy="245.3" r="10.7"/>
    </g>
  </g>
</svg>