<?xml version="1.0" encoding="UTF-8"?>
<svg xmlns="http://www.w3.org/2000/svg" version="1.1" viewBox="0 0 150 150">
  <defs>
    <style>
      .cls-1 {
        fill: #c14616;
      }
    </style>
  </defs>
  <!-- Generator: Adobe Illustrator 28.7.1, SVG Export Plug-In . SVG Version: 1.2.0 Build 142)  -->
  <g>
    <g id="Layer_1">
      <path class="cls-1" d="M94.7,14.8c-.6-1.9-2.3-3.3-4.3-3.6l-7.3-1.1-3.3-7c-1.2-2.7-4.4-3.8-7-2.6-1.2.5-2.1,1.5-2.6,2.6l-3.3,7-7.3,1.1c-2,.3-3.7,1.7-4.3,3.7-.7,2-.2,4.2,1.3,5.7l5.4,5.4-1.3,7.7c-.4,2.1.5,4.2,2.2,5.4,1.6,1.2,3.8,1.3,5.6.3l6.5-3.6,6.5,3.6c1.8,1,3.9.9,5.6-.3,1.7-1.2,2.6-3.3,2.2-5.4l-1.3-7.7,5.3-5.4c1.5-1.5,2-3.7,1.3-5.7ZM89.9,16.9l-6.2,6.3c-.6.6-.8,1.4-.7,2.2l1.5,9c0,.2,0,.4-.2.5,0,0-.2,0-.3,0l-7.7-4.2c-.7-.4-1.7-.4-2.4,0l-7.7,4.2c0,0-.2,0-.3,0-.2-.1-.2-.3-.2-.5l1.5-9c.1-.8-.1-1.6-.7-2.2l-6.2-6.3c-.1-.2-.2-.4-.1-.6,0-.1.1-.3.3-.3l8.6-1.3c.8-.1,1.5-.6,1.9-1.4l3.9-8.2c0-.2.2-.3.4-.2.1,0,.2.1.2.2l3.9,8.2c.4.8,1.1,1.3,1.9,1.4l8.6,1.3c.1,0,.3.1.3.3,0,.2,0,.4-.1.6h0ZM28.9,44.1c1.5,1,3.4,1.2,5,.3l4.9-2.7,4.9,2.7c1.6.9,3.5.7,5-.3,1.5-1.1,2.3-2.9,2-4.8l-.9-5.8,4-4.1c1.3-1.3,1.7-3.2,1.2-5-.6-1.7-2-3-3.8-3.2l-5.5-.8-2.5-5.2c-1.1-2.4-3.9-3.4-6.2-2.3-1,.5-1.8,1.3-2.3,2.3l-2.5,5.2-5.5.8c-1.8.3-3.2,1.5-3.8,3.2-.6,1.7-.1,3.7,1.1,5l4,4.1-.9,5.8c-.3,1.8.5,3.7,2,4.8h0ZM27.6,26.2l6.4-1c.8-.1,1.5-.6,1.9-1.4l2.8-5.9,2.8,5.9c.4.8,1.1,1.3,1.9,1.4l6.4,1-4.7,4.8c-.6.6-.8,1.4-.7,2.2l1.2,6.7-5.7-3.1c-.7-.4-1.7-.4-2.4,0l-5.6,3.1,1.1-6.6c.1-.8-.1-1.6-.7-2.2l-4.7-4.8ZM123.5,21.3l-5.5-.8-2.5-5.2c-1.1-2.4-3.9-3.4-6.2-2.3-1,.5-1.8,1.3-2.3,2.3l-2.5,5.2-5.5.8c-1.8.3-3.2,1.5-3.8,3.2-.6,1.7-.1,3.7,1.1,5l4,4.1-.9,5.8c-.3,1.8.4,3.7,2,4.8,1.5,1,3.4,1.2,5,.3l4.9-2.7,4.9,2.7c1.6.9,3.5.7,5-.3,1.5-1.1,2.3-2.9,2-4.8l-.9-5.8,4-4.1c1.3-1.3,1.7-3.2,1.2-5-.6-1.7-2-3-3.8-3.2ZM117.6,31c-.6.6-.8,1.4-.7,2.2l1.2,6.7-5.7-3.1c-.7-.4-1.7-.4-2.4,0l-5.6,3.1,1.1-6.6c.1-.8-.1-1.6-.7-2.2l-4.7-4.8,6.4-1c.8-.1,1.5-.6,1.9-1.4l2.8-5.9,2.8,5.9c.4.8,1.1,1.3,1.9,1.4l6.4,1-4.7,4.8ZM48.7,87.8c-.9,1.4-2.4,2.2-4,2.2h-7.2c-5.5,0-10,4.5-10,10v32.5c0,5.5,4.5,10,10,10h8.3c1.5,0,2.9.4,4.1,1.2l7.1,4.4c2,1.3,4.4,1.9,6.8,1.9h36.5c5.1.1,9.4-3.8,9.7-8.9.1-1.9-.4-3.8-1.4-5.4,3.6-1.2,6.1-4.5,6.4-8.3.1-2.3-.6-4.5-2-6.3,4.4-2.6,5.8-8.3,3.2-12.7-.4-.6-.8-1.2-1.3-1.7-.1-.1-.3-.3-.4-.4.1-.1.3-.3.4-.4,1.8-1.9,2.7-4.4,2.6-7-.4-5.1-4.7-9-9.7-8.9h-25.7c8.3-7.9,13-18.9,12.9-30.4,0-7.2-4.1-14.6-12-14.6-3.6,0-6.6,2.7-7.1,6.2-.6,4.9-2.1,9.7-4.5,13.9-2.2,3.2-5.1,5.9-8.4,8.1-5.7,3.9-10.5,8.8-14.4,14.5h0ZM66.1,77.3c3.8-2.5,7.1-5.7,9.6-9.5,2.8-4.9,4.6-10.3,5.2-15.9.2-1.1,1.1-1.9,2.2-1.9,4.8,0,7,5,7,9.6,0,12.3-6.1,23.9-16.3,30.8-1.2.7-1.6,2.2-.9,3.4.5.8,1.3,1.2,2.1,1.2h32.7c2.4,0,4.5,1.7,4.7,4.1.1,2.4-1.7,4.5-4.1,4.6,0,0-.2,0-.2,0-1.4,0-2.5,1.1-2.5,2.5s1.1,2.5,2.5,2.5c2.4,0,4.4,1.9,4.4,4.4,0,0,0,.2,0,.2-.3,2.4-2.3,4.2-4.7,4.1h-2.1c-1.4,0-2.5,1.1-2.5,2.5s1.1,2.5,2.5,2.5c2.4,0,4.4,1.9,4.4,4.4,0,0,0,.2,0,.2-.3,2.4-2.3,4.2-4.7,4.1h-4.6c-1.4,0-2.5,1.1-2.5,2.5s1.1,2.5,2.5,2.5c2.4,0,4.4,1.9,4.4,4.4,0,0,0,.2,0,.2-.3,2.4-2.3,4.2-4.7,4.1h-36.5c-1.5,0-2.9-.4-4.1-1.2l-7.1-4.4c-2-1.3-4.4-1.9-6.8-1.9h-8.3c-2.8,0-5-2.2-5-5v-32.5c0-2.8,2.2-5,5-5h7.2c3.3,0,6.4-1.7,8.1-4.5,3.5-5.2,8-9.7,13.2-13.3h0Z"/>
    </g>
  </g>
</svg>