<?xml version="1.0" encoding="UTF-8"?>
<svg id="Layer_1" data-name="Layer 1" xmlns="http://www.w3.org/2000/svg" viewBox="0 0 120.69 120">
  <defs>
    <style>
      .cls-1, .cls-2 {
        fill: #fff;
      }

      .cls-2 {
        fill-rule: evenodd;
      }
    </style>
  </defs>
  <path class="cls-2" d="M45.05,39.46c-5.05,0-9.16,4.11-9.16,9.16s4.11,9.16,9.16,9.16,9.16-4.11,9.16-9.16-4.11-9.16-9.16-9.16ZM45.05,55.49c-3.79,0-6.87-3.08-6.87-6.87s3.08-6.87,6.87-6.87,6.87,3.08,6.87,6.87-3.08,6.87-6.87,6.87ZM63.32,44.26l-2.95-.64c-.26-.78-.57-1.55-.95-2.29l1.63-2.54c.29-.45.23-1.05-.15-1.43l-4.59-4.59c-.38-.38-.98-.44-1.43-.15l-2.54,1.63c-.74-.37-1.5-.69-2.29-.95l-.64-2.95c-.11-.53-.58-.9-1.12-.9h-6.49c-.54,0-1,.38-1.12.9l-.64,2.95c-.78.26-1.55.57-2.29.95l-2.54-1.63c-.45-.29-1.05-.23-1.43.15l-4.59,4.59c-.38.38-.44.98-.15,1.43l1.63,2.54c-.37.74-.69,1.5-.95,2.29l-2.95.64c-.53.11-.9.58-.9,1.12v6.49c0,.54.38,1,.9,1.12l2.95.64c.26.78.57,1.55.95,2.29l-1.63,2.54c-.29.45-.23,1.05.15,1.43l4.59,4.59c.38.38.98.44,1.43.15l2.54-1.63c.74.37,1.5.69,2.29.95l.64,2.95c.11.53.58.9,1.12.9h6.49c.54,0,1-.38,1.12-.9l.64-2.95c.78-.26,1.55-.57,2.29-.95l2.54,1.63c.45.29,1.05.23,1.43-.15l4.59-4.59c.38-.38.44-.98.15-1.43l-1.63-2.54c.37-.74.69-1.5.95-2.29l2.95-.64c.53-.11.9-.58.9-1.12v-6.49c0-.54-.38-1-.9-1.12ZM61.93,50.94l-2.7.59c-.42.09-.75.4-.86.81-.3,1.06-.72,2.09-1.27,3.06-.21.37-.2.83.03,1.18l1.5,2.33-3.28,3.28-2.33-1.5c-.36-.23-.81-.24-1.18-.03-.97.55-2,.97-3.06,1.27-.41.11-.72.45-.81.86l-.59,2.7h-4.64l-.59-2.7c-.09-.42-.4-.75-.81-.86-1.06-.3-2.09-.72-3.06-1.27-.37-.21-.83-.2-1.18.03l-2.33,1.5-3.28-3.28,1.5-2.33c.23-.36.24-.81.03-1.18-.55-.97-.97-2-1.27-3.06-.11-.41-.44-.72-.86-.81l-2.7-.59v-4.64l2.7-.59c.42-.09.75-.4.86-.81.3-1.06.72-2.09,1.27-3.06.21-.37.2-.83-.03-1.18l-1.5-2.33,3.28-3.28,2.33,1.5c.36.23.81.24,1.18.03.97-.55,2-.97,3.06-1.27.41-.11.72-.45.81-.86l.59-2.7h4.64l.59,2.7c.09.42.4.75.81.86,1.06.3,2.09.72,3.06,1.27.37.21.83.2,1.18-.03l2.33-1.5,3.28,3.28-1.5,2.33c-.23.36-.24.81-.03,1.18.55.97.97,2,1.27,3.06.11.41.44.72.86.81l2.7.59v4.64Z"/>
  <g>
    <path class="cls-1" d="M73.86,66.93h0c.51.51,1.33.51,1.84,0s.51-1.33,0-1.84l-7.06-7.06c-.51-.51-1.33-.51-1.84,0s-.51,1.33,0,1.84l7.06,7.06Z"/>
    <path class="cls-1" d="M55.63,72.28c-.51-.51-1.33-.51-1.84,0-.51.51-.51,1.33,0,1.84l8.03,8.03v10.34c0,.72.58,1.3,1.3,1.3s1.3-.58,1.3-1.3v-10.88c0-.33-.13-.67-.38-.92l-8.41-8.41Z"/>
    <path class="cls-1" d="M44.81,88.62c-.72,0-1.3.58-1.3,1.3v17.27c0,.72.58,1.3,1.3,1.3s1.3-.58,1.3-1.3v-17.27c0-.72-.58-1.3-1.3-1.3Z"/>
    <path class="cls-1" d="M86.56,48.09c-.72,0-1.3.58-1.3,1.3s.58,1.3,1.3,1.3h16.1c.72,0,1.3-.58,1.3-1.3s-.58-1.3-1.3-1.3h-16.1Z"/>
  </g>
  <path class="cls-1" d="M24.84,44.84l.03-1.79c-.44,0,.21.02-.25.02-10.55,0-17.64-2.68-17.64-4.55v-7.91c.05.04.13.07.18.11.3.2.64.4,1,.59.1.05.2.1.3.15.47.22.97.43,1.52.63.03.01.06.02.09.03,3.62,1.27,8.79,1.93,13.93,1.93,1.16,0,2.31-.04,3.46-.1l1.93-1.93c-1.65.16-3.45.25-5.39.25-10.55,0-17.02-2.61-17.02-4.48v-7.91c.05.04.13.07.18.11.3.2.64.4,1,.59.1.05.2.1.3.15.47.22.97.43,1.52.63.03.01.06.02.09.03,3.62,1.27,8.79,1.93,13.93,1.93s10.31-.66,13.93-1.93c.03-.01.06-.02.09-.03.54-.19,1.05-.4,1.52-.63.11-.05.2-.1.3-.15.37-.19.7-.38,1-.59.06-.04.13-.07.18-.11v5.97c.05,0,.1-.03.16-.03h1.64V6.27c0-4.12-9.46-6.27-18.81-6.27S5.19,2.15,5.19,6.27v32.25c0,3.86,8.3,5.99,17.04,6.25h0c3.05.05,1.98.21,2.61.07ZM24.01,1.79c10.55,0,17.02,2.61,17.02,4.48s-6.48,4.48-17.02,4.48S6.99,8.14,6.99,6.27,13.46,1.79,24.01,1.79ZM6.99,9.11c.05.04.13.07.18.11.3.2.64.4,1,.59.1.05.2.1.3.15.47.22.97.43,1.52.63.03.01.06.02.09.03,3.62,1.27,8.79,1.93,13.93,1.93s10.31-.66,13.93-1.93c.03-.01.06-.02.09-.03.54-.19,1.05-.4,1.52-.63.11-.05.2-.1.3-.15.37-.19.7-.38,1-.59.06-.04.13-.07.18-.11v7.91c0,1.87-6.48,4.48-17.02,4.48s-17.02-2.61-17.02-4.48v-7.91Z"/>
  <rect class="cls-1" x="10.23" y="13.52" width="1.25" height="1.25" rx=".11" ry=".11"/>
  <rect class="cls-1" x="10.23" y="15.85" width="1.25" height="1.25" rx=".11" ry=".11"/>
  <rect class="cls-1" x="10.23" y="24.56" width="1.25" height="1.25" rx=".11" ry=".11"/>
  <rect class="cls-1" x="10.23" y="26.88" width="1.25" height="1.25" rx=".11" ry=".11"/>
  <rect class="cls-1" x="10.23" y="35.17" width="1.25" height="1.25" rx=".11" ry=".11"/>
  <rect class="cls-1" x="10.23" y="37.5" width="1.25" height="1.25" rx=".11" ry=".11"/>
  <path class="cls-1" d="M58.19,96.94v-7.28c0-.33-.13-.67-.38-.92l-11.7-11.7v-4.68h-2.6v4.68l-8.02,8.02c-.81-.49-1.75-.76-2.76-.76-2.96,0-5.37,2.4-5.37,5.37,0,2.51,1.73,4.63,4.06,5.21v14.55c-2.33.58-4.06,2.69-4.06,5.21,0,2.96,2.4,5.37,5.37,5.37s5.37-2.4,5.37-5.37c0-2.51-1.73-4.63-4.06-5.21v-14.55c2.33-.58,4.06-2.69,4.06-5.21,0-1.01-.28-1.95-.76-2.76l7.48-7.48,10.78,10.78v6.74c-2.33.58-4.06,2.69-4.06,5.21,0,2.96,2.4,5.37,5.37,5.37s5.37-2.4,5.37-5.37c0-2.51-1.73-4.63-4.06-5.21ZM36.29,114.78c0,1.94-1.57,3.52-3.52,3.52s-3.52-1.57-3.52-3.52,1.57-3.52,3.52-3.52,3.52,1.57,3.52,3.52ZM32.77,93.29c-1.97,0-3.56-1.59-3.56-3.56s1.59-3.56,3.56-3.56,3.56,1.59,3.56,3.56-1.59,3.56-3.56,3.56ZM56.92,105.8c-1.94,0-3.52-1.57-3.52-3.52s1.57-3.52,3.52-3.52,3.52,1.57,3.52,3.52-1.57,3.52-3.52,3.52Z"/>
  <path class="cls-1" d="M109.44,95.07c-2.51,0-4.63,1.73-5.21,4.06h-8.21l-13.81-13.81c-.51-.51-1.33-.51-1.84,0-.51.51-.51,1.33,0,1.84l14.19,14.19c.24.24.57.38.92.38h8.74c.58,2.33,2.69,4.06,5.21,4.06,2.96,0,5.37-2.4,5.37-5.37s-2.4-5.37-5.37-5.37ZM109.43,103.93c-1.94,0-3.52-1.57-3.52-3.52s1.57-3.52,3.52-3.52,3.52,1.57,3.52,3.52-1.57,3.52-3.52,3.52Z"/>
  <path class="cls-1" d="M96.96,70.47c-2.51,0-4.63,1.73-5.21,4.06h-19.88l-9.84-9.84-1.84,1.84,9.84,9.84v19.17c0,.36.15.69.39.93l13.9,13.9c-.49.81-.76,1.75-.76,2.76,0,2.96,2.4,5.37,5.37,5.37s5.37-2.4,5.37-5.37-2.4-5.37-5.37-5.37h0c-1.01,0-1.95.28-2.76.76l-13.53-13.53v-17.87h19.12c.58,2.33,2.69,4.06,5.21,4.06,2.96,0,5.37-2.4,5.37-5.37s-2.4-5.37-5.37-5.37ZM89.04,109.69c1.94,0,3.52,1.57,3.52,3.52s-1.57,3.52-3.52,3.52-3.52-1.57-3.52-3.52,1.57-3.52,3.52-3.52ZM97.03,79.43c-1.94,0-3.52-1.57-3.52-3.52s1.57-3.52,3.52-3.52,3.52,1.57,3.52,3.52-1.57,3.52-3.52,3.52Z"/>
  <path class="cls-1" d="M110.13,56.02h0c-2.51,0-4.63,1.73-5.21,4.06h-14.55c-.58-2.33-2.69-4.06-5.21-4.06-1.01,0-1.95.28-2.76.76l-7.48-7.48,7.48-7.48c.81.49,1.75.76,2.76.76,2.51,0,4.63-1.73,5.21-4.06h14.55c.58,2.33,2.69,4.06,5.21,4.06,2.96,0,5.37-2.4,5.37-5.37s-2.4-5.37-5.37-5.37c-2.51,0-4.63,1.73-5.21,4.06h-14.55c-.58-2.33-2.69-4.06-5.21-4.06-2.96,0-5.37,2.4-5.37,5.37,0,1.01.28,1.95.76,2.76l-8.02,8.02h-4.68v2.6h4.68l8.02,8.02c-.49.81-.76,1.75-.76,2.76,0,2.96,2.4,5.37,5.37,5.37,2.51,0,4.63-1.73,5.21-4.06h14.55c.58,2.33,2.69,4.06,5.21,4.06,2.96,0,5.37-2.4,5.37-5.37s-2.4-5.37-5.37-5.37ZM110.09,33.67c1.94,0,3.52,1.57,3.52,3.52s-1.57,3.52-3.52,3.52-3.52-1.57-3.52-3.52,1.57-3.52,3.52-3.52ZM85.26,33.67c1.94,0,3.52,1.57,3.52,3.52s-1.57,3.52-3.52,3.52-3.52-1.57-3.52-3.52,1.57-3.52,3.52-3.52ZM85.08,65.03c-1.94,0-3.52-1.57-3.52-3.52s1.57-3.52,3.52-3.52,3.52,1.57,3.52,3.52-1.57,3.52-3.52,3.52ZM110.18,65.06c-1.94,0-3.52-1.57-3.52-3.52s1.57-3.52,3.52-3.52,3.52,1.57,3.52,3.52-1.57,3.52-3.52,3.52Z"/>
</svg>