<svg xmlns="http://www.w3.org/2000/svg" version="1.1" xmlns:xlink="http://www.w3.org/1999/xlink" width="512" height="512" x="0" y="0" viewBox="0 0 100 100" style="enable-background:new 0 0 512 512" xml:space="preserve" class=""><g><path d="M58.6 8.63a1.46 1.46 0 0 0-1.46 1.45v37.75a1.47 1.47 0 0 0 1 1.39L93.39 60.6a1.33 1.33 0 0 0 .45.07 1.42 1.42 0 0 0 1.38-1A39.88 39.88 0 0 0 97 47.83c0-21.61-17.23-39.2-38.4-39.2Zm7.91 40.23-6.46-2.08V11.57a34.43 34.43 0 0 1 6.46.89Zm9.26 3-6.35-2.06V13.27a35.07 35.07 0 0 1 6.35 2.82Zm9.25 3-6.34-2.06V17.93A35.81 35.81 0 0 1 85 23.64Zm7.83 2.53-4.92-1.6V27.44a37 37 0 0 1 4.92 29.94Z" fill="#c14616" opacity="1" data-original="#000000"></path><path d="M88.63 62.17 54.4 51.11v-36.7A1.45 1.45 0 0 0 53 13a38.29 38.29 0 0 0-33.38 19.71 15.8 15.8 0 0 0-1.84-.12A14.76 14.76 0 0 0 6.56 57a4.89 4.89 0 0 0-3.23 4.59v1.01a4.86 4.86 0 0 0 1.42 3.45 4.89 4.89 0 0 0-1.42 3.45v1.06A4.89 4.89 0 0 0 4.75 74a4.86 4.86 0 0 0-1.42 3.45v1.05A4.88 4.88 0 0 0 4.75 82a4.89 4.89 0 0 0-1.42 3.45v1.06a4.91 4.91 0 0 0 4.9 4.9h19.1a4.91 4.91 0 0 0 4.9-4.9V85.13A37.57 37.57 0 0 0 53 91.37 38.34 38.34 0 0 0 89.57 64a1.44 1.44 0 0 0-.94-1.83ZM5.91 47.37a11.87 11.87 0 1 1 11.87 11.87A11.89 11.89 0 0 1 5.91 47.37Zm23.42 39.1a2 2 0 0 1-2 2H8.23a2 2 0 0 1-2-2v-1.06a2 2 0 0 1 2-2h19.1a2 2 0 0 1 2 2Zm0-8a2 2 0 0 1-2 2H8.23a2 2 0 0 1-2-2v-1.01a2 2 0 0 1 2-2h19.1a2 2 0 0 1 2 2Zm0-8a2 2 0 0 1-2 2H8.23a2 2 0 0 1-2-2v-.97a2 2 0 0 1 2-2h19.1a2 2 0 0 1 2 2Zm0-8a2 2 0 0 1-2 2H8.23a2 2 0 0 1-2-2v-.92a2 2 0 0 1 2-2h1.2a14.71 14.71 0 0 0 16.7 0h1.2a2 2 0 0 1 2 2ZM53 88.46a34.79 34.79 0 0 1-21.45-7.4 4.81 4.81 0 0 0 .73-2.55v-1.05A4.86 4.86 0 0 0 30.81 74a4.89 4.89 0 0 0 1.42-3.45V69.5a4.89 4.89 0 0 0-1.42-3.45 4.86 4.86 0 0 0 1.42-3.45v-1.05A4.89 4.89 0 0 0 29 57a14.74 14.74 0 0 0-6.42-23.6 35.4 35.4 0 0 1 28.91-17.5v36.26a1.47 1.47 0 0 0 1 1.39l33.85 10.93A35.39 35.39 0 0 1 53 88.46Z" fill="#c14616" opacity="1" data-original="#000000"></path><path d="M17.59 54.08a2.89 2.89 0 0 1-3.11-2.59h-2.91a5.7 5.7 0 0 0 5.22 5.44v1h2.9v-1.3a5.55 5.55 0 0 0 3.93-5.14A5.72 5.72 0 0 0 18.17 46a2.7 2.7 0 0 1-2.91-2.4 2.7 2.7 0 0 1 2.91-2.41 2.69 2.69 0 0 1 2.91 2.41H24a5.41 5.41 0 0 0-4.3-5.12v-1.64h-2.9v1.6a5.45 5.45 0 0 0-4.44 5.16 5.53 5.53 0 0 0 5.24 5.28 2.89 2.89 0 0 1 3.12 2.58 2.89 2.89 0 0 1-3.13 2.62Z" fill="#c14616" opacity="1" data-original="#000000"></path></g></svg>