<?xml version="1.0" encoding="UTF-8"?>
<svg id="Layer_1" data-name="Layer 1" xmlns="http://www.w3.org/2000/svg" viewBox="0 0 120.69 120">
  <defs>
    <style>
      .cls-1 {
        fill: none;
        stroke: #fff;
        stroke-linecap: round;
        stroke-linejoin: round;
        stroke-width: 3px;
      }
    </style>
  </defs>
  <g>
    <path class="cls-1" d="M14.08,99.27c-.46-1.52-.7-3.13-.7-4.8s.24-3.21.67-4.71c-3.69-1.92-6.22-5.78-6.22-10.24,0-2.56.84-4.93,2.25-6.84-4.84-2.05-8.24-6.85-8.24-12.44,0-4.22,1.94-7.99,4.97-10.47-1.27-1.47-2.04-3.39-2.04-5.49,0-4.08,2.91-7.49,6.78-8.24-.19-.91-.29-1.85-.29-2.81,0-5.69,3.52-10.55,8.49-12.55-.25-.95-.39-1.95-.39-2.97,0-6.37,5.16-11.53,11.53-11.53,2.27,0,4.39.66,6.17,1.79,1.57-2.72,4.13-4.79,7.19-5.71"/>
    <path class="cls-1" d="M51.96,2.39c4.89,1.69,8.4,6.33,8.4,11.8v88.52c0,8.3-6.73,15.04-15.04,15.04-5.27,0-9.91-2.71-12.59-6.81-.87.14-1.76.21-2.67.21-4.68,0-8.92-1.93-11.95-5.04"/>
    <g>
      <path class="cls-1" d="M19.35,17.73c0,6.36,5.16,11.52,11.52,11.52"/>
      <path class="cls-1" d="M30.05,77.76c-9.21,0-16.67,7.47-16.67,16.67"/>
      <path class="cls-1" d="M11.85,47.19c-5.76,1.54-10.01,6.79-10.01,13.04,0,7.45,6.04,13.5,13.5,13.5"/>
      <path class="cls-1" d="M40.56,36.77c5.46-1.49,8.67-7.12,7.18-12.58"/>
      <path class="cls-1" d="M38.42,94.35c3.87-.35,6.71-3.78,6.36-7.64"/>
      <path class="cls-1" d="M31.1,61.76c-.01-3.54-2.89-6.4-6.43-6.39"/>
      <path class="cls-1" d="M30.27,102.68c0,8.3,6.73,15.03,15.03,15.03"/>
    </g>
    <path class="cls-1" d="M60.36,68.25h-7.85c-3.74,0-6.78-3.03-6.78-6.78v-.68"/>
    <path class="cls-1" d="M52.51,68.25h-5.02c-2.99,0-5.41,2.42-5.41,5.41h0"/>
  </g>
  <g>
    <path class="cls-1" d="M60.36,81.66h27.63c.91,0,1.65-.74,1.65-1.65v-40.64c0-.91-.74-1.65-1.65-1.65h-27.63"/>
    <line class="cls-1" x1="67.7" y1="37.49" x2="67.7" y2="30.48"/>
    <polyline class="cls-1" points="75.01 37.49 75.01 23.12 82.35 23.12 82.35 15.81"/>
    <polyline class="cls-1" points="82.32 37.49 82.32 30.23 89.62 30.23"/>
    <line class="cls-1" x1="89.67" y1="44.83" x2="96.92" y2="44.83"/>
    <line class="cls-1" x1="89.67" y1="52.15" x2="111.56" y2="52.15"/>
    <polyline class="cls-1" points="89.67 59.46 100.57 59.46 107.92 66.94"/>
    <line class="cls-1" x1="89.67" y1="66.78" x2="96.92" y2="66.78"/>
    <polyline class="cls-1" points="89.67 74.09 100.59 74.09 100.59 81.64"/>
    <polyline class="cls-1" points="67.7 81.9 67.7 96.27 74.99 96.27 74.99 107.26"/>
    <line class="cls-1" x1="75.01" y1="89.16" x2="75.01" y2="81.9"/>
    <polyline class="cls-1" points="82.32 81.9 82.32 88.91 89.62 88.91 89.62 99.92"/>
    <path class="cls-1" d="M82.35,59.51v13.18c0,.91-.74,1.65-1.65,1.65h-20.34"/>
    <path class="cls-1" d="M60.36,45.05h20.34c.91,0,1.65.74,1.65,1.65v5.11"/>
  </g>
  <circle class="cls-1" cx="93.29" cy="30.17" r="3.63"/>
  <circle class="cls-1" cx="115.22" cy="52.15" r="3.63"/>
  <circle class="cls-1" cx="111.56" cy="70.65" r="3.63"/>
  <circle class="cls-1" cx="100.59" cy="85.29" r="3.63"/>
  <circle class="cls-1" cx="82.28" cy="12.15" r="3.63"/>
  <circle class="cls-1" cx="74.99" cy="110.89" r="3.63"/>
  <circle class="cls-1" cx="89.62" cy="103.58" r="3.63"/>
</svg>