<svg width="24" height="24" viewBox="0 0 24 24" fill="none" xmlns="http://www.w3.org/2000/svg">
<g clip-path="url(#clip0_35_1853)">
<path d="M22.6918 0.281494H21.1964C20.7533 0.281494 20.3784 0.565182 20.2349 0.959213H12.9714C12.1107 0.959213 11.2642 1.19078 10.5234 1.62887L5.94369 4.33731C5.2896 4.72407 5.11039 5.59365 5.56232 6.20762C5.93835 6.71874 6.64452 6.87896 7.2043 6.58042L9.95432 5.11337C10.0978 5.58563 10.5373 5.93031 11.0559 5.93031H13.5544C13.9312 5.93031 14.3035 6.02218 14.6312 6.1959C16.9038 7.40068 18.8718 7.17024 20.239 6.19538C20.3861 6.58267 20.7582 6.85988 21.1964 6.85988H22.6918C23.2579 6.85988 23.7185 6.39934 23.7185 5.83318V1.30806C23.7185 0.742041 23.2579 0.281494 22.6918 0.281494ZM20.1695 5.52624C19.7856 5.88662 17.9733 7.32109 14.899 5.69082C14.4892 5.47356 14.0242 5.35867 13.5544 5.35867H11.056C10.7364 5.35867 10.4765 5.09874 10.4765 4.7792C10.4765 4.46181 10.7344 4.19987 11.056 4.19987H13.7996C13.9575 4.19987 14.0854 4.0719 14.0854 3.91407C14.0854 3.75624 13.9574 3.62828 13.7996 3.62828H11.056C10.5287 3.62828 10.0829 3.98476 9.94733 4.46931L6.93528 6.07604C6.62389 6.24217 6.23155 6.15306 6.02277 5.86881C5.77264 5.5292 5.86789 5.04643 6.23469 4.82935L10.8144 2.12092C11.4671 1.73485 12.213 1.53085 12.9714 1.53085H20.1697L20.1695 5.52624ZM23.1468 5.83314C23.1468 6.0841 22.9427 6.2882 22.6918 6.2882H21.1964C20.9455 6.2882 20.7414 6.0841 20.7414 5.83314V1.30806C20.7414 1.05718 20.9455 0.853088 21.1964 0.853088H22.6918C22.9427 0.853088 23.1468 1.05718 23.1468 1.30806V5.83314Z" fill="#C14616"/>
<path d="M16.7958 17.4196L14.0458 18.8865C13.9022 18.4143 13.4626 18.0696 12.9441 18.0696H10.4457C10.0689 18.0696 9.69656 17.9777 9.36885 17.804C6.52073 16.294 4.57476 17.2244 3.76115 17.8039C3.6141 17.4168 3.24206 17.1397 2.80396 17.1397H1.30799C0.741931 17.1397 0.281525 17.6002 0.281525 18.1662V22.692C0.281525 23.2581 0.741978 23.7185 1.30799 23.7185H2.80396C3.24707 23.7185 3.62188 23.4348 3.76537 23.0407H11.0287C11.8896 23.0407 12.7361 22.8091 13.4766 22.371L18.0563 19.6626C18.7104 19.2758 18.8896 18.4063 18.4377 17.7923C18.0619 17.281 17.356 17.121 16.7958 17.4196ZM2.80396 23.1469H1.30799C1.05721 23.1469 0.853118 22.9428 0.853118 22.692V18.1662C0.853118 17.9154 1.05721 17.7113 1.30799 17.7113H2.80396C3.05474 17.7113 3.25884 17.9154 3.25884 18.1662V22.692C3.25884 22.9428 3.05474 23.1469 2.80396 23.1469ZM17.7654 19.1706L13.1856 21.8791C12.5332 22.2651 11.7874 22.4691 11.0287 22.4691H3.83048V18.475C4.2111 18.1259 6.04982 16.6912 9.10115 18.3091C9.51088 18.5264 9.97593 18.6413 10.4457 18.6413H12.9441C13.2637 18.6413 13.5236 18.9012 13.5236 19.2208C13.5236 19.5389 13.265 19.8002 12.9441 19.8002H10.2005C10.0426 19.8002 9.91471 19.9282 9.91471 20.086C9.91471 20.2439 10.0427 20.3718 10.2005 20.3718H12.9441C13.4714 20.3718 13.9172 20.0153 14.0528 19.5307L17.0648 17.9241C17.376 17.7584 17.7686 17.8471 17.9774 18.1312C18.2274 18.4708 18.1322 18.9535 17.7654 19.1706Z" fill="#C14616"/>
<path d="M17.3595 12.0015C17.3595 9.04556 14.9559 6.64069 12.0015 6.64069C9.04546 6.64069 6.64053 9.04556 6.64053 12.0015C6.64053 14.956 9.04541 17.3596 12.0015 17.3596C14.9559 17.3596 17.3595 14.956 17.3595 12.0015ZM7.21213 12.0015C7.21213 9.36075 9.36069 7.21233 12.0015 7.21233C14.6407 7.21233 16.7878 9.36075 16.7878 12.0015C16.7878 14.6408 14.6407 16.788 12.0015 16.788C9.36069 16.788 7.21213 14.6408 7.21213 12.0015Z" fill="#C14616"/>
<path d="M15.6089 12.0011C15.6089 10.0107 13.9905 8.39124 12.0011 8.39124C10.0105 8.39124 8.39104 10.0107 8.39104 12.0011C8.39104 13.9906 10.0105 15.6091 12.0011 15.6091C13.9905 15.6091 15.6089 13.9905 15.6089 12.0011ZM12.0011 15.0375C10.3257 15.0375 8.96268 13.6754 8.96268 12.0011C8.96268 10.3259 10.3257 8.96288 12.0011 8.96288C13.6752 8.96288 15.0373 10.3259 15.0373 12.0011C15.0373 13.6754 13.6752 15.0375 12.0011 15.0375Z" fill="#C14616"/>
<path d="M12 10.5997C12.3072 10.5997 12.5572 10.8496 12.5572 11.1568C12.5572 11.3147 12.6851 11.4426 12.8429 11.4426C13.0008 11.4426 13.1287 11.3146 13.1287 11.1568C13.1287 10.6337 12.7694 10.1967 12.2858 10.0693V9.77371C12.2858 9.61584 12.1578 9.48792 12 9.48792C11.8422 9.48792 11.7142 9.61588 11.7142 9.77371V10.0693C11.2306 10.1967 10.8712 10.6337 10.8712 11.1568C10.8712 11.7793 11.3776 12.2856 12 12.2856C12.3071 12.2856 12.5571 12.5355 12.5571 12.8428C12.5571 13.1501 12.3071 13.3999 12 13.3999C11.6929 13.3999 11.4429 13.15 11.4429 12.8428C11.4429 12.6849 11.3149 12.557 11.1571 12.557C10.9993 12.557 10.8713 12.685 10.8713 12.8428C10.8713 13.3659 11.2306 13.8029 11.7142 13.9304V14.2259C11.7142 14.3838 11.8422 14.5117 12 14.5117C12.1579 14.5117 12.2858 14.3837 12.2858 14.2259V13.9304C12.7694 13.8029 13.1288 13.3659 13.1288 12.8428C13.1288 12.2204 12.6224 11.7139 12 11.7139C11.6929 11.7139 11.4429 11.4639 11.4429 11.1568C11.4429 10.8496 11.6929 10.5997 12 10.5997Z" fill="#C14616"/>
</g>
<defs>
<clipPath id="clip0_35_1853">
<rect width="24" height="24" fill="white"/>
</clipPath>
</defs>
</svg>
