<?xml version="1.0" encoding="UTF-8"?>
<svg id="Layer_1" xmlns="http://www.w3.org/2000/svg" viewBox="0 0 837.97 418.42">
  <defs>
    <style>
      .cls-1 {
        fill: #dc3545;
      }

      .cls-2 {
        fill: #fff;
      }

      .cls-3 {
        font-family: ArialMT, Arial;
        font-size: 60px;
      }

      .cls-3, .cls-4 {
        isolation: isolate;
      }

      .cls-5 {
        fill: #28a745;
      }

      .cls-6 {
        fill: #fabd07;
      }

      .cls-7 {
        fill-rule: evenodd;
      }
    </style>
  </defs>
  <path class="cls-1" d="M0,418.42h129.75c.18-91.21,42.58-172.49,108.68-225.38l-73.64-107.14C64.76,162.34.18,282.83,0,418.42Z"/>
  <path class="cls-6" d="M418.98,0c-95.22,0-183.02,31.77-253.39,85.29l73.62,107.12c49.36-39.22,111.82-62.66,179.77-62.66s136.34,25.73,186.73,68.37l73.76-107.31C607.95,33.96,517.44,0,418.98,0Z"/>
  <path class="cls-5" d="M680.25,91.43l-73.77,107.34c62.12,52.94,101.57,131.68,101.74,219.65h129.75c-.18-132.36-61.73-250.33-157.72-326.99Z"/>
  <path class="cls-2" d="M164.79,85.89l73.64,107.14c.26-.21.52-.42.78-.63l-73.62-107.12c-.27.2-.53.4-.8.6h0Z"/>
  <path class="cls-2" d="M679.47,90.8l-73.76,107.31c.26.22.51.43.77.65l73.77-107.34c-.26-.21-.52-.42-.78-.62Z"/>
  <g class="cls-4">
    <text class="cls-3" transform="translate(358.94 225.21)"><tspan x="0" y="0">75%</tspan></text>
  </g>
  <path id="_349456216" class="cls-7" d="M460.32,367c-1.04,12.31-7.58,23.56-17.95,30.57-18.78,12.66-44.35,7.69-57.01-11.09-12.66-18.78-7.69-44.35,11.09-57.01,10.38-7,23.27-8.83,35.07-5.2l241.45-140.06,7.7,11.43-220.35,171.35h0Z"/>
</svg>