<?xml version="1.0" encoding="UTF-8"?>
<svg id="Layer_1" xmlns="http://www.w3.org/2000/svg" viewBox="0 0 837.97 418.42">
  <defs>
    <style>
      .cls-1 {
        font-family: ArialMT, Arial;
        font-size: 60px;
      }

      .cls-2 {
        fill: #dc3545;
      }

      .cls-3 {
        fill: #fff;
      }

      .cls-4 {
        fill: #28a745;
      }

      .cls-5 {
        fill: #fabd07;
      }

      .cls-6 {
        fill-rule: evenodd;
      }
    </style>
  </defs>
  <path class="cls-2" d="M0,418.42h129.75c.18-91.21,42.58-172.49,108.68-225.38l-73.64-107.14C64.76,162.34.18,282.83,0,418.42Z"/>
  <path class="cls-5" d="M418.98,0c-95.22,0-183.02,31.77-253.39,85.29l73.62,107.12c49.36-39.22,111.82-62.66,179.77-62.66s136.34,25.73,186.73,68.37l73.76-107.31C607.95,33.96,517.44,0,418.98,0Z"/>
  <path class="cls-4" d="M680.25,91.43l-73.77,107.34c62.12,52.94,101.57,131.68,101.74,219.65h129.75c-.18-132.36-61.73-250.33-157.72-326.99Z"/>
  <path class="cls-3" d="M164.79,85.89l73.64,107.14c.26-.21.52-.42.78-.63l-73.62-107.12c-.27.2-.53.4-.8.6h0Z"/>
  <path class="cls-3" d="M679.47,90.8l-73.76,107.31c.26.22.51.43.77.65l73.77-107.34c-.26-.21-.52-.42-.78-.62Z"/>
  <path id="_349456216" class="cls-6" d="M460.03,383.68c-1.9,12.21-9.2,22.98-20.04,29.24-19.61,11.32-44.78,4.58-56.1-15.03-11.32-19.61-4.58-44.78,15.03-56.1,10.84-6.26,23.83-7.19,35.35-2.74l250.62-122.91,6.89,11.94-231.75,155.59h0Z"/>
  <text class="cls-1" transform="translate(342.26 225.21)"><tspan x="0" y="0">143%</tspan></text>
</svg>