<?xml version="1.0" encoding="UTF-8"?>
<svg id="Layer_1" xmlns="http://www.w3.org/2000/svg" version="1.1" viewBox="0 0 512 512">
  <!-- Generator: Adobe Illustrator 29.3.1, SVG Export Plug-In . SVG Version: 2.1.0 Build 151)  -->
  <defs>
    <style>
      .st0 {
        fill: #c14400;
      }
    </style>
  </defs>
  <path class="st0" d="M286.3,156.5h84.7c4.8,0,8.7-3.9,8.7-8.7s-3.9-8.7-8.7-8.7h-84.7c-4.8,0-8.7,3.9-8.7,8.7s3.9,8.7,8.7,8.7h0Z"/>
  <path class="st0" d="M371,208.3h-90.4c-4.8,0-8.7,3.9-8.7,8.7s3.9,8.7,8.7,8.7h90.4c4.8,0,8.7-3.9,8.7-8.7s-3.9-8.7-8.7-8.7Z"/>
  <path class="st0" d="M231.5,150.3c-3.1-3.6-8.6-4.1-12.3-1-3.7,3.1-4.1,8.6-1,12.3l10.9,12.8c1.7,1.9,4.1,3.1,6.6,3.1,3.2-.4,5-1.1,6.7-3.1l34.4-41.1c3.1-3.7,2.6-9.2-1.1-12.2s-9.2-2.6-12.2,1.1l-27.8,33.2-4.2-5Z"/>
  <path class="st0" d="M275.8,184.4c-3.7-3.1-9.2-2.6-12.2,1.1l-27.8,33.3-4.2-5c-3.1-3.6-8.6-4.1-12.3-1-3.7,3.1-4.1,8.6-1,12.3l10.9,12.8c1.7,1.9,4.1,3.1,6.6,3.1,3.2.6,5-1.1,6.7-3.1l34.4-41.2c3.1-3.7,2.6-9.2-1.1-12.2h0Z"/>
  <path class="st0" d="M483.9,270.8c-4.9-6.3-12.9-10.1-21.5-10.1h-55.9V105c0-9.8-7.9-17.7-17.5-17.7h-41.1s.2-18.3.2-18.3c0-9.4-7.8-17.1-17.3-17.1h-24.6v-18.4c.3-4.6-1.3-9-4.5-12.3-3.2-3.4-7.7-5.3-12.4-5.3l-165.6.2c-10,0-18.1,8.1-18.1,18.1v226.5h-55.9c-8.6,0-16.7,3.8-21.5,10.1-4.1,5.4-5.5,12.1-3.9,18.5l49.9,188.8c2.8,10.5,13.2,17.9,25.4,17.9h312.8c12.2,0,22.6-7.4,25.4-17.9l49.9-188.8c1.7-6.4.3-13.1-3.9-18.5h0ZM389.1,105v155.7h-182.9l.7-155.8,29-.2,153.2.3ZM330.4,87.4h-123.6c-10,.1-18.1,8.3-18.1,18.2v155.1h-24.3l.7-191.4h132.7l32.8-.4-.2,18.4ZM123.6,33.5l165.3-.4-.2,18.8h-123.6c-10,0-18.1,8.1-18.1,18.1v190.7h-24.1l.7-227.2ZM470.9,284.9l-49.9,188.8c-.6,2.4-4,4.9-8.6,4.9H99.6c-4.6,0-8-2.5-8.6-4.9l-49.9-188.8c-.1-.4-.5-1.8.8-3.5,1.2-1.6,3.9-3.3,7.8-3.3h412.7c3.9,0,6.6,1.7,7.8,3.3,1.3,1.7,1,3.1.8,3.5h0Z"/>
  <path class="st0" d="M395.6,335.7H116.4c-4.8,0-8.7,3.9-8.7,8.7s3.9,8.7,8.7,8.7h279.2c4.8,0,8.7-3.9,8.7-8.7s-3.9-8.7-8.7-8.7Z"/>
  <path class="st0" d="M364.4,403.6h-216.8c-4.8,0-8.7,3.9-8.7,8.7s3.9,8.7,8.7,8.7h216.8c4.8,0,8.7-3.9,8.7-8.7,0-4.8-3.9-8.7-8.7-8.7Z"/>
</svg>