<?xml version="1.0" encoding="UTF-8"?>
<svg id="Layer_1" xmlns="http://www.w3.org/2000/svg" version="1.1" viewBox="0 0 32 32">
  <!-- Generator: Adobe Illustrator 29.3.1, SVG Export Plug-In . SVG Version: 2.1.0 Build 151)  -->
  <defs>
    <style>
      .st0 {
        fill: #c14400;
        fill-rule: evenodd;
      }
    </style>
  </defs>
  <path class="st0" d="M5,2c-1.7,0-3,1.3-3,3v22c0,1.7,1.3,3,3,3h22c1.7,0,3-1.3,3-3V5c0-1.7-1.3-3-3-3H5ZM10,23h18v-3H10v3ZM8,10h-4v17c0,.6.4,1,1,1h3V10ZM10,28v-3h18v2c0,.6-.4,1-1,1H10ZM10,8h18v-3c0-.6-.4-1-1-1H10v4ZM10,10h18v3H10v-3ZM10,15h18v3H10v-3ZM8,4v4h-4v-3c0-.6.4-1,1-1h3Z"/>
</svg>