<svg width="24" height="24" viewBox="0 0 24 24" fill="none" xmlns="http://www.w3.org/2000/svg">
<path d="M22.3147 9.4522H18.7865L23.6165 4.6222C23.8638 4.3748 24 4.04597 24 3.69623C24 3.3465 23.8638 3.01767 23.6165 2.77031L23.1126 2.26641C22.602 1.75584 21.7712 1.75584 21.2606 2.26641L14.0748 9.4522H1.54041C0.691031 9.4522 0 10.1432 0 10.9927V20.5761C0 21.4255 0.691031 22.1165 1.54041 22.1165H22.3147C23.1641 22.1165 23.8551 21.4255 23.8551 20.5761V10.9927C23.8551 10.1432 23.1641 9.4522 22.3147 9.4522ZM21.9368 2.94253C22.0745 2.80486 22.2987 2.80477 22.4364 2.94253L22.9403 3.44644C23.007 3.51319 23.0438 3.60187 23.0438 3.69623C23.0438 3.79064 23.007 3.87933 22.9403 3.94608L21.7162 5.17012L20.8567 4.31062L20.7127 4.16662L21.9368 2.94253ZM20.0366 4.84261L21.0402 5.84616L11.4808 15.4056L9.97552 15.9073L10.4773 14.402L20.0366 4.84261ZM22.8989 20.5761C22.8989 20.8982 22.6368 21.1603 22.3147 21.1603H1.54041C1.21828 21.1603 0.956203 20.8982 0.956203 20.5761V10.9927C0.956203 10.6705 1.21828 10.4084 1.54041 10.4084H13.1187L9.72136 13.8058C9.66886 13.8583 9.62934 13.9223 9.60586 13.9927L8.76605 16.5121C8.70877 16.6839 8.75348 16.8734 8.88155 17.0014C8.97267 17.0925 9.09487 17.1414 9.2197 17.1414C9.27028 17.1414 9.32128 17.1334 9.37083 17.1168L11.8903 16.2771C11.9607 16.2536 12.0247 16.2141 12.0772 16.1616L17.8303 10.4085H22.3147C22.6368 10.4085 22.8989 10.6705 22.8989 10.9927V20.5761H22.8989Z" fill="#C14616"/>
<path d="M21.1441 19.1307H20.8591C20.5951 19.1307 20.3811 19.3448 20.3811 19.6088C20.3811 19.8728 20.5951 20.0869 20.8591 20.0869H21.1441C21.4082 20.0869 21.6222 19.8728 21.6222 19.6088C21.6222 19.3448 21.4082 19.1307 21.1441 19.1307Z" fill="#C14616"/>
<path d="M18.9587 19.1307H8.07937C7.81533 19.1307 7.6013 19.3448 7.6013 19.6088C7.6013 19.8728 7.81533 20.0869 8.07937 20.0869H18.9587C19.2228 20.0869 19.4368 19.8728 19.4368 19.6088C19.4368 19.3448 19.2228 19.1307 18.9587 19.1307Z" fill="#C14616"/>
<path d="M21.1441 16.3752H14.0179C13.7539 16.3752 13.5398 16.5893 13.5398 16.8533C13.5398 17.1173 13.7539 17.3314 14.0179 17.3314H21.1441C21.4082 17.3314 21.6222 17.1173 21.6222 16.8533C21.6222 16.5893 21.4082 16.3752 21.1441 16.3752Z" fill="#C14616"/>
<path d="M5.04314 14.8224V13.0497C5.65439 13.0934 5.8814 13.3729 6.09098 13.3729C6.35292 13.3729 6.47522 13.041 6.47522 12.8751C6.47522 12.4473 5.63695 12.2639 5.04314 12.2465V12.0107C5.04314 11.9059 4.91212 11.8098 4.7812 11.8098C4.63275 11.8098 4.52794 11.9059 4.52794 12.0107V12.2639C3.69834 12.3512 2.86884 12.7878 2.86884 13.8881C2.86884 15.0058 3.74208 15.3202 4.52794 15.5997V17.6517C3.63726 17.5819 3.40148 16.9706 3.11334 16.9706C2.89504 16.9706 2.71167 17.2587 2.71167 17.4683C2.71167 17.8962 3.44517 18.4813 4.52798 18.4987V18.7694C4.52798 18.8742 4.63279 18.9703 4.78125 18.9703C4.91226 18.9703 5.04319 18.8742 5.04319 18.7694V18.4725C5.98626 18.3415 6.63244 17.7477 6.63244 16.6736C6.63244 15.486 5.80284 15.1018 5.04314 14.8224ZM4.58034 14.6565C4.11754 14.4819 3.74208 14.2985 3.74208 13.8007C3.74208 13.3467 4.09139 13.1284 4.58034 13.0672V14.6565ZM4.99073 17.6341V15.7916C5.41861 15.975 5.75915 16.2195 5.75915 16.7697C5.7592 17.2674 5.4623 17.5468 4.99073 17.6341Z" fill="#C14616"/>
</svg>
