<?xml version="1.0" encoding="UTF-8"?>
<svg xmlns="http://www.w3.org/2000/svg" version="1.1" viewBox="0 0 150 150">
  <defs>
    <style>
      .cls-1 {
        fill: #c14616;
      }
    </style>
  </defs>
  <!-- Generator: Adobe Illustrator 28.7.1, SVG Export Plug-In . SVG Version: 1.2.0 Build 142)  -->
  <g>
    <g id="Layer_1">
      <g>
        <path class="cls-1" d="M89.4,87.5c.3-1,.1-2.2-.4-3.1l-2.7-4.5c-1.2-1.9-3.6-2.5-5.6-1.5l-.6.3c-.9-.7-2-1.2-3-1.7v-.5c0-2.3-1.9-4.1-4.1-4.1h-5.5c-2.3,0-4.1,1.8-4.1,4v.6c-1.1.5-2.1,1-3,1.7l-.6-.3c-1.9-1.1-4.4-.4-5.6,1.5l-2.7,4.5c-.6.9-.7,2-.4,3.1.3,1.1,1,2,2,2.5l.5.3c-.1,1.1-.1,2.1,0,3.2l-.5.3c-1,.5-1.7,1.4-2,2.5-.3,1-.1,2.2.4,3.1l2.7,4.5c1.2,1.9,3.6,2.5,5.6,1.5l.6-.3c.9.7,2,1.2,3,1.7v.5c0,2.2,1.9,4.1,4.1,4h5.5c2.3,0,4.1-1.8,4.1-4v-.5c1.1-.5,2.1-1,3-1.7l.6.3c1.9,1.1,4.4.4,5.6-1.5l2.7-4.5c.6-.9.7-2,.4-3.1-.3-1.1-1-2-2-2.5l-.5-.3c.1-1.1.1-2.1,0-3.2l.5-.3c1-.5,1.7-1.4,2-2.5h0ZM82.1,91.9c0,.5,0,1-.1,1.5-.2,1.6.6,3.3,2.1,4h.2c0,.1-1.9,3.3-1.9,3.3l-.4-.2c-1.4-.8-3.2-.7-4.5.3-.8.6-1.7,1.1-2.7,1.5-1.6.6-2.6,2.1-2.6,3.8v.3h-4v-.3c0-1.7-1.1-3.2-2.6-3.8-.9-.4-1.8-.9-2.7-1.5-1.3-1-3.1-1.1-4.5-.3l-.4.2-1.9-3.2h.2c1.5-.9,2.3-2.5,2.1-4.2,0-.5,0-1,0-1.5,0-.5,0-1,.1-1.5.2-1.6-.6-3.3-2.1-4h-.3c0-.1,1.9-3.3,1.9-3.3l.4.2c1.4.8,3.2.7,4.5-.3.8-.6,1.7-1.1,2.7-1.5,1.6-.6,2.6-2.1,2.6-3.8v-.3h4v.3c0,1.7,1.1,3.2,2.6,3.8.9.4,1.8.9,2.7,1.5,1.3,1,3.1,1.1,4.5.3l.4-.2,1.9,3.2h-.2c-1.5.9-2.3,2.5-2.1,4.2,0,.5,0,1,0,1.5Z"/>
        <path class="cls-1" d="M70.2,83.5c-4.7,0-8.5,3.8-8.5,8.5s3.8,8.5,8.5,8.5,8.5-3.8,8.5-8.5-3.8-8.5-8.5-8.5ZM70.2,95.5c-2,0-3.6-1.6-3.6-3.6s1.6-3.6,3.6-3.6,3.6,1.6,3.6,3.6-1.6,3.6-3.6,3.6ZM7.3,87.1h19.4v4.8H7.3v-4.8ZM0,104h19.4v4.8H0v-4.8ZM7.3,121h19.4v4.8H7.3v-4.8ZM72.6,25.3l-6.2,4.1,2.7,4,7.3-4.8c.7-.4,1.1-1.2,1.1-2v-14.5h-4.8v13.2Z"/>
        <path class="cls-1" d="M50.8,24.2c0,13.4,10.8,24.2,24.2,24.2,4.1,0,8.1-1,11.7-3l-2.3-4.2c-9.3,5.2-21.1,1.8-26.3-7.5-5.2-9.3-1.8-21.1,7.5-26.3,9.3-5.2,21.1-1.8,26.3,7.5,1.2,2.2,2,4.5,2.3,7h-5.6c-1.3,0-2.4,1.1-2.4,2.4s.2,1,.5,1.5l8.2,10.9c.8,1.1,2.3,1.3,3.4.5.2-.1.3-.3.5-.5l8.2-10.9c.8-1.1.6-2.6-.5-3.4-.4-.3-.9-.5-1.5-.5h-5.9c-1.3-13.3-13.2-23-26.5-21.6-12.3,1.3-21.7,11.6-21.8,24ZM100.1,26.6l-3.3,4.4-3.3-4.4h6.7ZM132.6,78.3c-.5-.6-1.2-.9-1.9-.9h-24.2v-12.1c0-1.3-1.1-2.4-2.4-2.4H36.3c-1.3,0-2.4,1.1-2.4,2.4v72.6c0,1.3,1.1,2.4,2.4,2.4h14.8c1.3,6.5,7.7,10.8,14.3,9.4,4.8-1,8.5-4.7,9.4-9.4h39.2c1.3,6.5,7.7,10.8,14.3,9.4,4.8-1,8.5-4.7,9.4-9.4h9.9c1.3,0,2.4-1.1,2.4-2.4v-36.3c0-.5-.2-1.1-.5-1.5l-16.9-21.8ZM123.4,82.2h6.1l13.2,16.9h-19.2v-16.9ZM38.7,67.7h62.9v48.4h-62.9v-48.4ZM62.9,145.1c-4,0-7.3-3.2-7.3-7.3s3.2-7.3,7.3-7.3,7.3,3.2,7.3,7.3-3.2,7.3-7.3,7.3h0ZM125.8,145.1c-4,0-7.3-3.2-7.3-7.3s3.2-7.3,7.3-7.3,7.3,3.2,7.3,7.3-3.2,7.3-7.3,7.3h0ZM145.2,135.5h-7.5c-1.3-6.5-7.7-10.8-14.3-9.4-4.8,1-8.5,4.7-9.4,9.4h-39.2c-1.3-6.5-7.7-10.8-14.3-9.4-4.8,1-8.5,4.7-9.4,9.4h-12.3v-14.5h106.5v14.5ZM145.2,116.1h-38.7v-33.9h12.1v19.4c0,1.3,1.1,2.4,2.4,2.4h24.2v12.1Z"/>
      </g>
    </g>
  </g>
</svg>