<?xml version="1.0" encoding="UTF-8"?>
<svg id="Layer_1" data-name="Layer 1" xmlns="http://www.w3.org/2000/svg" viewBox="0 0 120.69 120">
  <defs>
    <style>
      .cls-1 {
        fill: #fff;
        fill-rule: evenodd;
      }
    </style>
  </defs>
  <g id="Layer_1-2" data-name="Layer_1">
    <g id="_440891672" data-name=" 440891672">
      <g>
        <g>
          <path class="cls-1" d="M39.96,30.23c-4.92,0-8.91-3.98-8.91-8.91s3.98-8.91,8.91-8.91,8.91,3.98,8.91,8.91-3.98,8.91-8.91,8.91ZM39.96,15.7c-3.05,0-5.62,2.58-5.62,5.62s2.58,5.62,5.62,5.62c3.28,0,5.62-2.34,5.62-5.62s-2.34-5.62-5.62-5.62Z"/>
          <path class="cls-1" d="M80.5,30.23c-4.92,0-8.91-3.98-8.91-8.91s3.98-8.91,8.91-8.91,8.91,3.98,8.91,8.91-3.98,8.91-8.91,8.91ZM80.5,15.7c-3.05,0-5.62,2.58-5.62,5.62s2.58,5.62,5.62,5.62c3.28,0,5.62-2.34,5.62-5.62s-2.34-5.62-5.62-5.62Z"/>
          <path class="cls-1" d="M9.25,30.23C4.33,30.23.35,26.25.35,21.33s3.98-8.91,8.91-8.91,8.91,3.98,8.91,8.91-3.98,8.91-8.91,8.91ZM9.25,15.7c-3.05,0-5.62,2.58-5.62,5.62s2.58,5.62,5.62,5.62,5.62-2.58,5.62-5.62-2.58-5.62-5.62-5.62Z"/>
          <path class="cls-1" d="M111.44,30.23c-4.92,0-8.91-3.98-8.91-8.91s3.98-8.91,8.91-8.91,8.91,3.98,8.91,8.91-3.98,8.91-8.91,8.91ZM111.44,15.7c-3.05,0-5.62,2.58-5.62,5.62s2.58,5.62,5.62,5.62,5.62-2.58,5.62-5.62-2.58-5.62-5.62-5.62Z"/>
        </g>
        <g>
          <path class="cls-1" d="M39.96,56.02c-4.92,0-8.91-3.98-8.91-8.91s3.98-8.91,8.91-8.91,8.91,3.98,8.91,8.91-3.98,8.91-8.91,8.91ZM39.96,41.48c-3.05,0-5.62,2.58-5.62,5.62s2.58,5.62,5.62,5.62c3.28,0,5.62-2.34,5.62-5.62s-2.34-5.62-5.62-5.62Z"/>
          <path class="cls-1" d="M80.5,56.02c-4.92,0-8.91-3.98-8.91-8.91s3.98-8.91,8.91-8.91,8.91,3.98,8.91,8.91-3.98,8.91-8.91,8.91ZM80.5,41.48c-3.05,0-5.62,2.58-5.62,5.62s2.58,5.62,5.62,5.62c3.28,0,5.62-2.34,5.62-5.62s-2.34-5.62-5.62-5.62Z"/>
          <path class="cls-1" d="M9.25,56.02c-4.92,0-8.91-3.98-8.91-8.91s3.98-8.91,8.91-8.91,8.91,3.98,8.91,8.91-3.98,8.91-8.91,8.91ZM9.25,41.48c-3.05,0-5.62,2.58-5.62,5.62s2.58,5.62,5.62,5.62,5.62-2.58,5.62-5.62-2.58-5.62-5.62-5.62Z"/>
          <path class="cls-1" d="M111.44,56.02c-4.92,0-8.91-3.98-8.91-8.91s3.98-8.91,8.91-8.91,8.91,3.98,8.91,8.91-3.98,8.91-8.91,8.91ZM111.44,41.48c-3.05,0-5.62,2.58-5.62,5.62s2.58,5.62,5.62,5.62,5.62-2.58,5.62-5.62-2.58-5.62-5.62-5.62Z"/>
        </g>
        <g>
          <path class="cls-1" d="M39.96,81.8c-4.92,0-8.91-3.98-8.91-8.91s3.98-8.91,8.91-8.91,8.91,3.98,8.91,8.91-3.98,8.91-8.91,8.91ZM39.96,67.27c-3.05,0-5.62,2.58-5.62,5.62s2.58,5.62,5.62,5.62c3.28,0,5.62-2.34,5.62-5.62s-2.34-5.62-5.62-5.62Z"/>
          <path class="cls-1" d="M80.5,81.8c-4.92,0-8.91-3.98-8.91-8.91s3.98-8.91,8.91-8.91,8.91,3.98,8.91,8.91-3.98,8.91-8.91,8.91ZM80.5,67.27c-3.05,0-5.62,2.58-5.62,5.62s2.58,5.62,5.62,5.62c3.28,0,5.62-2.34,5.62-5.62s-2.34-5.62-5.62-5.62Z"/>
          <path class="cls-1" d="M9.25,81.8c-4.92,0-8.91-3.98-8.91-8.91s3.98-8.91,8.91-8.91,8.91,3.98,8.91,8.91-3.98,8.91-8.91,8.91ZM9.25,67.27c-3.05,0-5.62,2.58-5.62,5.62s2.58,5.62,5.62,5.62,5.62-2.58,5.62-5.62-2.58-5.62-5.62-5.62Z"/>
          <path class="cls-1" d="M111.44,81.8c-4.92,0-8.91-3.98-8.91-8.91s3.98-8.91,8.91-8.91,8.91,3.98,8.91,8.91-3.98,8.91-8.91,8.91ZM111.44,67.27c-3.05,0-5.62,2.58-5.62,5.62s2.58,5.62,5.62,5.62,5.62-2.58,5.62-5.62-2.58-5.62-5.62-5.62Z"/>
        </g>
        <g>
          <path class="cls-1" d="M39.96,107.58c-4.92,0-8.91-3.98-8.91-8.91s3.98-8.91,8.91-8.91,8.91,3.98,8.91,8.91-3.98,8.91-8.91,8.91ZM39.96,93.05c-3.05,0-5.62,2.58-5.62,5.62s2.58,5.62,5.62,5.62c3.28,0,5.62-2.34,5.62-5.62s-2.34-5.62-5.62-5.62Z"/>
          <path class="cls-1" d="M80.5,107.58c-4.92,0-8.91-3.98-8.91-8.91s3.98-8.91,8.91-8.91,8.91,3.98,8.91,8.91-3.98,8.91-8.91,8.91ZM80.5,93.05c-3.05,0-5.62,2.58-5.62,5.62s2.58,5.62,5.62,5.62c3.28,0,5.62-2.34,5.62-5.62s-2.34-5.62-5.62-5.62Z"/>
          <path class="cls-1" d="M9.25,107.58c-4.92,0-8.91-3.98-8.91-8.91s3.98-8.91,8.91-8.91,8.91,3.98,8.91,8.91-3.98,8.91-8.91,8.91ZM9.25,93.05c-3.05,0-5.62,2.58-5.62,5.62s2.58,5.62,5.62,5.62,5.62-2.58,5.62-5.62-2.58-5.62-5.62-5.62Z"/>
          <path class="cls-1" d="M111.44,107.58c-4.92,0-8.91-3.98-8.91-8.91s3.98-8.91,8.91-8.91,8.91,3.98,8.91,8.91-3.98,8.91-8.91,8.91ZM111.44,93.05c-3.05,0-5.62,2.58-5.62,5.62s2.58,5.62,5.62,5.62,5.62-2.58,5.62-5.62-2.58-5.62-5.62-5.62Z"/>
        </g>
        <path class="cls-1" d="M9.25,41.48c-.94,0-1.64-.7-1.64-1.64v-11.25c0-.94.7-1.64,1.64-1.64s1.64.7,1.64,1.64v11.25c0,.94-.7,1.64-1.64,1.64Z"/>
        <path class="cls-1" d="M86.6,96.09c-.47,0-.94-.23-1.17-.47-.7-.7-.7-1.88,0-2.34l19.22-16.64c.7-.7,1.88-.7,2.34,0,.7.7.47,1.88,0,2.34l-19.22,16.64c-.47.23-.7.47-1.17.47Z"/>
        <path class="cls-1" d="M73.71,98.2c-.23,0-.7,0-.94-.23l-27.66-19.45c-.7-.7-.94-1.64-.47-2.34.7-.7,1.64-.94,2.34-.47l27.66,19.45c.7.47.94,1.64.47,2.34-.47.47-.94.7-1.41.7Z"/>
        <path class="cls-1" d="M46.05,70.31c-.47,0-.94-.23-1.41-.7-.47-.7-.23-1.64.47-2.34l27.42-20.16c.7-.47,1.64-.23,2.34.47.47.7.23,1.64-.47,2.34l-27.42,20.16c-.23.23-.7.23-.94.23Z"/>
        <path class="cls-1" d="M85.89,43.83c-.47,0-.94-.23-1.17-.7-.7-.7-.47-1.64.23-2.11l19.92-16.17c.7-.7,1.64-.47,2.11.23.7.7.47,1.64-.23,2.11l-19.92,16.17c-.23.47-.47.47-.94.47Z"/>
        <path class="cls-1" d="M111.44,41.48c-.94,0-1.64-.7-1.64-1.64v-11.25c0-.94.7-1.64,1.64-1.64s1.64.7,1.64,1.64v11.25c0,.94-.7,1.64-1.64,1.64Z"/>
        <path class="cls-1" d="M104.17,49.22h-16.41c-.94,0-1.64-.7-1.64-1.64s.7-1.64,1.64-1.64h16.41c.94,0,1.64.7,1.64,1.64s-.7,1.64-1.64,1.64Z"/>
        <path class="cls-1" d="M33.16,97.97c-.47,0-.94-.23-1.17-.47l-18.52-18.52c-.7-.7-.7-1.64,0-2.34s1.64-.7,2.34,0l18.52,18.52c.7.7.7,1.64,0,2.34-.23.23-.7.47-1.17.47Z"/>
        <path class="cls-1" d="M15.35,70.55c-.47,0-.94-.23-1.17-.47-.7-.7-.7-1.64,0-2.34l18.28-18.28c.7-.7,1.64-.7,2.34,0s.7,1.64,0,2.34l-18.28,18.28c-.23.23-.7.47-1.17.47Z"/>
        <path class="cls-1" d="M73.24,22.97h-26.02c-.94,0-1.64-.7-1.64-1.64s.7-1.64,1.64-1.64h26.02c.94,0,1.64.7,1.64,1.64s-.7,1.64-1.64,1.64Z"/>
      </g>
    </g>
  </g>
</svg>