<?xml version="1.0" encoding="UTF-8"?>
<svg xmlns="http://www.w3.org/2000/svg" version="1.1" xmlns:xlink="http://www.w3.org/1999/xlink" viewBox="0 0 150 150">
  <defs>
    <style>
      .cls-1 {
        fill: #c14616;
      }

      .cls-2 {
        stroke: #c14616;
        stroke-linecap: round;
        stroke-linejoin: round;
        stroke-width: 5px;
      }

      .cls-2, .cls-3 {
        fill: none;
      }

      .cls-4 {
        clip-path: url(#clippath);
      }
    </style>
    <clipPath id="clippath">
      <rect class="cls-3" width="150" height="150"/>
    </clipPath>
  </defs>
  <!-- Generator: Adobe Illustrator 28.7.1, SVG Export Plug-In . SVG Version: 1.2.0 Build 142)  -->
  <g>
    <g id="Layer_1">
      <g class="cls-4">
        <g>
          <path class="cls-1" d="M58.3,57.2c-.5-.3-1.1-.5-1.6-.5-1.7,0-3,1.4-3,3s.3,1.5.8,2.1c.6.6,1.4,1,2.2,1,1.7,0,3-1.4,3-3,0-1.1-.6-2-1.4-2.6"/>
          <path class="cls-2" d="M75,0v20.1"/>
          <path class="cls-2" d="M75,129.9v20.1"/>
          <path class="cls-2" d="M17.2,23.3l12.9,12.9"/>
          <path class="cls-2" d="M119.9,116.9l12.9,12.9"/>
          <path class="cls-2" d="M132.8,23.3l-12.9,12.9"/>
          <path class="cls-2" d="M30.1,116.9l-12.9,12.9"/>
          <path class="cls-2" d="M142.1,75s-26.7,39.6-67.1,39.6S7.9,75,7.9,75c0,0,26.7-39.6,67.1-39.6s67.1,39.6,67.1,39.6Z"/>
          <path class="cls-2" d="M66.3,52.2c.1,0,.2,0,.3-.1.1,0,.2,0,.4-.1.1,0,.2,0,.3-.1.3-.1.7-.2,1-.3.2,0,.4-.1.6-.2.2,0,.4-.1.6-.1.2,0,.4,0,.6-.1.2,0,.3,0,.5,0,.1,0,.3,0,.4,0,0,0,.1,0,.2,0,.1,0,.3,0,.4,0,0,0,0,0,.1,0,.1,0,.2,0,.4,0,.1,0,.3,0,.4,0h.2c.1,0,.3,0,.4,0,0,0,.1,0,.2,0,0,0,.2,0,.3,0,.1,0,.3,0,.4,0,.2,0,.3,0,.5,0,.2,0,.4,0,.6,0,13.5,0,24.4,10.9,24.4,24.4s-1.1,8.2-2.9,11.6c-.3.5-.6,1-.9,1.5-.2.3-.4.6-.6.9,0,0,0,0,0,0-.4.6-.9,1.2-1.4,1.8-.4.4-.8.9-1.2,1.3-.4.4-.8.7-1.2,1.1-1.7,1.5-3.6,2.7-5.6,3.7-.3.2-.7.3-1,.5-.7.3-1.5.6-2.2.8-.8.2-1.5.4-2.3.6-1.6.3-3.3.5-4.9.5-13.5,0-24.4-10.9-24.4-24.4s0-.4,0-.6c0-.2,0-.3,0-.5,0-.2,0-.4,0-.6,0-.1,0-.3,0-.4h0c0-.3,0-.5,0-.6h0c0-.2,0-.4,0-.6,0-.1,0-.3,0-.4,0-.2,0-.4,0-.5,0,0,0,0,0-.1"/>
          <path class="cls-2" d="M75,84.1c-5,0-9.1-4.1-9.1-9.1s4.1-9.1,9.1-9.1,9.1,4.1,9.1,9.1-4.1,9.1-9.1,9.1Z"/>
        </g>
      </g>
    </g>
  </g>
</svg>